<svg id="Layer_1" data-name="Layer 1" xmlns="http://www.w3.org/2000/svg" viewBox="0 0 516.83 549.81"><defs><style>.cls-1{fill:#373737;}.cls-2{fill:#604d8a;}.cls-3{fill:#f8ca76;}.cls-4{fill:#706296;}.cls-5{fill:#3c3b3c;}.cls-6{fill:#6393da;}.cls-7{fill:#ef9c80;}.cls-8{fill:#fefced;}.cls-9{fill:#439681;}.cls-10{fill:#5688d1;}.cls-11{fill:#c04235;}.cls-12{fill:#a3babb;}.cls-13{fill:#3a3f46;}.cls-14{fill:#f09c81;}.cls-15{fill:#f8c976;}.cls-16{fill:#fefbed;}.cls-17{fill:#f19f83;}.cls-18{fill:#f1a68b;}.cls-19{fill:#f1725c;}.cls-20{fill:#5587d0;}.cls-21{fill:#9f2b28;}.cls-22{fill:#bf4034;}.cls-23{fill:#c3483b;}.cls-24{fill:#f8ca77;}</style></defs><path class="cls-1" d="M319.17,131c-7.95-14.07-8.57-28.41-1.41-42.94,1.44-2.92,1.28-3.93-2.34-4-5.2-.14-11-.64-13.1-6.3-2.18-5.86,1.47-10.51,5.27-14.69,3.47-3.81,8-6.25,12.55-9.45-2.94-1.21-5.28-.32-7.64,0s-4.87-.06-6.21-2.24c-1.44-2.37,0-4.5,1.54-6.34,2.26-2.78,5.4-4.38,8.5-6,10.53-5.42,21.89-7.7,33.54-8.92,2.3-.25,4.66-.17,7.21-1.33-4.73-3.38-9.49-6.48-12.71-11.18-2.58-3.76-5.39-8-2.33-12.36s8.19-3,11.86-1.08c20,10.42,42,10.54,63.58,13,13.45,1.5,26.42,5.05,38.38,11.73a58.83,58.83,0,0,1,17,14.33c-1-9.6-4.2-18.5-6.6-27.59C464.94,10.47,463.57,5.33,466,.1h5c14.37,11.93,17,27.63,14.18,45.63,1.74-1.65,3-2.92,4.33-4.12,7.22-6.5,15.27-11.27,25.32-11.46,4.11-.07,8.5.6,9.9,5.09,1.36,4.34-2.53,6.56-5.49,8.54-7.25,4.83-15.27,8-23.59,10.51-1.48.45-3.64.14-4.39,2.05C511.74,61.81,525,74.42,531,94.66c.63,2.14.13,4.64,2,6.4v17c-2.57,2.16-2.74,9.17-8.7,3.87-1.45,9-3.57,17.41-7.36,25.27a3.61,3.61,0,0,1-.87-.46c-15.44-14.18-28.54-15-46-2.59-3.62,2.57-4.7.35-5.61-2.43-1-3-1.09-6.06-3.58-8.55C447.76,120.06,444,103.84,445.56,86c.36-4.07.93-8.11,1.5-13a94.67,94.67,0,0,1-27.33,13.53c-7.58,2.29-15.27,3.49-23.12,2.19-3.39-.57-7.16-1.38-8.3-5.4s1.67-6.46,4.22-8.91c3.7-3.56,8.05-6.45,11-10.79.4-.44.81-.88.4-1.54l.34-.27-.28.35-1.26.71c-2.35,1.22-4.7,2.45-7.06,3.65-18.48,9.41-37.53,16.85-58.74,16.63-.61-1-1.61-1-2.62-1.09-4.1-.33-8.3-.93-10-5.31-1.78-4.67.83-8.41,3.77-11.72,5.13-5.78,11.84-9.06,18.95-11.66,1.6-.58,3.48-.67,4.64-2.08-.58-1.06-1.25-1.08-1.88-.89-8.26,2.37-16,5.79-22.16,12-4.17,4.18-7.34,9-5.19,15.17,2,5.76,7.44,6,12.4,6.66-7,13.72-11.24,28.34-13.92,43.45A5,5,0,0,1,319.17,131Z" transform="translate(-16.1 -0.1)"/><path class="cls-2" d="M294,549.9l7-48.54c.54-3.76,1.11-7.52,1.66-11.27,2.46-.15,4.41,1.37,6.59,2.08,22,7.17,44.88,8.62,67.71,9.51,25.05,1,50-1.07,75-3.58,15.67-1.58,31.26-3.51,46.75-6.26,7.48-1.33,14.84-3.34,22.26-5,1.94,21,3.81,42,4.95,63.09h-16c-1.65-1.73-3.77-1-5.67-1q-58.14-.08-116.26,0c-2.86-10.49-5.43-21.07-10.86-30.63,2.16,10.33,6.18,20.1,8.1,30.45q-41.79.09-83.59.21c-1.9,0-4-.78-5.65,1Z" transform="translate(-16.1 -0.1)"/><path class="cls-3" d="M46.16,148.52A87.22,87.22,0,0,1,26,147a15.09,15.09,0,0,1-9.85-6.93v-5c.74-.88,1.31-2,2.25-2.57,3.13-1.83,3-3.87,1.61-7-3.29-7.64-.36-14,6.75-15.74a5.37,5.37,0,0,1,2.9-.25c5.46,2.25,6.86.43,6.7-5.24s2.9-10.53,8.5-12.94S55.38,91.16,59.32,95c2.74,2.63,3.8,2.65,6.17-.42,4.61-6,10.35-7.45,15.06-4.74,5.68,3.27,6,9,6,14.41A54.62,54.62,0,0,1,82,126a11.51,11.51,0,0,1-1.19-.89c-1.68-1.6-3.24-3.63-6-2.63s-3,3.81-3.25,6.26c-.24,2.83-.06,5.7-.06,8.66-2.54-1.63-4.84-3.26-7.29-4.62-2.16-1.2-4.59-2.68-7-.85s-1.62,4.43-1.24,6.93c.19,1.23,1.43,2.33.46,3.91-1.73-.37-3.5-.67-5.24-1.12-2.38-.62-4.72-.79-6.49,1.22C42.63,145.25,45.71,146.61,46.16,148.52Z" transform="translate(-16.1 -0.1)"/><path class="cls-4" d="M388,548.91q58.13,0,116.26,0c1.9,0,4-.77,5.67,1H388Z" transform="translate(-16.1 -0.1)"/><path class="cls-4" d="M296,549.9c1.63-1.74,3.75-.95,5.65-1q41.79-.16,83.59-.21c.24.39.48.78.73,1.17Z" transform="translate(-16.1 -0.1)"/><path class="cls-5" d="M386,549.9c-.25-.39-.49-.78-.73-1.17-1.92-10.35-5.94-20.12-8.1-30.45,5.43,9.56,8,20.14,10.86,30.63l0,1Z" transform="translate(-16.1 -0.1)"/><path class="cls-6" d="M445.17,245.55c12.2-.18,23.81,2,34.36,8.52,18,11.19,26.59,28.31,30.39,48.36,3.9,20.59,5.57,41.49,8,62.28,2.68,22.61,5.15,45.25,7.61,67.88,1.27,11.73,2.3,23.49,3.52,35.23.82,7.87-1.06,14.51-8.1,19-7.42,1.69-14.78,3.7-22.26,5-15.49,2.75-31.08,4.68-46.75,6.26-24.94,2.51-49.93,4.56-75,3.58-22.83-.89-45.7-2.34-67.71-9.51-2.18-.71-4.13-2.23-6.59-2.08-1-.62-1.95-1.26-2.95-1.83-10.17-5.76-11.66-14.64-9.69-25.25,3.5-18.88,6.56-37.85,9.81-56.78,16.62-.35,32.76-3.85,48.89-7.41,2.17,2,3.81,4.48,6.32,6.25,9.22,6.49,19.92,6.21,29.8,4.46,31.05-5.52,57.51-20.47,79.59-42.86,3.83-3.89,9.08-7.49,9.36-14,.58-.74,2-.85,1.82-2.1-.13-.93-1-.67-1.59-.48a24.54,24.54,0,0,0-2.72,1.22,649.55,649.55,0,0,1-80.57,32.21C362,392.93,333.1,402,302.6,404.07c-1.41.09-2.69.28-2.94,2-6.93-.95-14.15.95-20.86-2.12a44.89,44.89,0,0,0,2.95-18.74c.74-13.15-.64-26.19-2.32-39.18-1.13-8.68-2.48-17.39-6.39-25.41-1.46-5.91-5-10.24-10.05-13.51.7-1.32,2-1.08,3.14-1.19,7-2,14-4.22,21.14-5.84,19.76-4.5,39.38-10.1,60-8.48,1.17.1,2.47-.8,3.65-1.37,30.14-14.51,61.14-26.28,94.62-30.36,1-.12,2.5.18,2.32-2.32-3.11.33-6.21.49-9.24,1-30.9,5.35-60.18,15.63-88.29,29.38-1.2.59-2.32,1.31-3.74,1.21a89.21,89.21,0,0,0-20.84.84c-.24-2.68,2.82-4.26,1.35-8.26-2.73,5.39-4.79,10.55-11.22,9.84,3-2.39,4.9-5.59,6.77-8.86a230.77,230.77,0,0,1,15-22.77c1.66-2.23,4.12-3.92,4.26-7.06L370.74,246l.48,7.28c2,3.78,5.81,4.31,9.38,4.62a77.2,77.2,0,0,0,23.28-1.26C417.82,253.58,430.94,247.49,445.17,245.55Z" transform="translate(-16.1 -0.1)"/><path class="cls-7" d="M445.17,245.55c-14.23,1.94-27.35,8-41.29,11.07a77.2,77.2,0,0,1-23.28,1.26c-3.57-.31-7.36-.84-9.38-4.63,25.3-.34,46-12.09,66.62-26.77-1.61-.07-2.17-.28-2.51-.09-18.68,10.48-38.89,13-59.85,11.54-1.53-.11-3-.08-4.15,1.16-.55-2.13-2.39-1.89-4-2.24-21.18-4.69-38.7-14.73-49.66-34.25-9-16-9.58-32.75-5-50.17,1.89-7.23,5.67-13.86,6.49-21.39A5,5,0,0,0,321,127.6c2.68-15.11,6.89-29.73,13.92-43.45l2.05-1.06c21.21.22,40.26-7.22,58.74-16.63,2.36-1.2,4.71-2.43,7.06-3.65l.81.75c-2.95,4.34-7.3,7.23-11,10.79-2.55,2.45-5.38,4.88-4.22,8.91s4.91,4.83,8.3,5.4c7.85,1.3,15.54.1,23.12-2.19a94.67,94.67,0,0,0,27.33-13.53c-.57,4.91-1.14,9-1.5,13-1.6,17.88,2.2,34.1,15.26,47.2,2.49,2.49,2.61,5.6,3.58,8.55.91,2.78,2,5,5.61,2.43,17.45-12.39,30.55-11.59,46,2.59a3.61,3.61,0,0,0,.87.46c2.08,5.21,5,10.08,5.16,16,.72,23.72-21,42.39-44.63,37.16-8-1.76-12.48-.9-16.53,6.36-3.31,5.94-8.91,10.33-14.66,14.07-2.79,1.82-3.45,3.87-3.35,7A96.29,96.29,0,0,0,445.17,245.55ZM362,196.1c2.64,2.7,6.24,2.93,9.61,3.56,12.8,2.39,26.79-7.23,28.56-19.51,3.43-11.16-4.67-16-12.74-14.72a15,15,0,0,0-3.89.79c-6.42,2.94-12.16,2.83-18.76-.77-8-4.35-16.12,1.58-15.59,10.77A22.79,22.79,0,0,0,362,196.1ZM431.08,173a19.11,19.11,0,0,0,10.37-1.78c7.37-3.72,8.45-9.87,2.72-15.56-6.93-6.86-21.21-7.9-29.1-2.1-4.61,3.38-5.11,8.58-1.27,12.83C418.37,171.45,424.1,173.46,431.08,173Zm-83-19.85a20,20,0,0,0-1-2.94c-4.38-8.61-21.18-11.27-28.07-4.47-3.65,3.61-3.76,7.59-.31,11.47a19.47,19.47,0,0,0,23.57,4.5A10.22,10.22,0,0,0,348.05,153.18Zm9.19-29.68c-.05-3.63-.57-7.25-4.56-8.5-4.26-1.33-6.89,1.53-8.85,4.75-2.49,4.1-3.6,8.56-1.87,13.29s5.92,6,9.84,2.75S357.23,128.4,357.24,123.5Zm45.56,12.24c.06,3.93.69,7.76,5,8.78,4,.94,6.47-2,8.28-5.09,2.23-3.85,3.26-8,1.87-12.43-1.66-5.33-6.24-6.61-10.39-2.82C404.22,127.27,402.88,131.3,402.8,135.74Zm87.49,42.91c2.15-2.85,2.73-4.82,2.21-7-1.06-4.52-4.48-7-8.28-9.09,4.1-5.44,10.19-4.2,15.47-5.55-4.35-3.05-8.53-1.32-12.37.57-5.12,2.53-10,5.62-11,12.21,3.21-2.12,5.2-7,10.31-3.35C490.73,169.31,489.8,173.59,490.29,178.65ZM380.6,125.45c-2.91,1.88-2.62,5-3.69,7.46-1,2.28-1.16,5.36-2.81,6.75s-3.55-1.66-5.58-2.26c-4.28-1.26-9,.35-10.3,3.75-1.53,4.1.33,8.94,4.15,10.53.39-.93-.16-1.56-.61-2.23-2-3-3.15-6.36-.1-9s6.55-.92,9.53,1.14a15.57,15.57,0,0,1,1.46,1.36c1.31,1.21,2.58,1,3.17-.56C377.92,136.86,380.11,131.37,380.6,125.45Zm19.77-19.65c5-2.76,9.73-5.84,15.73-4.69,5.72,1.1,9.86,4.5,12.79,9.63-.09-5.73-4.23-10-10.45-11.63C411,97.15,404,99.55,400.37,105.8Zm-33.91-4.67c-1-6.17-6.82-10.51-13.43-10.66s-13.3,4.13-14.35,9.27C354.65,90.26,355,90.27,366.46,101.13ZM437.9,225.81c2.07-.1,3-.78,3.46-2.48A3.29,3.29,0,0,0,437.9,225.81Z" transform="translate(-16.1 -0.1)"/><path class="cls-8" d="M87.13,318.54c.25-5.43-3.45-9.51-5.18-14.22-3.22-8.74-8.32-16.77-11.73-25.45-2.64-6.73-5.61-13.33-8.12-20.12-3.57-9.67-7.77-19.12-11-28.89-2.48-7.41-3.94-15.17-5.74-22.8-.16-.65.55-1.52.86-2.28C57,210.23,67.7,215.73,78.5,221.1c2.17,1.08,4.09,2.91,6.79,2.68,1.31,1.62,3.2,2.33,5,3.21,7.17,3.5,14.47,6.76,21.47,10.58,4.35,2.38,7.87,2.44,12.41.06,19.44-10.18,39.13-19.89,58.7-29.83C187,205.69,191.38,204,195,201l1.05-.95h0c2,.26,3.51-.87,5.13-1.68Q216.64,190.75,232,183a82.5,82.5,0,0,1-3.76,18.66c-1.18,3.8-2.68,7.71-2.67,12s-1.92,8.66-3.31,12.66c-3.25,9.29-4.48,19-7.49,28.28-2.5,7.69-3.28,15.87-6.82,23.23-1.6,3.3-.79,6.87-.9,10.33-3.75,8.93-5.46,18.44-7.83,27.76-.58,4.78-3.17,6.19-8,6.2a69.61,69.61,0,0,0-29.71,6.58c-5,2.35-8.78,5.8-10.52,11.19-3.09.16-6.2-.1-9.24.88-1.41.45-3,.54-4.13-.72-2.67-3-6-2.71-9.49-2.19-4.28-10.62-8.8-21.19-11.75-32.26-5.42-20.35-12-40.69-4.76-62.85-3.06,2.07-4,4.67-4.55,7.35-1.62,7.41-.94,14.83-.14,22.29,2.49,23.37,10,45.26,19.38,66.61-3,2.27-6.28.74-9.46.46-6.93-.61-13.62-4.49-20.8-1.43Q91.61,328.29,87.13,318.54Z" transform="translate(-16.1 -0.1)"/><path class="cls-9" d="M195,201c-3.66,3-8,4.66-12.18,6.77-19.57,9.94-39.26,19.65-58.7,29.83-4.54,2.38-8.06,2.32-12.41-.06-7-3.82-14.3-7.08-21.47-10.58-1.79-.88-3.68-1.59-5-3.21-4.53-11-11.13-20.52-20.69-27.82-3.53-4.53-8.23-7.68-12.84-10.94-1.16-.83-3.14-1.52-2.4-3.28.63-1.52,2.59-1.19,4-1.09,11.83.85,22,6,31.62,12.46,5.78,6.16,12,12,16.77,19.09-1.74-7.36-3.27-14.62-7.08-21.11A99.88,99.88,0,0,0,80.9,165.2c3.31-.14,5.63-2.08,7.76-4.34,6,9.29,10.54,19.36,15.31,29.29a47.21,47.21,0,0,0,3.82,11.25c.51-4.29-.18-7.86-.79-11.43-.5-11.46-1-22.92-1.48-34.38-.09-2.11-.83-5.32,1.12-5.94,2.4-.76,3.63,2.36,4.79,4.25,5.14,8.47,8.24,17.76,10.65,27.31.6,2.37.76,4.9,3,8.2,1.21-18.21,1.67-35.26,1.13-52.34a21.21,21.21,0,0,0,9.91.78c-.76,16.64-1.52,33.27-2.33,51.05a13.13,13.13,0,0,0,5-7c5.17-13.42,11.64-26.13,20.83-37.3,1.52-1.84,3.15-5,5.64-4,2.21.9,1.08,4.23.87,6.41-1.13,11.58-2.46,23.14-3.73,34.71l-3.51,24,.84.12q5.27-12.3,10.52-24.6l8.63-16.43c1.81,3.35,5,4.11,8.4,4.39A26.39,26.39,0,0,0,182,179c-4.31,4.67-5.49,10.75-7.5,16.61,4.65-6.51,11-11.07,16.61-16.45,1.91-.92,3.83-1.82,5.73-2.78,2.26-1.15,4.08-.95,5.2,1.6-.45,7.77-3.28,14.9-6,22.07h0Zm-69.57-5.29c.47,11.19,2.12,22.28,1.82,33.48,0,.85.44,1.7,1.49,1.54s1.15-1.13,1.11-1.95c-.28-5.64-.25-11.33-1-16.9C128.1,206.49,128.35,200.8,125.47,195.74Zm47.76,2,.33-.29a3.67,3.67,0,0,0-.67-.31c-.07,0-.2.17-.31.27Z" transform="translate(-16.1 -0.1)"/><path class="cls-10" d="M199.25,315.94c2.37-9.32,4.08-18.83,7.83-27.76l52-13.72q39.48-10.45,79-20.9a39.38,39.38,0,0,1,3.91-.66c-.14,3.14-2.6,4.83-4.26,7.06a230.77,230.77,0,0,0-15,22.77c-1.87,3.27-3.77,6.47-6.77,8.85a416.5,416.5,0,0,0-45.56,10.81c-1.68.5-4.9-.08-4.21,3.54-1.15.11-2.44-.13-3.14,1.19-2.45-.12-2.84,1.9-3.56,3.5-1.75,3.92-1.67,8.06-1.42,12.22-4.17,1.21-8.58,2.37-12.71,1.21C230.19,319.83,214.67,318.2,199.25,315.94Z" transform="translate(-16.1 -0.1)"/><path class="cls-3" d="M110.19,101.25C102.63,97,95.35,92.33,90.56,84.83c-5.54-8.67-2.28-15.49,7.9-16.58,2-.22,2.35-1.09,2.66-2.76,1.29-6.87,5.34-11.46,12.19-12.88,6.22-1.3,10.83,2.08,14.7,6.49,1.47,1.66,2.33,3.69,4.7.68,3.39-4.3,7.53-7.74,13.61-6.11,6.36,1.7,7.93,6.92,8.75,12.58a8.21,8.21,0,0,0,.61,1.54c3.63-1.13,7.14-2.65,11.07-2,7.91,1.26,10.91,6,8.33,13.51-2.35,6.86-7,12-12.8,16.12-2.82,2-5.82,3.8-8.74,5.69-1.86-5.42-3.92-6-7.88-2-2.23,2.26-4,5-6.31,7.92a33.33,33.33,0,0,0-2.49-9.85c-.82-1.92-2.14-3.55-4.38-3.62-2.43-.07-4.08,1.5-4.89,3.64-1,2.77-1.78,5.65-2.79,8.91A59.26,59.26,0,0,0,121,99.8c-2-2.58-4-6-7.79-5.32C109.76,95.1,111.61,99.13,110.19,101.25Z" transform="translate(-16.1 -0.1)"/><path class="cls-3" d="M180.17,133.19c-3.44-7.59-6.66-15.23-6.24-23.86a18.54,18.54,0,0,1,1.64-7.23c2.17-4.53,7.05-5.71,10.61-2.18,2.29,2.27,3.44,2,5.52-.11,10-10,26-3,27.47,7.92.37,2.72,1.61,3,4.09,2,3.54-1.39,7.27-2.37,11.16-.89,5.69,2.16,8,6.59,5.87,12.27-.91,2.42-1.12,3.51,1.72,4.71,6.14,2.58,7.12,8.16,2.47,13.22-6.62,7.19-15.58,9.78-24.67,12,1.33-4.6-1.1-5.66-4.91-4.93-2.87.55-5.65,1.55-8.47,2.35l-.64-.64c.11-2.14.35-4.28.29-6.42-.11-4.44-1.67-5.66-6-4.28-2.75.88-5.28,2.43-8.15,3.79a25.29,25.29,0,0,0-.32-3.65c-.75-3.22.72-7.76-3.27-9.17S182.59,130.89,180.17,133.19Z" transform="translate(-16.1 -0.1)"/><path class="cls-9" d="M110.19,101.25c1.42-2.12-.43-6.15,3-6.77C117,93.81,119,97.22,121,99.8a59.26,59.26,0,0,1,3.8,6.29c1-3.26,1.75-6.14,2.79-8.91.81-2.14,2.46-3.71,4.89-3.64,2.24.07,3.56,1.7,4.38,3.62a33.33,33.33,0,0,1,2.49,9.85c2.32-3,4.08-5.66,6.31-7.92,4-4,6-3.42,7.88,2-1.2,9.85-4.66,19-9.4,27.59a19.78,19.78,0,0,1-7,7.56l-11.35-.46c-9.79-7.48-12.05-18.64-14.51-29.7C110.9,104.47,110.54,102.86,110.19,101.25Z" transform="translate(-16.1 -0.1)"/><path class="cls-9" d="M46.16,148.52c-.45-1.91-3.53-3.27-1.41-5.69,1.77-2,4.11-1.84,6.49-1.22,1.74.45,3.51.75,5.24,1.12,1-1.58-.27-2.68-.46-3.91-.38-2.5-1.1-5.15,1.24-6.93s4.82-.35,7,.85c2.45,1.36,4.75,3,7.29,4.62,0-3-.18-5.83.06-8.66.2-2.45.37-5.2,3.25-6.26s4.3,1,6,2.63A11.51,11.51,0,0,0,82,126c3,6.91,6.62,13.56,7.42,21.28A26.19,26.19,0,0,1,89,157c-3.12,2.42-5,6.27-8.81,7.85-9.22.19-16.76-4.13-24-9.11C52.77,153.4,49.49,150.93,46.16,148.52Z" transform="translate(-16.1 -0.1)"/><path class="cls-9" d="M180.17,133.19c2.42-2.3,4.23-6.51,8.22-5.11s2.52,5.95,3.27,9.17a25.29,25.29,0,0,1,.32,3.65c2.87-1.36,5.4-2.91,8.15-3.79,4.28-1.38,5.84-.16,6,4.28.06,2.14-.18,4.28-.29,6.42-.14.24-.46.57-.4.68.32.55.7.27,1,0,2.82-.8,5.6-1.8,8.47-2.35,3.81-.73,6.24.33,4.91,4.93C210.9,160,201.12,167.36,188.06,169a21.89,21.89,0,0,0-9.6-5.82c-3.87-6.8-2.17-13.87-.89-20.86A89.15,89.15,0,0,1,180.17,133.19Z" transform="translate(-16.1 -0.1)"/><path class="cls-11" d="M371.33,239.09c1.14-1.24,2.62-1.27,4.15-1.16,21,1.42,41.17-1.06,59.85-11.54.34-.19.9,0,2.51.09-20.66,14.68-41.32,26.43-66.62,26.77l-.48-7.27C370.94,243.68,371.13,241.39,371.33,239.09Z" transform="translate(-16.1 -0.1)"/><path class="cls-12" d="M196.09,200.08c2.7-7.17,5.53-14.3,6-22.07,9-2,18.05-.45,27,.29,1.93.16,7.05.06,2.93,4.73q-15.4,7.69-30.81,15.37C199.6,199.21,198.07,200.34,196.09,200.08Z" transform="translate(-16.1 -0.1)"/><path class="cls-12" d="M170.22,181.27q-5.25,12.3-10.52,24.6l-.84-.12,3.51-24C165.05,182.5,167.61,181.52,170.22,181.27Z" transform="translate(-16.1 -0.1)"/><path class="cls-12" d="M191.14,179.19c-5.58,5.38-12,9.94-16.61,16.45,2-5.86,3.19-11.94,7.5-16.61Z" transform="translate(-16.1 -0.1)"/><path class="cls-12" d="M107,190c.61,3.57,1.3,7.14.79,11.43A47.21,47.21,0,0,1,104,190.15Z" transform="translate(-16.1 -0.1)"/><path class="cls-13" d="M178.46,163.13a21.89,21.89,0,0,1,9.6,5.82,1.47,1.47,0,0,1-.81.28c-3.42-.28-6.59-1-8.4-4.39Z" transform="translate(-16.1 -0.1)"/><path class="cls-13" d="M80.17,164.84C84,163.26,85.86,159.41,89,157c-.11,1.29-.21,2.59-.32,3.87-2.13,2.26-4.45,4.2-7.76,4.34A1.14,1.14,0,0,1,80.17,164.84Z" transform="translate(-16.1 -0.1)"/><path class="cls-13" d="M125.76,135.78l11.35.46-1,1.62a21.32,21.32,0,0,1-9.9-.79C126.05,136.64,125.91,136.21,125.76,135.78Z" transform="translate(-16.1 -0.1)"/><path class="cls-14" d="M199.25,315.94c15.42,2.26,30.94,3.89,46.05,8.11,4.13,1.16,8.54,0,12.71-1.21l15-2.21c3.91,8,5.26,16.73,6.39,25.41,1.68,13,3.06,26,2.32,39.18-4.77.1-9.58,0-14.16,1.73-8.54-.38-16.64,1.67-24.87,3.75-14.2,3.59-28.92,5-42.8,10l-3.88.36h-4c-7.71-1.74-8.88-3-9.13-10.11a.89.89,0,0,0-.89-1c-3.62-.06-6.33-3-9.92-3.17-1.41-4.72-1.6-9.37,1-13.81.48-.13,1.09-.11,1.4-.41,8.37-7.95,18.5-12.09,29.73-14,1.12-.2,3.2.13,3.25-2.7-13.25,1.36-24.73,6.13-34.39,15.17l-3.88-.07c-5.5-3-10.22-6.53-9.14-13.88a3.71,3.71,0,0,0,2.07-2.18c11.27-9.93,25.65-11.73,39.46-15.1-14.27.58-28,2.9-39.41,12.36a3.16,3.16,0,0,0-2.8-2.12,9.78,9.78,0,0,0-7.32-4.17c-.34-2-.69-3.95-1-5.93,1.74-5.39,5.53-8.84,10.52-11.19a69.61,69.61,0,0,1,29.71-6.58C196.08,322.13,198.67,320.72,199.25,315.94Zm-13.6,72.41c8.5-7.66,20.25-7.74,29.8-12.82C204.72,378,193.08,378.35,185.65,388.35Z" transform="translate(-16.1 -0.1)"/><path class="cls-8" d="M196,401.05l3.88-.36c0,5.09,3.07,9.23,4.75,13.69,1.75,4.64,3.56,9.36,5.52,14q5.35,12.54,10.45,25.19c.52,1.3.28,2.92.39,4.39v3c-.23,4.64-4.17,6.38-7,9a1.83,1.83,0,0,0-2,2,5.38,5.38,0,0,1-4,2c-2.06-.93-2.65.36-3,2-3.68,1.47-7.55,2.39-11.28,3.76a46.27,46.27,0,0,1-15.71,3.25c-1.1,0-2.29-.18-3,1h-3l-3,1c-4.56.12-9.15-.09-13.64.51-2.06.28-2.69-1.75-4.35-1.51l-4-2c-1.94-2.36-3.69-4.82-4-8,0-1.36.14-2.82-1.81-3-.43-2.61-2.73-2.14-4.34-2.4A88.58,88.58,0,0,1,119.64,464c-13.86-5.26-25.37-13.43-32.78-26.64l1.21-3.45c-1.37-5.72,2.73-10.12,3.8-15.28,1-5,3.24-9.66,5.12-14.41A11.47,11.47,0,0,0,98.06,399,38.25,38.25,0,0,0,112,396.68l1.22,1.32c-2.3,10.6-2.43,21.35-2.06,32.12a42.27,42.27,0,0,0,2.24,12.21c.51,1.52,1.58,3.84,3.42,2,3.26-3.26,5.77-1.91,8.55.33,1.16.93,2.53,2.11,4,1s.18-2.47-.13-3.69c-3.59-14.13-5.22-28.43-3.79-43,1.48-.37,2-1,.51-2.06l.3-4.93c1.57-.33,2.38-.87.59-2.13-.09-4.76,2.67-9.07,2.26-13.88v0c1.06-.4,1-1.28.9-2.17l1.19-2.83h4.67c0,11.62.67,23.07,5.16,34.07,6.11,14.93,14.21,28.2,28,37.39,3.78,2.53,4.58.89,4.91-2.49.09-1,.1-2,.15-3l1-1c3.46-.69,7,2.58,10.5-.19-.53-2-2.25-2.8-3.68-3.87-17-12.76-28.72-29.13-34-49.87l1.75-.27c.64.09,1.52-.06,1.86.3,5.86,6.2,12.9,7,20.66,4.68,3.59.18,6.3,3.11,9.92,3.17l.89,1c.25,7.07,1.42,8.37,9.13,10.11Q194,405.14,196,401.05Z" transform="translate(-16.1 -0.1)"/><path class="cls-15" d="M112,396.68A38.25,38.25,0,0,1,98.06,399c-8-3-10.4-7.44-8.84-16.29.35-1.95.77-3.88,1.16-5.82,3.55-4.51,5.64-10.14,10.2-13.88,2.17-1.78,2.23-3.58,1.41-6.08-2-6.27-5.27-12.17-5.91-18.87,7.18-3.06,13.87.82,20.8,1.43,3.18.28,6.41,1.81,9.46-.47a2,2,0,0,0,1.82-1.13c3.45-.52,6.82-.84,9.49,2.19,1.11,1.26,2.72,1.17,4.13.72,3-1,6.15-.72,9.24-.88.34,2,.69,3.95,1,5.93-4.63-.79-9.22,3.61-14,.22-.27,1.48-.63,3.1-.86,4.74-.62,4.44-2,5-5.61,2.31-3.29-2.47-4.92-6-6.78-10.4,1,5.67-3.06,5.51-6,6.63a58.88,58.88,0,0,0-11.61,5.74c-.86.57-2.17,1.05-1.26,2.81,5.2-2.41,10.14-5.11,15.34-7.27,5.76-2.39,6.89,3.27,10.24,5,2.68,1.37,1.13,3.53.59,5.25a91.81,91.81,0,0,1-14.89,28.63c-.86,1.13-3,1.95-1.54,4,1.76,0,2.21-1.44,2.93-2.47,3.52-5,7-10,10.45-15.08.41,4.81-2.35,9.12-2.26,13.88a2,2,0,0,0-.59,2.13l-.3,4.93a1.89,1.89,0,0,0-.51,2.06c-1.43,14.56.2,28.86,3.79,43,.31,1.22,1.47,2.65.13,3.69s-2.84-.05-4-1c-2.78-2.24-5.29-3.59-8.55-.33-1.84,1.85-2.91-.47-3.42-2a42.27,42.27,0,0,1-2.24-12.21c-.37-10.77-.24-21.52,2.06-32.12.61-.33,1.08-.92.71-1.48C113.28,395.61,112.56,396.12,112,396.68ZM109.12,376c8.36-2.76,12.8-9.45,16.64-16.7.44-.84.78-2-.08-2.78s-1.87.07-2.69.49c-6.23,3.22-11.85,7.21-16,13a17.84,17.84,0,0,0-2,3.28c-.59,1.63-3.14,3.54-.59,5C106.21,379.36,108,377.78,109.12,376Z" transform="translate(-16.1 -0.1)"/><path class="cls-16" d="M139,473c-2.92,2.44-5.82,4.9-8.76,7.31-5.53,4.5-11.52,3.38-18.11,2.74s-10.58-5.81-16.73-6.25A4.29,4.29,0,0,1,93,475.2c-4.47-5.05-8.32-11.05-8.33-17.52,0-4-.59-9.72,4-13,12.27,14.66,28,23,46.84,25.59C137,470.5,139.08,470.45,139,473Z" transform="translate(-16.1 -0.1)"/><path class="cls-17" d="M96.08,338.05c.64,6.7,3.87,12.6,5.91,18.87.82,2.5.76,4.3-1.41,6.08-4.56,3.74-6.65,9.37-10.2,13.88-1.09-5.36-1.41-10.7-5.32-15.44S82.86,351,85.63,346c1.53-2.77,1.56-4.86-.12-7.71-4-6.8-3-13.52,1.62-19.78Q91.6,328.3,96.08,338.05Z" transform="translate(-16.1 -0.1)"/><path class="cls-12" d="M64.6,196c9.56,7.3,16.16,16.79,20.69,27.82-2.7.23-4.62-1.6-6.79-2.68C67.7,215.73,57,210.23,46.19,204.78c-1.95-3,.81-3.41,2.41-3.95C53.89,199.06,59.26,197.57,64.6,196Z" transform="translate(-16.1 -0.1)"/><path class="cls-5" d="M267.59,387c4.58-1.74,9.39-1.63,14.16-1.73A44.89,44.89,0,0,1,278.8,404c-4.44-1-5.77-5-7.62-8.37A80.1,80.1,0,0,1,267.59,387Z" transform="translate(-16.1 -0.1)"/><path class="cls-18" d="M139,473c.09-2.51-2-2.46-3.49-2.66-18.88-2.57-34.57-10.93-46.84-25.59-.57-2.6-4.77-4-2.53-7.53.24.06.49.13.73.21,7.41,13.21,18.92,21.38,32.78,26.64a88.58,88.58,0,0,0,17.26,4.51c1.61.26,3.91-.21,4.34,2.4l-.15,2.06Z" transform="translate(-16.1 -0.1)"/><path class="cls-12" d="M94.72,191.09c3.81,6.49,5.34,13.75,7.08,21.11-4.82-7.12-11-12.93-16.77-19.09C88.05,191.44,91.66,192.58,94.72,191.09Z" transform="translate(-16.1 -0.1)"/><path class="cls-16" d="M147.06,481.93l4,2C148.6,485.51,147.67,484.05,147.06,481.93Z" transform="translate(-16.1 -0.1)"/><path class="cls-16" d="M221,460.94v-3c1,.15,2,.4,1.81,1.74C222.71,460.71,221.84,460.81,221,460.94Z" transform="translate(-16.1 -0.1)"/><path class="cls-16" d="M141.09,473l.15-2.06c1.95.18,1.8,1.64,1.81,3A2,2,0,0,1,141.09,473Z" transform="translate(-16.1 -0.1)"/><path class="cls-16" d="M175.05,483.93c.71-1.18,1.9-1,3-1C177.64,485.05,176.7,485.56,175.05,483.93Z" transform="translate(-16.1 -0.1)"/><path class="cls-16" d="M86.86,437.39c-.24-.08-.49-.15-.73-.21,0-1.5-.24-3.08,1.94-3.24Z" transform="translate(-16.1 -0.1)"/><path class="cls-16" d="M205,475.92c.34-1.64.93-2.93,3-2Z" transform="translate(-16.1 -0.1)"/><path class="cls-16" d="M169.05,484.93l3-1C171.65,486.05,170.7,486.56,169.05,484.93Z" transform="translate(-16.1 -0.1)"/><path class="cls-16" d="M212,471.92a1.83,1.83,0,0,1,2-2A1.81,1.81,0,0,1,212,471.92Z" transform="translate(-16.1 -0.1)"/><path class="cls-19" d="M336.92,83.09l-2.05,1.06c-5-.71-10.4-.9-12.4-6.66-2.15-6.2,1-11,5.19-15.17,6.18-6.19,13.9-9.61,22.16-12,.63-.19,1.3-.17,1.88.89-1.16,1.41-3,1.5-4.64,2.08C340,55.91,333.24,59.19,328.11,65c-2.94,3.31-5.55,7-3.77,11.72,1.66,4.38,5.86,5,10,5.31C335.31,82.08,336.31,82.1,336.92,83.09Z" transform="translate(-16.1 -0.1)"/><path class="cls-7" d="M402.72,62.81,404,62.1l-.06-.08c.41.66,0,1.1-.4,1.54Z" transform="translate(-16.1 -0.1)"/><path class="cls-7" d="M404,62.1l.28-.35-.34.27Z" transform="translate(-16.1 -0.1)"/><path class="cls-20" d="M473.82,352.63c-.28,6.55-5.53,10.15-9.36,14-22.08,22.39-48.54,37.34-79.59,42.86-9.88,1.75-20.58,2-29.8-4.46-2.51-1.77-4.15-4.24-6.32-6.25,10.31-3.13,20.65-6.19,30.92-9.42A725.7,725.7,0,0,0,473.82,352.63Z" transform="translate(-16.1 -0.1)"/><path class="cls-13" d="M266.13,305.93c-.69-3.62,2.53-3,4.21-3.54a416.5,416.5,0,0,1,45.56-10.81c6.43.72,8.49-4.44,11.22-9.83,1.47,4-1.59,5.58-1.35,8.26a89.21,89.21,0,0,1,20.84-.84c1.42.1,2.54-.62,3.74-1.21,28.11-13.75,57.39-24,88.29-29.38,3-.53,6.13-.69,9.24-1,.18,2.5-1.28,2.2-2.32,2.32-33.48,4.08-64.48,15.85-94.62,30.36-1.18.57-2.48,1.47-3.65,1.37-20.64-1.62-40.26,4-60,8.48C280.15,301.71,273.17,304,266.13,305.93Z" transform="translate(-16.1 -0.1)"/><path class="cls-13" d="M473.82,352.63a725.7,725.7,0,0,1-94.15,36.77c-10.27,3.23-20.61,6.29-30.92,9.42-16.13,3.56-32.27,7.06-48.89,7.41l-.2-.15c.25-1.73,1.53-1.92,2.94-2,30.5-2.09,59.38-11.14,88.16-20.59a649.55,649.55,0,0,0,80.57-32.21,24.54,24.54,0,0,1,2.72-1.22c.57-.19,1.46-.45,1.59.48C475.82,351.78,474.4,351.89,473.82,352.63Z" transform="translate(-16.1 -0.1)"/><path class="cls-1" d="M273,320.63l-15,2.21c-.25-4.16-.33-8.3,1.42-12.22.72-1.6,1.11-3.62,3.56-3.5C268,310.39,271.58,314.72,273,320.63Z" transform="translate(-16.1 -0.1)"/><path class="cls-21" d="M362,196.1a22.79,22.79,0,0,1-12.81-19.88c-.53-9.19,7.62-15.12,15.59-10.77,6.6,3.6,12.34,3.71,18.76.77a15,15,0,0,1,3.89-.79c8.07-1.3,16.17,3.56,12.74,14.72-1.47-.69-2.64-1.77-4.35-2.22C382.16,174.31,367.77,182,362,196.1Z" transform="translate(-16.1 -0.1)"/><path class="cls-19" d="M431.08,173c-7,.43-12.71-1.58-17.28-6.61-3.84-4.25-3.34-9.45,1.27-12.83,7.89-5.8,22.17-4.76,29.1,2.1,5.73,5.69,4.65,11.84-2.72,15.56A19.11,19.11,0,0,1,431.08,173Z" transform="translate(-16.1 -0.1)"/><path class="cls-22" d="M362,196.1c5.8-14.13,20.19-21.79,33.82-18.17,1.71.45,2.88,1.53,4.35,2.22-1.77,12.28-15.76,21.9-28.56,19.51C368.21,199,364.61,198.8,362,196.1Z" transform="translate(-16.1 -0.1)"/><path class="cls-19" d="M348.05,153.18a10.22,10.22,0,0,1-5.83,8.56,19.47,19.47,0,0,1-23.57-4.5c-3.45-3.88-3.34-7.86.31-11.47,6.89-6.8,23.69-4.14,28.07,4.47A20,20,0,0,1,348.05,153.18Z" transform="translate(-16.1 -0.1)"/><path class="cls-1" d="M357.24,123.51c0,4.89-1.61,9.14-5.44,12.28s-8.11,2-9.84-2.75-.62-9.19,1.87-13.29c2-3.22,4.59-6.08,8.85-4.75C356.67,116.25,357.19,119.87,357.24,123.51Z" transform="translate(-16.1 -0.1)"/><path class="cls-1" d="M402.8,135.74c.08-4.44,1.42-8.47,4.8-11.56,4.15-3.79,8.73-2.51,10.39,2.82,1.39,4.43.36,8.58-1.87,12.43-1.81,3.12-4.27,6-8.28,5.09C403.49,143.5,402.86,139.67,402.8,135.74Z" transform="translate(-16.1 -0.1)"/><path class="cls-23" d="M490.29,178.65c-.49-5.06.44-9.34-3.63-12.25-5.11-3.66-7.1,1.23-10.31,3.35,1-6.59,5.85-9.68,11-12.21,3.84-1.89,8-3.62,12.37-.57-5.28,1.35-11.37.11-15.47,5.55,3.8,2.07,7.22,4.57,8.28,9.09C493,173.83,492.44,175.8,490.29,178.65Z" transform="translate(-16.1 -0.1)"/><path class="cls-23" d="M380.6,125.45c-.49,5.92-2.68,11.41-4.78,16.91-.59,1.56-1.86,1.77-3.17.56a15.57,15.57,0,0,0-1.46-1.36c-3-2.06-6.33-3.93-9.53-1.14s-1.89,6,.1,9c.45.67,1,1.3.61,2.23-3.82-1.59-5.68-6.43-4.15-10.53,1.27-3.4,6-5,10.3-3.75,2,.6,3.81,3.74,5.58,2.26s1.84-4.47,2.81-6.75C378,130.4,377.69,127.33,380.6,125.45Z" transform="translate(-16.1 -0.1)"/><path class="cls-5" d="M400.37,105.8c3.64-6.25,10.65-8.65,18.07-6.69,6.22,1.64,10.36,5.9,10.45,11.63-2.93-5.13-7.07-8.53-12.79-9.63C410.1,100,405.33,103,400.37,105.8Z" transform="translate(-16.1 -0.1)"/><path class="cls-5" d="M366.46,101.13C355,90.27,354.65,90.26,338.68,99.74c1.05-5.14,7.66-9.41,14.35-9.27S365.45,95,366.46,101.13Z" transform="translate(-16.1 -0.1)"/><path class="cls-11" d="M437.9,225.81a3.29,3.29,0,0,1,3.46-2.48C440.88,225,440,225.71,437.9,225.81Z" transform="translate(-16.1 -0.1)"/><path class="cls-18" d="M128.16,337.88a2,2,0,0,1-1.82,1.13c-9.41-21.34-16.89-43.23-19.38-66.6-.8-7.46-1.48-14.88.14-22.29.59-2.68,1.49-5.28,4.55-7.35-7.23,22.16-.66,42.5,4.76,62.85C119.36,316.69,123.88,327.26,128.16,337.88Z" transform="translate(-16.1 -0.1)"/><path class="cls-12" d="M195,201l1.05-.95Z" transform="translate(-16.1 -0.1)"/><path class="cls-13" d="M125.47,195.74c2.88,5.06,2.63,10.75,3.39,16.17.78,5.57.75,11.26,1,16.9,0,.82-.08,1.79-1.11,1.95s-1.51-.69-1.49-1.54C127.59,218,125.94,206.93,125.47,195.74Z" transform="translate(-16.1 -0.1)"/><path class="cls-12" d="M173.23,197.79l-.65-.33c.11-.1.24-.29.31-.27a3.67,3.67,0,0,1,.67.31Z" transform="translate(-16.1 -0.1)"/><path class="cls-3" d="M206.43,148.45c-.34.31-.72.59-1,0-.06-.11.26-.44.4-.68Z" transform="translate(-16.1 -0.1)"/><path class="cls-24" d="M147.84,382c5.3,20.74,17,37.11,34,49.87,1.43,1.07,3.15,1.84,3.68,3.87-3.49,2.77-7-.5-10.5.19l-1,1c-.05,1-.06,2-.15,3-.33,3.38-1.13,5-4.91,2.49C155.18,433.24,147.08,420,141,405c-4.49-11-5.18-22.45-5.15-34.07l.18-13.89c2.21.55,1.7,2.57,2.13,4,1.75,6,6,12.05,9.94,13.44-1.25-1.67-2.29-2.94-3.2-4.3-3.28-4.9-5.76-10.1-5.76-16.17,0-1.64-.27-3.78,1.79-4.18,5.06-1,10.17-3.68,15.32-.24,1,.66,2,1.31,3.15.34a3.16,3.16,0,0,1,2.8,2.12c0,.91,0,1.83,0,2.74a3.71,3.71,0,0,1-2.07,2.18,41.31,41.31,0,0,0-12-4.42c-4.24-.76-5,.68-3.54,4.05,2.75,6.38,7,11.73,13,15.17,3.84,2.18,8.08,3.23,11.65-.92l3.88.07v1.93c-2.57,4.44-2.38,9.09-1,13.81-7.76,2.31-14.8,1.52-20.66-4.68-.34-.36-1.22-.21-1.86-.3-.47-.78-.69-2.13-2-1.34C146.94,380.79,147.25,381.57,147.84,382Z" transform="translate(-16.1 -0.1)"/><path class="cls-23" d="M159.37,350c-1.16,1-2.16.32-3.15-.34-5.15-3.44-10.26-.76-15.32.24-2.06.4-1.79,2.54-1.79,4.18,0,6.07,2.48,11.27,5.76,16.17.91,1.36,1.95,2.63,3.2,4.3-3.94-1.39-8.19-7.42-9.94-13.44-.43-1.47.08-3.49-2.13-4-2.28,4.4-3.2,9.27-4.86,13.89-.4.94-.79,1.89-1.19,2.84a1.82,1.82,0,0,0-.9,2.16v0c-3.48,5-6.93,10.08-10.45,15.08-.72,1-1.17,2.49-2.93,2.47-1.46-2.08.68-2.9,1.54-4a91.81,91.81,0,0,0,14.89-28.63c.54-1.72,2.09-3.88-.59-5.25-3.35-1.7-4.48-7.36-10.24-5-5.2,2.16-10.14,4.86-15.34,7.27-.91-1.76.4-2.24,1.26-2.81a58.88,58.88,0,0,1,11.61-5.74c2.92-1.12,7-1,6-6.63,1.86,4.37,3.49,7.93,6.78,10.4,3.6,2.71,5,2.13,5.61-2.31.23-1.64.59-3.26.86-4.74,4.79,3.39,9.38-1,14-.22A9.78,9.78,0,0,1,159.37,350Z" transform="translate(-16.1 -0.1)"/><path class="cls-16" d="M169.19,370.93c-3.57,4.15-7.81,3.1-11.65.92-6.08-3.44-10.3-8.79-13-15.17-1.44-3.37-.7-4.81,3.54-4.05a41.31,41.31,0,0,1,12,4.42C159,364.4,163.69,367.92,169.19,370.93Z" transform="translate(-16.1 -0.1)"/><path class="cls-23" d="M162.12,354.87c0-.91,0-1.83,0-2.74,11.46-9.46,25.14-11.78,39.41-12.36C187.77,343.14,173.39,344.94,162.12,354.87Z" transform="translate(-16.1 -0.1)"/><path class="cls-23" d="M173.08,372.93V371c9.66-9,21.14-13.81,34.39-15.17-.05,2.83-2.13,2.5-3.25,2.7-11.23,1.9-21.36,6-29.73,14C174.17,372.82,173.56,372.8,173.08,372.93Z" transform="translate(-16.1 -0.1)"/><path class="cls-23" d="M185.65,388.35c7.43-10,19.07-10.32,29.8-12.82C205.9,380.61,194.15,380.69,185.65,388.35Z" transform="translate(-16.1 -0.1)"/><path class="cls-16" d="M196,401.05q-2,4.08-4,0Z" transform="translate(-16.1 -0.1)"/><path class="cls-16" d="M182.92,390.93l-.89-1A.89.89,0,0,1,182.92,390.93Z" transform="translate(-16.1 -0.1)"/><path class="cls-16" d="M131.14,371c1.66-4.62,2.58-9.49,4.86-13.89L135.82,371Z" transform="translate(-16.1 -0.1)"/><path class="cls-16" d="M112,396.68c.61-.56,1.33-1.07,1.93-.16.37.56-.1,1.15-.71,1.48Z" transform="translate(-16.1 -0.1)"/><path class="cls-16" d="M125.4,399a1.89,1.89,0,0,1,.51-2.06C127.45,398,126.88,398.58,125.4,399Z" transform="translate(-16.1 -0.1)"/><path class="cls-16" d="M147.84,382c-.59-.46-.9-1.24-.28-1.61,1.34-.79,1.56.56,2,1.34Z" transform="translate(-16.1 -0.1)"/><path class="cls-16" d="M126.21,392a2,2,0,0,1,.59-2.13C128.59,391.09,127.78,391.63,126.21,392Z" transform="translate(-16.1 -0.1)"/><path class="cls-15" d="M129.05,376a1.82,1.82,0,0,1,.9-2.16C130.05,374.69,130.11,375.57,129.05,376Z" transform="translate(-16.1 -0.1)"/><path class="cls-16" d="M174,437l1-1Z" transform="translate(-16.1 -0.1)"/><path class="cls-16" d="M107,370c4.15-5.79,9.77-9.78,16-13,.82-.42,1.76-1.31,2.69-.49s.52,1.94.08,2.78c-3.84,7.25-8.28,13.94-16.64,16.7Z" transform="translate(-16.1 -0.1)"/><path class="cls-17" d="M107,370l2.13,6c-1.1,1.8-2.91,3.38-4.73,2.32-2.55-1.49,0-3.4.59-5A17.84,17.84,0,0,1,107,370Z" transform="translate(-16.1 -0.1)"/></svg>