<svg id="Layer_1" data-name="Layer 1" xmlns="http://www.w3.org/2000/svg" viewBox="0 0 550 550"><defs><style>.cls-1{fill:#bdc557;}.cls-2{fill:#f0a88c;}.cls-3{fill:#c6cd6d;}.cls-4{fill:#c9cf76;}.cls-5{fill:#c3cc65;}.cls-6{fill:#fdebbc;}.cls-7{fill:#7b4940;}.cls-8{fill:#fbdea4;}.cls-9{fill:#ea5f59;}.cls-10{fill:#2d2c2c;}.cls-11{fill:#86c8f6;}.cls-12{fill:#8bcaf6;}.cls-13{fill:#fce9b4;}.cls-14{fill:#fdeab7;}.cls-15{fill:#ed6960;}.cls-16{fill:#f7b79d;}.cls-17{fill:#8ccbf6;}.cls-18{fill:#fcf5f2;}.cls-19{fill:#232222;}.cls-20{fill:#8ecbf6;}.cls-21{fill:#966760;}.cls-22{fill:#fefefe;}.cls-23{fill:#538250;}.cls-24{fill:#568450;}.cls-25{fill:#89caf7;}.cls-26{fill:#5e8950;}.cls-27{fill:#709454;}.cls-28{fill:#578550;}.cls-29{fill:#598650;}.cls-30{fill:#648d51;}.cls-31{fill:#5e8850;}.cls-32{fill:#4a7d4f;}.cls-33{fill:#487c4f;}.cls-34{fill:#4b7e4f;}.cls-35{fill:#a3a94f;}.cls-36{fill:#4a7c4f;}.cls-37{fill:#477b4f;}.cls-38{fill:#729758;}.cls-39{fill:#89c9f6;}.cls-40{fill:#8dcbf6;}.cls-41{fill:#8ecbf7;}.cls-42{fill:#7ac2f5;}.cls-43{fill:#8ccaf6;}.cls-44{fill:#76c0f5;}.cls-45{fill:#eb605a;}.cls-46{fill:#eb615a;}.cls-47{fill:#ed6a61;}.cls-48{fill:#eb5f59;}.cls-49{fill:#2e2c2c;}.cls-50{fill:#4d3824;}.cls-51{fill:#e95f58;}.cls-52{fill:#ea5e59;}.cls-53{fill:#f1605a;}.cls-54{fill:#312d2d;}.cls-55{fill:#3b3130;}.cls-56{fill:#733e35;}.cls-57{fill:#ee7367;}.cls-58{fill:#ed7266;}.cls-59{fill:#2e2d2d;}.cls-60{fill:#eb625c;}.cls-61{fill:#eb625b;}.cls-62{fill:#eb635c;}.cls-63{fill:#eb675e;}.cls-64{fill:#eb645c;}.cls-65{fill:#eb5e58;}.cls-66{fill:#ec6a61;}.cls-67{fill:#eb655d;}.cls-68{fill:#ec6d65;}.cls-69{fill:#ec675f;}.cls-70{fill:#ea5854;}.cls-71{fill:#1e1e1e;}.cls-72{fill:#e8615a;}.cls-73{fill:#ec6d63;}.cls-74{fill:#1c1e1f;}.cls-75{fill:#383737;}.cls-76{fill:#3d3937;}.cls-77{fill:#7c4e44;}.cls-78{fill:#3c3533;}.cls-79{fill:#393535;}.cls-80{fill:#423d3b;}.cls-81{fill:#534b48;}.cls-82{fill:#181a1b;}.cls-83{fill:#2c2a2a;}.cls-84{fill:#1c1f20;}.cls-85{fill:#191a1b;}.cls-86{fill:#181c1e;}.cls-87{fill:#fcb092;}.cls-88{fill:#eb5d58;}.cls-89{fill:#171919;}.cls-90{fill:#16191a;}.cls-91{fill:#161b1d;}.cls-92{fill:#161a1b;}.cls-93{fill:#181b1c;}.cls-94{fill:#6f5e58;}.cls-95{fill:#171a1c;}.cls-96{fill:#c35750;}.cls-97{fill:#804a42;}.cls-98{fill:#76483f;}.cls-99{fill:#924e45;}.cls-100{fill:#4e3925;}.cls-101{fill:#412b16;}.cls-102{fill:#422c16;}.cls-103{fill:#fdfcfc;}.cls-104{fill:#131619;}.cls-105{fill:#121617;}</style></defs><path class="cls-1" d="M387.45,469.38c-.58,5.89,1.76,11.32,2.74,16.95,3.64,21.1,7.91,42.11,7.38,63.68h-2c-1.44-1.71-3.4-1-5.13-1q-42.27-.06-84.54,0H110.67l-2-3c1.37-20.32,4.39-40.46,6.72-60.67.83,2.14,3,2,4.61,2.42a50.19,50.19,0,0,0,20.75,1.17c14-2.05,25.46-8.27,31.76-21.81,1.72-1.56.39-3.86,1.18-5.32l9.69-11.63c10.24-12.29,17.56-26.05,21-41.77A26.67,26.67,0,0,0,206,394.88c-2.47,3.11-1.42,7.06-2.61,10.46-3.25,16.43-11.2,30.58-21.1,43.79l-14.93,16.08c-3.57,4.57-8.55,7-13.76,9.06l-1.21-1.19c3.22-3.54,6.46-7.1,8.55-11.44s4.28-8.52,2.71-13.52a20.69,20.69,0,0,0,1.63-8.22c.46-14.68-2.72-28.62-8.5-42-3.55-8.26-7.72-16.13-14.14-22.58l-.27-1.05a2.2,2.2,0,0,0,0-.92l0-1-.74-1.22c-.09-1.26-.19-2.52-.29-3.78l-.72-1.18a27.33,27.33,0,0,0-2.72-11.38c-1.46.25-1.28,1.23-1.54,1.93-3.46-12.8-7.41-25.38-15.85-36.1a112.59,112.59,0,0,1,16-17.16c2.45-2.13,5.48-3.67,7.06-6.71a12.67,12.67,0,0,0,5.29-2.59,132.34,132.34,0,0,1,20.46-11c8.86-4,18-7.27,27.74-8.61,8.07,5.89,14.89,13.14,21.74,20.33,6.41,6.73,12.55,13.7,19.76,19.62,12,9.83,25.08,16.62,41.13,16.11,19.47-.62,31.81-15.42,28.71-34.75-.76-4.74-1.78-9.44-2.68-14.15A39.28,39.28,0,0,1,315,285c9,4.11,17.89,8.32,26.84,12.48a601.29,601.29,0,0,0,55.5,29c8.44,3.85,17,7.49,25.47,11.23,0,.29.08.74-.07.85-12.72,9.33-17.37,23-20.12,37.65-1.83,9.82-2.09,19.8-2.82,29.73-.87,11.8-2.41,23.44-6.11,34.72-.35,1.07-1,2.16-.31,3.34-1.62.32-1.73,1.82-2.26,3a38.72,38.72,0,0,1-5.44,9.38c-2.62-1.78-1.18-5.19-2.94-7.32a41.24,41.24,0,0,0-2.94-12c-.08-.59-.15-1.19-.22-1.78-.76-3.45-1.23-7-2.77-10.19a2.12,2.12,0,0,0-.16-.83c.23-1.78-.72-3.29-1.11-4.92-.4-2.11-.54-4.29-1.79-6.15.13-1.74-.79-3.23-1.18-4.85a108.34,108.34,0,0,0-4.8-16.1,2,2,0,0,0-.18-.92c-.33-1.3-.67-2.6-1-3.91a26.32,26.32,0,0,0-2.72-8.23,7.32,7.32,0,0,0-.18-1.49c-8.17-25.16-18.43-49.38-32.89-71.64-2.36-3.63-4.54-7.52-8.91-10.54A9.13,9.13,0,0,0,324,300a182.46,182.46,0,0,1,16.47,26.61,383.47,383.47,0,0,1,22.29,53.67,44.57,44.57,0,0,0,2.9,9.07,2.26,2.26,0,0,0,.84,2c.1.63.2,1.26.29,1.89a131.28,131.28,0,0,0,4.79,16.15,9.34,9.34,0,0,0,1.14,4.83,16.88,16.88,0,0,0,1.9,7.1c0,1.06-.07,2.17.86,3,.08.63.17,1.26.25,1.9a38.41,38.41,0,0,0,2.85,10.13c.08.6.15,1.21.23,1.81q1.5,6.48,3,13c1.05,3,1,6.33,2.73,9.14C385.48,463.3,385.37,466.69,387.45,469.38Z"/><path class="cls-2" d="M111.71,270.36c-1.44,3.84-2.77,7.72-4.34,11.5-5.69,13.7-16.15,19.91-30.8,19.78a43.73,43.73,0,0,1-23.45-6.89c-9-5.63-13.69-14.34-17.09-23.74a47.8,47.8,0,0,0-11.85-18.66C16.68,245.1,9.47,237.58,4,228.59v-6c4-3.66,8.22-3.47,12.7-.76a88.08,88.08,0,0,1,14.76,11.75c1.78,1.68,3.22,3.8,5.89,5,.61-2.2-.86-3.41-1.79-4.75-6.44-9.26-13.15-18.34-18.89-28.08-3.7-6.28-3.79-11.17-.19-15.72,6.27-1.9,10.31,1.92,14,6.1,6.55,7.49,12.49,15.48,18.4,23.49,1.19,2,1.59,4.57,4.2,5.61-.74-2.17-1-4.59-3.39-5.83-.24-4.34-3-7.61-4.81-11.27-4.48-8.86-10-17.26-12.35-27.08a12.92,12.92,0,0,1-.39-5.41c1.1-6.16,7.12-8.3,12-4.22,4.65,3.92,7.82,9,10.71,14.24q5.52,10,11,20.05a3.22,3.22,0,0,0,2.08,1.89c.51-2-.29-3.69-.86-5.41a135.17,135.17,0,0,1-5-20.23c-1-6.06.88-10,6-12.12,4.7,1,7.34,4.56,9.47,8.57,6.25,11.75,10.48,24.34,15.11,36.77,1.89,5.06,3.46,10.26,6.36,15.06l1.42-1.59c1,1.32-1.48,3.25,1.4,4.72,3.16-3.36,6.31-7,9.77-10.29s7.59-5.92,12.57-6.53c8.07-1,11.57,3.73,8.31,11.21a39.44,39.44,0,0,1-9.29,13.4C114.54,249.09,112.58,259.45,111.71,270.36Zm-69.9-17c8.65-14.63,21.63-23.67,37.49-29C68.7,223.46,44,239.63,41.81,253.34ZM71.9,274.19c1.09-15.73,7.92-27.88,21.8-35.82C81.72,239,68.59,260.51,71.9,274.19Zm-1-58.13,1.06-.58-2.84-6.67-1.18.47C68.69,211.62,68.88,214.17,70.88,216.06Z"/><path class="cls-3" d="M129.54,549h90.67v1H129.54Z"/><path class="cls-3" d="M305.9,549q42.27,0,84.54,0c1.73,0,3.69-.74,5.13,1H305.9Z"/><path class="cls-4" d="M305.9,549v1H220.21v-1Z"/><path class="cls-5" d="M129.54,549v1H108.62a3.54,3.54,0,0,1,0-4l2,3Z"/><path class="cls-6" d="M424.47,1c-.69,2-.51,4.26-2,6-2-1.58-3.15,1.27-4.91,1C419,5.18,422,3.72,423.47,1Z"/><path class="cls-7" d="M111.71,270.36c.87-10.91,2.83-21.27,11.51-29.22a39.44,39.44,0,0,0,9.29-13.4c3.26-7.48-.24-12.19-8.31-11.21-5,.61-9.06,3.17-12.57,6.53S105,230,101.86,233.35c-2.88-1.47-.45-3.4-1.4-4.72A47.72,47.72,0,0,1,110.92,208c1.49-1.78,3-3.56,4.64-5.19,11.76-11.73,17-26.13,18-42.5a124.05,124.05,0,0,1,6-32.19c4.33-12.91,11.42-23.89,22.81-31.72,2.16-1.48,4.35-3,7-3.59a1.83,1.83,0,0,0,2.06-.89,1,1,0,0,1,.81-.19l1.1.19c-2.66,3.82-6.58,6.46-9.24,10.35-9.52,13.86-12.05,29.62-12.33,45.83a60.16,60.16,0,0,1-4.44,22.23,47.11,47.11,0,0,0-3.75,18.37c-1.95,11.3-.44,22.59,0,33.89.52,11-1.22,21.49-6.23,31.35A50.71,50.71,0,0,0,132,269.19c.69,1.27,1.47,2.05,2.81,2,1.77-.76,2.2-2.45,2.53-4a32.31,32.31,0,0,1,3.21-8.86c7.65-14.31,9.13-29.74,7.56-45.48a122.31,122.31,0,0,1,1-29.69,57.4,57.4,0,0,1,4.35-15.78c4.61-10.12,2.58-21,3.66-31.45,1.35-13.17,5.56-25,14.05-34.93,4.4-5.15,9.51-10.22,16.88-11.41a22.63,22.63,0,0,1,7,1.38c1.55-3,1.3-6.29,2.12-9.25,4.5-16.26,13.42-28.22,30.9-31.45,9.28-1.72,18.48-.61,27.51,2.29,6,1.93,11.78,4.36,18.25,4.59,8.88.32,15.75-3.2,21.17-10a56.68,56.68,0,0,0,7.74-13.87c.83-2,1.46-4.1,3.67-5.24,3.4.42,4.44,3.21,5.27,5.85a29.44,29.44,0,0,1-4.47,27.42c-1.62,2.24-3.49,4.29-5.62,6.87,8.41-.52,16.27-.66,24,1.49,18.64,5.19,30.69,19.66,31.69,38.87.34,6.38-.45,12.69-5.91,17.22-3-7.5-5.65-15.17-10.17-22-6.36-9.58-14.3-17.35-24.89-22.06-2.22-1-4.54-2.66-7.64-1.29,1.57,2.93,3.06,5.19,6.16,6.37A38.41,38.41,0,0,1,328,95.57c9.46,9.27,15.4,20.57,18.8,33.29l0-.06-.78.69-4.1,1.74c-.08.59-.32,1.12-.18,1.51,3.74,10.63,4.68,21.68,5,32.82.37,14.15,4.89,26.57,14.62,37.05,6.77,7.29,13.66,14.49,19,23,4.56,7.21,8,14.83,9.36,23.36,2.25,14.28-2.48,25.77-13.61,34.72-3.48,2.8-7,5.53-11.36,6.94,1.36-6.84,2-13.69.2-20.58-2.77-10.76-9.08-19.82-14.09-29.5-.18-.35-.82-.45-1.37-.72-2.72,1.63-2.08,3.85-1,6,2.09,4.33,4.19,8.65,6.61,12.82,5.47,9.46,8.16,19.44,4.72,30.33-4.7,5.6-11.48,6.81-18,8.57-8.95-4.16-17.87-8.37-26.84-12.48a39.28,39.28,0,0,0-9.21-3.43,26.84,26.84,0,0,0-6.86-2.27c.53-1.53,1.9-1.58,3.18-1.92a60.9,60.9,0,0,0,12.81-5.16c9.59-5.12,16.35-13.17,22.82-21.57a57.77,57.77,0,0,0,6.08,13A27.21,27.21,0,0,1,348.57,275a77.1,77.1,0,0,1,.18,10.43c0,2.13.06,4.11,3.11,3.84a6.45,6.45,0,0,0,1-1.07,4.89,4.89,0,0,0,.75-1.82c.7-6.46,1-12.92-2.28-18.86a176.72,176.72,0,0,1-10.62-22.9c8.17-17.31,8.12-34.56-.29-51.81a17.12,17.12,0,0,1-1.74-8.71c.72-10.86-1-21.52-3.09-32.1-1.08-5.45-1.8-11.07-4.36-16.22-3.89,0-7.53-.18-10.37-2.95.7-1.33,2.59-1.45,3.05-3,2.88-3.47,2.51-7.23,1-11.09a30,30,0,0,0-7.54-15.26c2.34,6.08,5.28,11.88,6.54,18.3-.1,2.38.37,4.84-1,7a3.87,3.87,0,0,1-2.24-1.85c-3.18-5.25-8.4-7-13.91-8.35a7.52,7.52,0,0,0,0-2.46c-2.9-8.15-6-16.17-11.8-22.85a95.3,95.3,0,0,1-10.52-14.47C275,62.46,260.59,54.2,241.93,54.08c-18.39-.12-34.27,11.17-37.2,33.44a3.2,3.2,0,0,0,2.68,1.87c4.37-3,3.13-9.45,7.19-13.09,7.53-1.68,13.68.58,18.61,6.87,3.47,4.43,4.46,9.53,4.94,14.85.19,2.14-.2,4.46,3.14,5.4,4.17-4.54,1.38-9.65.32-14.17C238.9,77.72,231.48,72.13,218,70.41c-.06-1.9,1.23-3.08,2.49-4.08,5.68-4.53,12.37-6.86,19.45-6.11C256.19,62,267.33,71,273.53,86.12a111.82,111.82,0,0,0,9.61,18.53c5.71,8.8,9.36,18.29,8.86,29-2.21,1.12-4.32,2.6-6.66,3.28-10.7,3.1-14.65,2.56-18.61-8-2.32-6.21-4.84-12.35-8.73-17.78-.88-1.24-1.37-3.08-4-3.17v12.84a20.75,20.75,0,0,0-20.81,20.77c-1.94-3.29-2.37-7.15-3.9-10.61-2.2-4.94-5.17-9.07-11.17-11.58.22,11.35.63,22-1.24,32.42-1.89,10.61-4.84,20.89-11.36,30-3.74-1.53-7-3.13-10.45-4.24-17.94-5.77-33.54,5.62-33.63,24.45-.09,21.65,21.95,40.33,43.49,36.89,1.93-.31,3.91-.84,6.35.08,2.35,5.84,4.85,11.95,7.25,18.11,1.86,4.75,4.9,9,5.62,14.23l-18.92,1.12c-.9-1.16-2-1.19-3.24-.55a4.2,4.2,0,0,0,.68.54,4.31,4.31,0,0,0,.89.23l-6.49,1.77c-9.72,1.34-18.88,4.57-27.74,8.61a132.34,132.34,0,0,0-20.46,11,12.67,12.67,0,0,1-5.29,2.59C130.52,290.89,119,283.17,111.71,270.36Zm85-178.26c-2.4-.68-4,.59-5.7,1.62-14.74,9-22,22.94-25.5,39.27-2.55,12-3.35,24.29-7.31,35.94a76.61,76.61,0,0,0-3.77,25.93c.11,10.13.27,20.28,0,30.4-.35,11.16-1.92,22.07-7.68,32-3.22,5.58-5.37,11.72-7.64,17.59a2.83,2.83,0,0,0,2.56,2.33c1.77-.53,2.39-2,3-3.58a98.32,98.32,0,0,1,5.24-11.81c7.21-12.64,9.57-26.33,9.55-40.64,0-10.8.07-21.6,0-32.4a63.57,63.57,0,0,1,3.91-20.88,86.28,86.28,0,0,0,4.16-17.34c1.19-9.51,1.82-19.23,5.92-28.06,5.41-11.65,11.13-23.24,26.65-24.25C199.52,95.76,198.69,93.52,196.66,92.1ZM203,169.93c4.18-22.18,1.88-43.93-3.64-65.49-.37-1.58,2.41-2.4.69-5-2.73,4-5.47,7.44-7.61,11.23-5.68,10-7.28,21.18-8,32.46-.63,9.12,1.28,18.16,1.08,27.28,0,.45.38.52.88-.26,0-5.49.12-11.45,0-17.41a105.21,105.21,0,0,1,3-29c1.53-6,3.43-11.93,8.33-17.08A186.44,186.44,0,0,1,203,169.93ZM315.37,98.88c12.7,7.49,18.25,19.76,22.36,33.13a17,17,0,0,0,2.48-1.22,2.86,2.86,0,0,0,1.22-2.07c-4.33-17.83-16.8-33.74-27-34.4C313.93,95.89,315,97.11,315.37,98.88Z"/><path class="cls-2" d="M517.18,211.65c3.87-4.07,7.77-8.13,11.61-12.24a24,24,0,0,1,10.67-6.65l4.22,1.29c2.83,3,2.7,6.13,1.56,9.5-2.42,7.1-7.59,12.38-11.92,18.21-2,2.65-4.17,5.15-6.37,7.62a37.09,37.09,0,0,0-9,17.94c-1.21,6.21-4.3,11.8-7.36,17.33a6.7,6.7,0,0,1-2.29,2.52c-19,12.42-36,14.64-55.06.34a25,25,0,0,1-8.21-11,28.93,28.93,0,0,1-1.45-3.7C440.27,239.48,433,228.76,422.5,220a19.91,19.91,0,0,1-6.67-10.87c-.78-3.35-.24-6.32,3.64-7.54,2.66,0,5.32.73,8,0,7.35,1.22,12,6.78,17.38,11,1.28,1,2.18,2.55,4.14,2.92,2.72-1.39,3.36-4.26,4.2-6.86,3.61-11.2,6.17-22.69,9.18-34.06a84.29,84.29,0,0,1,6.14-17.31,28.27,28.27,0,0,1,3.16-5.06c3.47-4.17,8.67-3.32,10.55,1.78s1.25,10.18.61,15.28c-.74,5.88-1.78,11.72-2.8,18.25,3-1.75,3.29-4.29,4.23-6.4,3.9-8.79,7.1-17.91,12.28-26.09,1.41-2.23,2.84-4.51,5.11-6s4.65-2.07,7.06-.92,3.39,3.33,3.56,6.1c.5,7.9-2.31,15-5,22.14-2.49,6.59-5.09,13.13-7.16,19.94,4.13-3.91,6.44-9,9.48-13.57,3.59-5.39,6.68-11.11,11.42-15.65,2.49-2.38,5.12-4.48,8.81-3,3.07,1.28,4.05,4.5,3.38,9.47-.58,4.35-2.36,8.27-4.21,12.16-4,8.39-9.23,16.12-13,24.64-.92,1.44-2.47,2.59-2.41,5.25C515.21,214.11,516.49,213.16,517.18,211.65Zm-61.35,8.62c17.42,6.8,24.79,19.57,25.12,37C486.27,243.11,470.59,219.53,455.83,220.27Zm54.68,10C506.86,218.9,479,201.77,470,205.67,486.6,209.54,500.15,217.32,510.51,230.26Zm-30.38-41.14a7.53,7.53,0,0,0-2.06,6A7.08,7.08,0,0,0,480.13,189.12Zm19.62,9.11-1-.46c-.7,1.77-2.34,3.11-1.22,5.71Z"/><path class="cls-8" d="M417.6,8c1.76.24,2.87-2.61,4.91-1Q417,27.85,411.44,48.7c-1.22,4.57-2.71,9.07-3.34,14.39l76.15-25.15c1,1.3.06,2.59,0,3.88C462.45,60.41,440.85,79.19,419,99.3c19.49,4.78,38.68,7.39,58.66,12.07-11.88,3.3-22.65,6.32-33.45,9.28-20.07,5.5-40.15,10.93-60.21,16.47a19.35,19.35,0,0,1-4.39.72c.45-1.44,2.13-2.23,2.05-3.94l27.6-19.2c-7.3-3.39-14.51-3.71-21.61-6.5l21.79-21.15-.79-1.26-20.93,4.46c.07-8.36,3.06-15.46,3.69-23.63-10.95,3.75-20.53,9.23-31,12.82C378.63,54.91,397.88,31.28,417.6,8Z"/><path class="cls-9" d="M143.54,188.69a47.11,47.11,0,0,1,3.75-18.37,60.16,60.16,0,0,0,4.44-22.23c.28-16.21,2.81-32,12.33-45.83,2.66-3.89,6.58-6.53,9.24-10.35l1.18-1c4.48-1.09,8.89-2.78,13.61-1.33-7.37,1.19-12.48,6.26-16.88,11.41-8.49,9.92-12.7,21.76-14.05,34.93-1.08,10.48,1,21.33-3.66,31.45a57.4,57.4,0,0,0-4.35,15.78,122.31,122.31,0,0,0-1,29.69c1.57,15.74.09,31.17-7.56,45.48a32.31,32.31,0,0,0-3.21,8.86c-.33,1.59-.76,3.28-2.53,4-1.34,0-2.12-.76-2.81-2a50.71,50.71,0,0,1,5.28-15.26c5-9.86,6.75-20.38,6.23-31.35a2.83,2.83,0,0,0,1-2.64v-28.6C144.49,190.34,144.48,189.35,143.54,188.69Z"/><path class="cls-10" d="M387.45,469.38c-2.08-2.69-2-6.08-2.92-9.13a6.47,6.47,0,0,1,1.11-3.91,38.72,38.72,0,0,0,5.44-9.38c.53-1.15.64-2.65,2.26-3,6,2.36,12.36,3.27,18.51,5-.72.41-1.83-.26-2.48.85,1.58.42,3,.71,4.12-.61a6.41,6.41,0,0,1,3.41.38C413.35,460.16,402.81,470.94,387.45,469.38Z"/><path class="cls-9" d="M346.81,128.86c-3.4-12.72-9.34-24-18.8-33.29a38.41,38.41,0,0,0-13.08-8.78c-3.1-1.18-4.59-3.44-6.16-6.37,3.1-1.37,5.42.3,7.64,1.29,10.59,4.71,18.53,12.48,24.89,22.06,4.52,6.82,7.15,14.49,10.17,22C350.29,127.36,349,128.71,346.81,128.86Z"/><path class="cls-9" d="M359.8,289c3.44-10.89.75-20.87-4.72-30.33-2.42-4.17-4.52-8.49-6.61-12.82-1-2.15-1.68-4.37,1-6,.55.27,1.19.37,1.37.72,5,9.68,11.32,18.74,14.09,29.5,1.78,6.89,1.16,13.74-.2,20.58a3.46,3.46,0,0,1-3,2.06C359.59,292.13,360.63,290.07,359.8,289Z"/><path class="cls-11" d="M432.51,397.87c-7.78-13.61-10.19-28.27-8.95-43.86,2.08,1.71,1.93,1.71,2,10.41A65.23,65.23,0,0,0,427,376.19c.71,3.71,1.92,7.33,2.83,11S432.92,394,432.51,397.87Z"/><path class="cls-12" d="M457.27,300.49a2.42,2.42,0,0,1-1-.15,2,2,0,0,0-2-.85,2.43,2.43,0,0,1-1-.16l-1.26-.76-1.69-.31v-1.64l1,0a2,2,0,0,0,2.06.83,2.23,2.23,0,0,1,.92.15,2,2,0,0,0,2.08.85,2,2,0,0,1,.91.13,2,2,0,0,0,2.11.85,1.85,1.85,0,0,1,.87.13,2,2,0,0,0,2.14.86,1.72,1.72,0,0,1,.84.12c.49.92,1.33.94,2.21.85l1.81.24a2,2,0,0,0,2.12.79l1.87.22a2,2,0,0,0,2.14.76l1.83.21c.53.88,1.36.86,2.22.76,5.52-.09,10.94,1.44,16.48,1,1.42-.07,3,.62,4.14-.82l1.85-.17c1.1.17,2.38-.22,3.15,1l-1.71.18c-.86-.1-1.68-.11-2.21.76-8.42,2.17-16.71.92-25-.93-.78-1.22-2-.89-3.12-.88h-.43l-.43-.1c-.75-1.23-2-.92-3.08-.92a2.06,2.06,0,0,1-.92-.12c-.49-.9-1.31-.91-2.17-.84l-1.83-.25-1.23-.73-1.76-.24A2,2,0,0,0,457.27,300.49Z"/><path class="cls-13" d="M484.22,41.82c.09-1.29,1-2.58,0-3.88l5.81-2.2.47.74Z"/><path class="cls-14" d="M381.67,133.9c.08,1.71-1.6,2.5-2.05,3.94-1.14,1.32-2.77,1.19-5.26,2.19C376.88,136.8,379.4,135.5,381.67,133.9Z"/><path class="cls-15" d="M49.65,219.38c2.42,1.24,2.65,3.66,3.39,5.83-2.61-1-3-3.6-4.2-5.61Z"/><path class="cls-16" d="M427.46,201.63c-2.67.68-5.33,0-8,0A7.81,7.81,0,0,1,427.46,201.63Z"/><path class="cls-17" d="M503.16,305.38c-.77-1.22-2.05-.83-3.15-1,1.64-1.26,3.56-1.08,5.75-1.4C505.6,305.07,504.5,305.36,503.16,305.38Z"/><path class="cls-18" d="M517.18,211.65c-.69,1.51-2,2.46-3.58,4-.06-2.66,1.49-3.81,2.41-5.25Z"/><path class="cls-19" d="M413.49,449.27c-1.15,1.32-2.54,1-4.12.61.65-1.11,1.76-.44,2.48-.85Z"/><path class="cls-17" d="M498.16,304.55c-1.15,1.44-2.72.75-4.14.82C495.24,304.27,496.73,304.54,498.16,304.55Z"/><path class="cls-20" d="M471.15,304.51c1.13,0,2.34-.34,3.12.88C473.13,305.45,472,305.48,471.15,304.51Z"/><path class="cls-20" d="M467.21,303.5c1.12,0,2.33-.31,3.08.92C469.16,304.45,468,304.48,467.21,303.5Z"/><path class="cls-20" d="M469.48,302.39a2,2,0,0,1-2.12-.79A2.21,2.21,0,0,1,469.48,302.39Z"/><path class="cls-20" d="M477.54,304.34c-.86.1-1.69.12-2.22-.76A2.45,2.45,0,0,1,477.54,304.34Z"/><path class="cls-21" d="M174.48,90.91l-1.18,1-1.1-.19A2.19,2.19,0,0,1,174.48,90.91Z"/><path class="cls-21" d="M171.39,91.91a1.83,1.83,0,0,1-2.06.89A2,2,0,0,1,171.39,91.91Z"/><path class="cls-20" d="M462.5,300.39a2,2,0,0,1-2.14-.86A2.39,2.39,0,0,1,462.5,300.39Z"/><path class="cls-20" d="M454.29,299.49a2,2,0,0,1,2,.85A2.08,2.08,0,0,1,454.29,299.49Z"/><path class="cls-20" d="M459.49,299.4a2,2,0,0,1-2.11-.85A2.31,2.31,0,0,1,459.49,299.4Z"/><path class="cls-17" d="M499.24,306.32c.53-.87,1.35-.86,2.21-.76A2.39,2.39,0,0,1,499.24,306.32Z"/><path class="cls-20" d="M453.47,297.42a2,2,0,0,1-2.06-.83A2.16,2.16,0,0,1,453.47,297.42Z"/><path class="cls-20" d="M450.38,296.62v1.64C449.32,297.71,449.27,297.17,450.38,296.62Z"/><path class="cls-20" d="M456.47,298.42a2,2,0,0,1-2.08-.85A2.2,2.2,0,0,1,456.47,298.42Z"/><path class="cls-20" d="M473.49,303.37a2,2,0,0,1-2.14-.76A2.26,2.26,0,0,1,473.49,303.37Z"/><path class="cls-20" d="M465.55,301.36c-.88.09-1.72.07-2.21-.85A2.55,2.55,0,0,1,465.55,301.36Z"/><path class="cls-20" d="M457.27,300.49a2,2,0,0,1,2,.83A2.08,2.08,0,0,1,457.27,300.49Z"/><path class="cls-20" d="M464.12,302.54c.86-.07,1.68-.06,2.17.84A2.43,2.43,0,0,1,464.12,302.54Z"/><path class="cls-20" d="M461.06,301.56l1.23.73Z"/><path class="cls-9" d="M346.06,129.49l.78-.69C346.81,129.29,346.57,129.55,346.06,129.49Z"/><path class="cls-20" d="M452.07,298.57l1.26.76Z"/><path class="cls-22" d="M197.09,274.45l6.49-1.77,1.67-.22,18.92-1.12c3.59,3.74,5.6,8.55,8.64,12.68,8.89,12.11,19.35,22.29,33.31,28.39,14.24,6.23,25.5-.4,25.68-15.1.45-6-.84-11.95.25-17.9,2.27-1.7,4.56-.34,6.84-.07a26.84,26.84,0,0,1,6.86,2.27c.9,4.71,1.92,9.41,2.68,14.15,3.1,19.33-9.24,34.13-28.71,34.75-16.05.51-29.14-6.28-41.13-16.11-7.21-5.92-13.35-12.89-19.76-19.62C212,287.59,205.16,280.34,197.09,274.45Z"/><path class="cls-10" d="M115.34,485.35c.42-2.94.11-6,1.2-9.22,20-1.92,36.07-10.74,47.13-28,1.57,5-.69,9.29-2.71,13.52s-5.33,7.9-8.55,11.44c-.67.48-1.83.65-1.36,1.93a2.12,2.12,0,0,0,2.57-.74c5.21-2.08,10.19-4.49,13.76-9.06,2,.13,2.8-2.21,4.67-2.41.94,1.4.12,2.92.41,4.33-6.3,13.54-17.75,19.76-31.76,21.81A50.19,50.19,0,0,1,120,487.77C118.3,487.31,116.17,487.49,115.34,485.35Z"/><path class="cls-23" d="M362.74,380.3a383.47,383.47,0,0,0-22.29-53.67A182.46,182.46,0,0,0,324,300a9.13,9.13,0,0,1-2.14-4.53c4.37,3,6.55,6.91,8.91,10.54,14.46,22.26,24.72,46.48,32.89,71.64a7.32,7.32,0,0,1,.18,1.49Z"/><path class="cls-24" d="M204.34,408.41c-3.45,15.72-10.77,29.48-21,41.77l-1-1.05c9.9-13.21,17.85-27.36,21.1-43.79C204.57,406.1,204.17,407.34,204.34,408.41Z"/><path class="cls-25" d="M141.61,386.35c-.13-4.13-1.61-8.14-1.11-12.33l1.89.22.27,1.05c-.08,4,1.36,7.84.9,11.85v17.32c0,1.28-.09,2.55-.13,3.83-1.49,1.16-.8,2.75-.84,4.21l-.24,2.75h-1.8l0-1c1.46-1.17.78-2.76.82-4.2l.19-4.79A40.61,40.61,0,0,0,141.61,386.35Z"/><path class="cls-26" d="M182.31,449.13l1,1.05-9.69,11.63c-.79,1.46.54,3.76-1.18,5.32-.29-1.41.53-2.93-.41-4.33-1.87.2-2.65,2.54-4.67,2.41Z"/><path class="cls-27" d="M139.55,371.35a.56.56,0,0,1-.18-.73c0-1.49.71-3.12-.88-4.27a50.25,50.25,0,0,1-2.15-9.69c.26-.7.08-1.68,1.54-1.93a27.33,27.33,0,0,1,2.72,11.38l.72,1.18c.1,1.26.2,2.52.29,3.78l.74,1.22,0,1-1.9.05h0A1.87,1.87,0,0,0,139.55,371.35Z"/><path class="cls-28" d="M367.73,392.22a108.34,108.34,0,0,1,4.8,16.1l-1,1.09a131.28,131.28,0,0,1-4.79-16.15Z"/><path class="cls-26" d="M204.34,408.41c-.17-1.07.23-2.31-.93-3.07,1.19-3.4.14-7.35,2.61-10.46A26.67,26.67,0,0,1,204.34,408.41Z"/><path class="cls-29" d="M381.8,451.11q-1.51-6.48-3-13l1-1.11a41.24,41.24,0,0,1,2.94,12C382.61,449.81,382.59,450.63,381.8,451.11Z"/><path class="cls-28" d="M378.56,436.34a38.41,38.41,0,0,1-2.85-10.13l1.06-1.14c1.54,3.22,2,6.74,2.77,10.19Z"/><path class="cls-30" d="M362.74,380.3l1.08-1.14a26.32,26.32,0,0,1,2.72,8.23c-.8.43-.81,1.22-.9,2A44.57,44.57,0,0,1,362.74,380.3Z"/><path class="cls-31" d="M381.8,451.11c.79-.48.81-1.3.9-2.09,1.76,2.13.32,5.54,2.94,7.32a6.47,6.47,0,0,0-1.11,3.91C382.84,457.44,382.85,454.12,381.8,451.11Z"/><path class="cls-24" d="M374.6,421.34a16.88,16.88,0,0,1-1.9-7.1l1-1.07c1.25,1.86,1.39,4,1.79,6.15C374.71,419.77,374.68,420.57,374.6,421.34Z"/><path class="cls-32" d="M373.71,413.17l-1,1.07a9.34,9.34,0,0,1-1.14-4.83l1-1.09C372.92,409.94,373.84,411.43,373.71,413.17Z"/><path class="cls-33" d="M374.6,421.34c.08-.77.11-1.57.9-2,.39,1.63,1.34,3.14,1.11,4.92l-1.15.07C374.53,423.51,374.64,422.4,374.6,421.34Z"/><path class="cls-34" d="M365.64,389.37c.09-.76.1-1.55.9-2,.34,1.31.68,2.61,1,3.91l-1.07.07A2.26,2.26,0,0,1,365.64,389.37Z"/><path class="cls-35" d="M153.62,474.27a2.12,2.12,0,0,1-2.57.74c-.47-1.28.69-1.45,1.36-1.93Z"/><path class="cls-36" d="M378.56,436.34l1-1.08c.07.59.14,1.19.22,1.78l-1,1.11C378.71,437.55,378.64,436.94,378.56,436.34Z"/><path class="cls-37" d="M366.48,391.37l1.07-.07a2,2,0,0,1,.18.92l-1,1C366.68,392.63,366.58,392,366.48,391.37Z"/><path class="cls-37" d="M375.46,424.31l1.15-.07a2.12,2.12,0,0,1,.16.83l-1.06,1.14C375.63,425.57,375.54,424.94,375.46,424.31Z"/><path class="cls-38" d="M140.47,373.37l1.9-.05a2.2,2.2,0,0,1,0,.92L140.5,374A1.77,1.77,0,0,1,140.47,373.37Z"/><path class="cls-38" d="M141.32,367.29l-.72-1.18Z"/><path class="cls-38" d="M142.35,372.29l-.74-1.22Z"/><path class="cls-39" d="M77.73,324.48l1.8-.14c1.14,0,2.36.38,3.16-.86a175.85,175.85,0,0,0,27.54-10.31c-8.46,7.15-18.44,10.73-29.27,12.34l-3.23-.09Z"/><path class="cls-40" d="M55.85,327.35c-1,0-2,.3-3.34-1.82,5.81-.2,11,0,16.26,0,0,.3,0,.6,0,.9C64.48,327,60,325.3,55.85,327.35Z"/><path class="cls-41" d="M141.61,386.35a40.61,40.61,0,0,1,0,18.89Q141.6,395.79,141.61,386.35Z"/><path class="cls-41" d="M143.57,404.46V387.14A36.88,36.88,0,0,1,143.57,404.46Z"/><path class="cls-42" d="M55.85,327.35c4.18-2.05,8.63-.38,12.91-.94l1,.93A96,96,0,0,1,55.85,327.35Z"/><path class="cls-12" d="M69.73,327.34l-1-.93c0-.3,0-.6,0-.9l4.72-.19,4.24.1,3.23.09c-1.5,1.3-3.32.88-5,1s-3.65-.78-5.13.86Z"/><path class="cls-43" d="M70.79,327.34c1.48-1.64,3.4-.69,5.13-.86C74.38,327.79,72.54,327.29,70.79,327.34Z"/><path class="cls-44" d="M140.56,415.27h.92l.12,2.15c-.08.58,0,1.25-.94,1.24C139.23,417.57,140.62,416.39,140.56,415.27Z"/><path class="cls-38" d="M138.49,366.35c1.59,1.15.88,2.78.88,4.27C138.37,369.34,138.41,367.85,138.49,366.35Z"/><path class="cls-41" d="M141.4,410c0,1.44.64,3-.82,4.2C140.56,412.77,140.27,411.26,141.4,410Z"/><path class="cls-43" d="M77.73,325.42l-4.24-.1c1.25-1.13,2.78-.84,4.24-.84Z"/><path class="cls-41" d="M142.6,412.5c0-1.46-.65-3.05.84-4.21C143.46,409.75,143.76,411.27,142.6,412.5Z"/><path class="cls-12" d="M82.69,323.48c-.8,1.24-2,.88-3.16.86A3.68,3.68,0,0,1,82.69,323.48Z"/><path class="cls-41" d="M141.6,417.41l-.12-2.15h.88A2.21,2.21,0,0,1,141.6,417.41Z"/><path class="cls-38" d="M139.55,371.35a1.87,1.87,0,0,1,.91,2A2,2,0,0,1,139.55,371.35Z"/><path class="cls-45" d="M41.81,253.34c2.22-13.71,26.89-29.88,37.49-29C63.44,229.67,50.46,238.71,41.81,253.34Z"/><path class="cls-46" d="M71.9,274.19c-3.31-13.68,9.82-35.23,21.8-35.82C79.82,246.31,73,258.46,71.9,274.19Z"/><path class="cls-47" d="M70.88,216.06c-2-1.89-2.19-4.44-3-6.78l1.18-.47,2.84,6.67Z"/><path class="cls-2" d="M291.8,297.31c-.18,14.7-11.44,21.33-25.68,15.1-14-6.1-24.42-16.28-33.31-28.39-3-4.13-5.05-8.94-8.64-12.68-.72-5.2-3.76-9.48-5.62-14.23-2.4-6.16-4.9-12.27-7.25-18.11-2.44-.92-4.42-.39-6.35-.08-21.54,3.44-43.58-15.24-43.49-36.89.09-18.83,15.69-30.22,33.63-24.45,3.44,1.11,6.71,2.71,10.45,4.24,6.52-9.11,9.47-19.39,11.36-30,1.87-10.45,1.46-21.07,1.24-32.42,6,2.51,9,6.64,11.17,11.58,1.53,3.46,2,7.32,3.9,10.61,5,2.47,7.1,2.18,10.18-1.84a34,34,0,0,1,10-9.34c1.89-1.08,3.43-2.57,3.43-4.91a9.41,9.41,0,0,0-2.8-4.68V108c2.61.09,3.1,1.93,4,3.17,3.89,5.43,6.41,11.57,8.73,17.78,4,10.57,7.91,11.11,18.61,8,2.34-.68,4.45-2.16,6.66-3.28,1.65,0,2.51,1.58,4,1.91,3.2.72,5.92,0,8-2.68,2,.12,3.76-1.48,5.86-1.16,1.65,2.44,3.64,2.78,6,1h0l4,0a3.05,3.05,0,0,0,.95.16c2.84,2.77,6.48,2.95,10.37,2.95,2.56,5.15,3.28,10.77,4.36,16.22,2.11,10.58,3.81,21.24,3.09,32.1a17.12,17.12,0,0,0,1.74,8.71c8.41,17.25,8.46,34.5.29,51.81a13.77,13.77,0,0,0-3,6.07c-6.47,8.4-13.23,16.45-22.82,21.57a60.9,60.9,0,0,1-12.81,5.16c-1.28.34-2.65.39-3.18,1.92-2.28-.27-4.57-1.63-6.84.07C286.22,278,270.14,277,268.13,278,269.73,285.62,282.23,295.84,291.8,297.31Zm24.09-69.73-1-1h0l-1-1h0l-1-1h0l-1-1h0l-1-.92a3.76,3.76,0,0,0-.88-.14l-1.11-.95h0l-1-.89a5.91,5.91,0,0,0-.94-.13l-1.05-.87a7.79,7.79,0,0,0-1-.12c-4.88-2.29-9.87-3-15-1-9.5,1.6-14,8.73-17.77,16.45-2.8,5.76-4.05,11.84-2,18.28,2.14,6.83,8.32,9.47,14.42,5.86a75,75,0,0,0,7.34-5.09c5.92-4.53,12.26-7.78,20-7.58a11.81,11.81,0,0,0,7-1.92l1-1h0l.94-1a4.7,4.7,0,0,0,.09-.92,3.7,3.7,0,0,0,0-5.12,5.86,5.86,0,0,0-.07-.94,2,2,0,0,0-1-2,6.3,6.3,0,0,0-.14-1l-.87-1h0l-.94-1.1a4.56,4.56,0,0,0-.14-.9l-.91-1h0l-1-1Zm-49.95-73.81-.93-1a7,7,0,0,0-4-2.82,4.68,4.68,0,0,0-2.92-1.11l-.94-.23a11.69,11.69,0,0,0-10.1.1,4.15,4.15,0,0,0-2.85,1.18,11.48,11.48,0,0,0-5.85,5.91c-.46.91-.93,1.81-1.4,2.72a6.41,6.41,0,0,0-1.59,4.3c-.17,1.95-1.43,4,.63,5.72-.1,9,2.36,16.95,8.71,23.55,5.22,5.42,11.18,8.18,18.71,5.64,6.06-2,10.26-8.83,10.79-16.43a35.6,35.6,0,0,0-6.07-22.58c.5-.21.86-.51.69-1.13a.67.67,0,0,0-.06-.72.91.91,0,0,0-.72-1.09l-1.07-.94A1.23,1.23,0,0,0,265.94,153.77Zm59.8-3a1.18,1.18,0,0,0-.91-1.09,3,3,0,0,0-2-2,1.18,1.18,0,0,0-1-1,8.55,8.55,0,0,0-5.06-2.84c-3-1.11-5.93-1.78-9-.23a.84.84,0,0,0-.87.14,6.93,6.93,0,0,0-4.93,2.95l-1,1c-2,1.38-2.88,3.48-3.57,5.68-.37,1.19.51,1.32,1.35,1.44-2.84,7.74-1.48,15.25,1.28,22.68-6.48-2.77-7.92-3-11.29-2,14.05,5.94,17,9.2,15.68,17.62-6.81,3.69-6.81,3.69-7.92,7.19,2.88-.62,3.86-4.12,7.13-4.49-.35,3-3.57,3.93-3.73,6.57,5.61-2.51,7.55-7.06,7.08-13,8.45,6.53,17.07,5.8,22.46-2.09a20.41,20.41,0,0,0,3.43-9.72c.86-8.85-1.9-16.69-6.14-24.2C326.9,152.45,326.94,151.4,325.74,150.82Zm-34.65,29.79c-1.17-1.31-2.72-.84-4.15-.87-1,.35-2.48-1-2.95.93,1.41,1.67,3.31.74,5,1l1.89.09a33.46,33.46,0,0,0,9.59,2.26c-1.9-2.57-4.71-2.93-7.53-3.27Zm5.78,13c-2.23.7-4.3,1.62-5.14,4.23,2.5-.77,4.88-1.68,6.28-4.18,1.18-.9,3.15-1,3.56-3.8-5.84.77-11.42.38-16.26,3.71,2,.72,3.78-.06,5.62-.42C293,192.78,295,191.78,296.87,193.63Zm-55.78,33.06c.2,1.7-.59,3.54,1,5.7,2.22-4.58-.55-8.71,0-12.75-.48-8.56-2.9-16.72-5-24.94-1.26-2.7-.9-6-3.54-9-.41,4.16,1.1,7.1,2.56,10,1.19,6.62,2.15,13.29,3.65,19.83C240.57,219.28,239.09,223.19,241.09,226.69Zm-33.6-5c-1.87-1.61-2.4-3.71-2.89-5.72-1.7-7.16-6.09-12.49-11.55-17-3.47-2.85-7.45-5-12.35-4.28,5.74,2.54,11.9,4.38,15.75,10.32-2.73.89-5.26.76-6.72,2.94C188.49,216.56,197.87,224.16,207.49,221.7Zm39.7,16.07c5.3-5.41,2.6-30.12-3.89-36.63C247.08,212.89,249.76,224.75,247.19,237.77Zm82.1-34.08c4.44,5.77,6.5,12.43,7.72,20.18C339.69,218.15,335,206.22,329.29,203.69Zm-77.86,3.64c1.64,6.83,3.26,13.67,5,20.49A31.66,31.66,0,0,0,251.43,207.33Zm-19.5-5.18c-.55,6.6.62,13.12,1,19.67C234.41,215.18,234.66,208.59,231.93,202.15Zm103.37,0C338,207,339.48,212.26,342,217.1,342.06,211.09,340.26,205.9,335.3,202.15Zm-5.81,16.14c1.49-4.91-.58-9.49-4.58-11.25C326.52,211,328,214.65,329.49,218.29Zm-42.93-32v1.17l11.86.82.06-1.38C294.5,186.75,290.66,184.59,286.56,186.28Zm-23.44,34.83c1.54-3.93-.27-6.9-2.46-9.76C260.12,215,261.93,217.92,263.12,221.11Zm-26.94-76.77c.88-.09,2,1.21,2.88-.32A3,3,0,0,0,236.18,144.34Z"/><path class="cls-48" d="M296,135.57c-1.48-.33-2.34-1.95-4-1.91.5-10.72-3.15-20.21-8.86-29a111.82,111.82,0,0,1-9.61-18.53C267.33,71,256.19,62,239.9,60.22c-7.08-.75-13.77,1.58-19.45,6.11-1.26,1-2.55,2.18-2.49,4.08,13.52,1.72,20.94,7.31,23.65,18.84,1.06,4.52,3.85,9.63-.32,14.17-3.34-.94-2.95-3.26-3.14-5.4-.48-5.32-1.47-10.42-4.94-14.85-4.93-6.29-11.08-8.55-18.61-6.87-4.06,3.64-2.82,10.11-7.19,13.09a3.2,3.2,0,0,1-2.68-1.87c2.93-22.27,18.81-33.56,37.2-33.44,18.66.12,33.06,8.38,42.5,24.75A95.3,95.3,0,0,0,295,93.3c5.77,6.68,8.9,14.7,11.8,22.85a7.52,7.52,0,0,1,0,2.46,6.33,6.33,0,0,1-.76,0l-3.76-1.37a66,66,0,0,0-7.86-16.48c-5.87-8.42-12.56-16.24-18.05-24.94a7.38,7.38,0,0,0-3.22-3,1.26,1.26,0,0,0-1.08-1,1.07,1.07,0,0,0-1-1,2.54,2.54,0,0,0,0-1c-.5-.9-.84-2-2.28-1.65-.12,1,.56,1.32,1.25,1.63l1.07,1a1.13,1.13,0,0,0,1,1l.19,1c1.58,2.91,3.4,5.71,4.69,8.74,2.92,6.86,5.58,13.8,9.9,20a52,52,0,0,1,5,9.13C295.24,118.63,298.66,126.61,296,135.57Z"/><path class="cls-9" d="M196.66,92.1c2,1.42,2.86,3.66,3.41,6.16-15.52,1-21.24,12.6-26.65,24.25-4.1,8.83-4.73,18.55-5.92,28.06a86.28,86.28,0,0,1-4.16,17.34,63.57,63.57,0,0,0-3.91,20.88c0,10.8,0,21.6,0,32.4,0,14.31-2.34,28-9.55,40.64a98.32,98.32,0,0,0-5.24,11.81c-.65,1.6-1.27,3.05-3,3.58a2.83,2.83,0,0,1-2.56-2.33c2.27-5.87,4.42-12,7.64-17.59,5.76-10,7.33-20.88,7.68-32,.32-10.12.16-20.27,0-30.4a76.61,76.61,0,0,1,3.77-25.93c4-11.65,4.76-24,7.31-35.94,3.48-16.33,10.76-30.25,25.5-39.27C192.64,92.69,194.26,91.42,196.66,92.1Z"/><path class="cls-49" d="M254,120.82a9.41,9.41,0,0,1,2.8,4.68c0,2.34-1.54,3.83-3.43,4.91a34,34,0,0,0-10,9.34c-3.08,4-5.22,4.31-10.18,1.84A20.75,20.75,0,0,1,254,120.82Z"/><path class="cls-50" d="M203,169.93a186.44,186.44,0,0,0-5.3-63.33c-4.9,5.15-6.8,11.06-8.33,17.08a105.21,105.21,0,0,0-3,29c.15,6,0,11.92,0,17.41-.5.78-.89.71-.88.26.2-9.12-1.71-18.16-1.08-27.28.76-11.28,2.36-22.42,8-32.46,2.14-3.79,4.88-7.24,7.61-11.23,1.72,2.65-1.06,3.47-.69,5C204.88,126,207.18,147.75,203,169.93Z"/><path class="cls-51" d="M337.7,250.69a13.77,13.77,0,0,1,3-6.07,176.72,176.72,0,0,0,10.62,22.9c3.31,5.94,3,12.4,2.28,18.86a4.89,4.89,0,0,1-.75,1.82,6.45,6.45,0,0,1-1,1.07c-3.05.27-3.12-1.71-3.11-3.84a77.1,77.1,0,0,0-.18-10.43,27.21,27.21,0,0,0-4.79-11.33A57.77,57.77,0,0,1,337.7,250.69Z"/><path class="cls-52" d="M315.37,98.88c-.34-1.77-1.44-3-1-4.56,10.23.66,22.7,16.57,27,34.4a2.86,2.86,0,0,1-1.22,2.07,17,17,0,0,1-2.48,1.22C333.62,118.64,328.07,106.37,315.37,98.88Z"/><path class="cls-10" d="M306,118.66a6.33,6.33,0,0,0,.76,0c5.51,1.31,10.73,3.1,13.91,8.35a3.87,3.87,0,0,0,2.24,1.85l1,1c-.46,1.57-2.35,1.69-3.05,3a3.05,3.05,0,0,1-.95-.16c-1.36-1.2-2.7-1.34-4,0h0l-5.79-2c-1.46-1.2-3.36-1.39-5-2.1-3.13-1.35-6.79-2.15-6.93-6.72a4.35,4.35,0,0,1,2.91-3Z"/><path class="cls-53" d="M143.54,188.69c.94.66,1,1.65,1,2.65v28.6a2.83,2.83,0,0,1-1,2.64C143.1,211.28,141.59,200,143.54,188.69Z"/><path class="cls-54" d="M323.87,121.76c-1.26-6.42-4.2-12.22-6.54-18.3a30,30,0,0,1,7.54,15.26C324.75,119.8,325.11,121,323.87,121.76Z"/><path class="cls-55" d="M323.87,121.76c1.24-.72.88-2,1-3,1.51,3.86,1.88,7.62-1,11.09l-1-1C324.24,126.6,323.77,124.14,323.87,121.76Z"/><path class="cls-56" d="M205.25,272.46l-1.67.22a4.31,4.31,0,0,1-.89-.23,4.2,4.2,0,0,1-.68-.54C203.27,271.27,204.35,271.3,205.25,272.46Z"/><path class="cls-45" d="M455.83,220.27c14.76-.74,30.44,22.84,25.12,37C480.62,239.84,473.25,227.07,455.83,220.27Z"/><path class="cls-46" d="M510.51,230.26c-10.36-12.94-23.91-20.72-40.52-24.59C479,201.77,506.86,218.9,510.51,230.26Z"/><path class="cls-57" d="M480.13,189.12a7.08,7.08,0,0,1-2.06,6A7.53,7.53,0,0,1,480.13,189.12Z"/><path class="cls-58" d="M499.75,198.23l-2.24,5.25c-1.12-2.6.52-3.94,1.22-5.71Z"/><path class="cls-59" d="M291.8,297.31c-9.57-1.47-22.07-11.69-23.67-19.34,2-1,18.09,0,23.92,1.44C291,285.36,292.25,291.35,291.8,297.31Z"/><path class="cls-22" d="M268.11,158.7a35.6,35.6,0,0,1,6.07,22.58c-.53,7.6-4.73,14.39-10.79,16.43-7.53,2.54-13.49-.22-18.71-5.64-6.35-6.6-8.81-14.59-8.71-23.55.13-1.17.25-2.35.38-3.52.55-1.78,1.09-3.56,1.64-5.34l.69-1.07.38-.18,0-.43a.63.63,0,0,1,.21-.48c.4-.1.66-.3.55-.77,1.21-2.54,3.54-4,5.47-5.92l2.83-1.19c2.75-.09,5.51-.55,8.23.31a1.12,1.12,0,0,0,1.59.63l1.8.41,4.28,2.86a1.11,1.11,0,0,0,1.06.86,1.2,1.2,0,0,0,1,1l1.25,1.9Zm1.91,23a7.68,7.68,0,0,0,0-6c.17-2.27-1-4.07-2.21-5.77-1.37-1.89-3.1-3.57-5.66-3.07s-3.8,2.28-3.93,4.85a8.33,8.33,0,0,0,0,6c-.2,2.45,1.05,4.4,2.38,6.23s3.24,3.43,5.79,2.81S270,184.27,270,181.67Z"/><path class="cls-22" d="M300.07,177.57c-2.76-7.43-4.12-14.94-1.28-22.68q1.59-3,3.19-6l1-1q2.64-1.44,5.27-2.89l.38,0,.27-.26,5.8.08,6.19,2.89,1.19.94a3.69,3.69,0,0,0,1.83,1.88,1.27,1.27,0,0,0,1,1.15,2.87,2.87,0,0,0,1.89,1.84c4.24,7.51,7,15.35,6.14,24.2a20.41,20.41,0,0,1-3.43,9.72c-5.39,7.89-14,8.62-22.46,2.09C305.76,184.93,304.06,180.58,300.07,177.57Zm28.73-.89a7.23,7.23,0,0,0,0-5c.25-2.5-1-4.5-2.36-6.37-1.21-1.65-2.8-2.93-5-2.62-2.51.35-3.68,2.29-4.22,4.41a14.72,14.72,0,0,0,1.51,11.55c1.32,2.21,3,4.33,5.85,3.83C327.53,182,328.81,179.69,328.8,176.68Z"/><path class="cls-48" d="M320.9,241.64a4.7,4.7,0,0,1-.09.92l-.94,1h0l-1,1a11.81,11.81,0,0,1-7,1.92c-7.73-.2-14.07,3.05-20,7.58a75,75,0,0,1-7.34,5.09c-6.1,3.61-12.28,1-14.42-5.86-2-6.44-.78-12.52,2-18.28,3.75-7.72,8.27-14.85,17.77-16.45,1.07.13,2.28-.22,3.05.91-4.33,1.06-8.67,2.09-11.44,6.08-7,5.57-9.44,13.18-9.9,22,10.87-8.71,22.45-8.27,34.49-4a17.05,17.05,0,0,0,8.32.9c4.65-.71,6.62-3.94,4.71-8.26-2.67-6-6.61-11-13-13.61l-1.23-1.13a1.36,1.36,0,0,0-1.32-.72.63.63,0,0,1-.65-.17c.41-.85,1.2-.94,2-1a7.79,7.79,0,0,1,1,.12l1.05.87a5.91,5.91,0,0,1,.94.13l1,.89h0l1.11.95a3.76,3.76,0,0,1,.88.14l1,.92h0l1,1h0l1,1h0l1,1h0l1,1h0l1,1h0l.91,1a4.56,4.56,0,0,1,.14.9l.94,1.1h0l.87,1a6.3,6.3,0,0,1,.14,1,2,2,0,0,0,1,2,5.86,5.86,0,0,1,.07.94Z"/><path class="cls-7" d="M306,118.66l-5,.23a4.35,4.35,0,0,0-2.91,3c.14,4.57,3.8,5.37,6.93,6.72-1.81,1.1-1.06,2.8-1,4.33-2.07,2.68-4.79,3.4-8,2.68,2.67-9-.75-16.94-4.14-24.86a52,52,0,0,0-5-9.13c-4.32-6.18-7-13.12-9.9-20-1.29-3-3.11-5.83-4.69-8.74l.88,0a7.38,7.38,0,0,1,3.22,3c5.49,8.7,12.18,16.52,18.05,24.94a66,66,0,0,1,7.86,16.48Z"/><path class="cls-46" d="M207.49,221.7c-9.62,2.46-19-5.14-17.76-13.7,1.46-2.19,4-2.06,6.72-2.95-3.85-5.94-10-7.78-15.75-10.32,4.9-.71,8.88,1.43,12.35,4.28,5.46,4.48,9.85,9.81,11.55,17C205.09,218,205.62,220.09,207.49,221.7Zm-3.7-1.34c-1.76-9.61-5.89-13.58-11.81-11.71C190.63,214.46,193.87,217.76,203.79,220.36Z"/><path class="cls-60" d="M300.07,177.57c4,3,5.69,7.36,6.95,12,.47,5.89-1.47,10.44-7.08,13,.16-2.64,3.38-3.55,3.73-6.57-3.27.37-4.25,3.87-7.13,4.49,1.11-3.5,1.11-3.5,7.92-7.19,1.27-8.42-1.63-11.68-15.68-17.62C292.15,174.55,293.59,174.8,300.07,177.57Z"/><path class="cls-61" d="M247.19,237.77c2.57-13-.11-24.88-3.89-36.63C249.79,207.65,252.49,232.36,247.19,237.77Z"/><path class="cls-62" d="M237.05,194.7c2.14,8.22,4.56,16.38,5,24.94-1.89,2.13-.5,4.72-1,7.05-2-3.5-.52-7.41-1.37-11.11-1.5-6.54-2.46-13.21-3.65-19.83Z"/><path class="cls-63" d="M329.29,203.69c5.72,2.53,10.4,14.46,7.72,20.18C335.79,216.12,333.73,209.46,329.29,203.69Z"/><path class="cls-64" d="M251.43,207.33a31.66,31.66,0,0,1,5,20.49C254.69,221,253.07,214.16,251.43,207.33Z"/><path class="cls-65" d="M231.93,202.15c2.73,6.44,2.48,13,1,19.67C232.55,215.27,231.38,208.75,231.93,202.15Z"/><path class="cls-66" d="M296.87,193.63c-1.85-1.85-3.92-.85-5.94-.46-1.84.36-3.63,1.14-5.62.42,4.84-3.33,10.42-2.94,16.26-3.71-.41,2.85-2.38,2.9-3.56,3.8Z"/><path class="cls-67" d="M335.3,202.15c5,3.75,6.76,8.94,6.65,14.95C339.48,212.26,338,207,335.3,202.15Z"/><path class="cls-67" d="M329.49,218.29c-1.49-3.64-3-7.29-4.58-11.25C328.91,208.8,331,213.38,329.49,218.29Z"/><path class="cls-68" d="M292.94,219.47c-.77-1.13-2-.78-3.05-.91,5.17-1.94,10.16-1.26,15,1-.81,0-1.6.13-2,1A51.61,51.61,0,0,0,292.94,219.47Z"/><path class="cls-62" d="M286.56,186.28c4.1-1.69,7.94.47,11.92.61l-.06,1.38-11.86-.82Z"/><path class="cls-69" d="M263.12,221.11c-1.19-3.19-3-6.16-2.46-9.76C262.85,214.21,264.66,217.18,263.12,221.11Z"/><path class="cls-70" d="M241.09,226.69c.5-2.33-.89-4.92,1-7.05-.58,4,2.19,8.17,0,12.75C240.5,230.23,241.29,228.39,241.09,226.69Z"/><path class="cls-71" d="M256.33,149.93c-2.72-.86-5.48-.4-8.23-.31l-1.07-.93a11.69,11.69,0,0,1,10.1-.1l-.06,1A1.88,1.88,0,0,0,256.33,149.93Z"/><path class="cls-72" d="M304,132.89c-.05-1.53-.8-3.23,1-4.33,1.68.71,3.58.9,5,2.1l-.19,1.07C307.74,131.41,306,133,304,132.89Z"/><path class="cls-62" d="M292.94,180.7c2.82.34,5.63.7,7.53,3.27a33.46,33.46,0,0,1-9.59-2.26C291.7,181.65,292.51,181.57,292.94,180.7Z"/><path class="cls-73" d="M237.05,194.7l-1,1.05c-1.46-2.94-3-5.88-2.56-10C236.15,188.65,235.79,192,237.05,194.7Z"/><path class="cls-74" d="M314.69,144.83l-5.8-.08-1.08-1.05c3-1.55,6-.88,9,.23C316.28,144.69,315.42,144.61,314.69,144.83Z"/><path class="cls-75" d="M245.27,150.81c-1.93,1.87-4.26,3.38-5.47,5.92a1,1,0,0,0-.63,0l-.84-1a11.48,11.48,0,0,1,5.85-5.91Z"/><path class="cls-76" d="M302,148.86q-1.61,3-3.19,6c-.84-.12-1.72-.25-1.35-1.44.69-2.2,1.57-4.3,3.57-5.68l.36.13v.42l.42,0A.49.49,0,0,1,302,148.86Z"/><path class="cls-62" d="M296.87,193.63l1.14.05c-1.4,2.5-3.78,3.41-6.28,4.18C292.57,195.25,294.64,194.33,296.87,193.63Z"/><path class="cls-77" d="M309.84,131.73l.19-1.07,5.79,2C313.48,134.51,311.49,134.17,309.84,131.73Z"/><path class="cls-78" d="M308.24,145q-2.62,1.46-5.27,2.89l-1-1.06a6.93,6.93,0,0,1,4.93-2.95Z"/><path class="cls-79" d="M314.69,144.83c.73-.22,1.59-.14,2.08-.9a8.55,8.55,0,0,1,5.06,2.84l-.14.37-.38,0,0,.35a.4.4,0,0,1-.46.21Z"/><path class="cls-80" d="M264,153.83,259.72,151l1.27-1a7,7,0,0,1,4,2.82Z"/><path class="cls-62" d="M289,181.62c-1.69-.21-3.59.72-5-1,1.06-.06,2.24.26,2.95-.93,1.43,0,3-.44,4.15.87C290.27,180.7,289.44,180.76,289,181.62Z"/><path class="cls-81" d="M238,159.66c-.55,1.78-1.09,3.56-1.64,5.34-.3-.75-.17-1.7-1-2.2a6.41,6.41,0,0,1,1.59-4.3Z"/><path class="cls-82" d="M245.27,150.81l-1.09-.94a4.15,4.15,0,0,1,2.85-1.18l1.07.93Z"/><path class="cls-83" d="M235.34,162.8c.84.5.71,1.45,1,2.2-.13,1.17-.25,2.35-.38,3.52C233.91,166.82,235.17,164.75,235.34,162.8Z"/><path class="cls-84" d="M238,159.66l-1.06-1.16c.47-.91.94-1.81,1.4-2.72l.84,1a1,1,0,0,0,.08.75.63.63,0,0,0-.21.48l-.38.19,0,.42Z"/><path class="cls-85" d="M323.9,150.54a3.69,3.69,0,0,1-1.83-1.88l.77-.93a3,3,0,0,1,2,2Z"/><path class="cls-74" d="M261,149.93l-1.27,1-1.8-.41a2.68,2.68,0,0,0,.05-.63l.1-1.11A4.68,4.68,0,0,1,261,149.93Z"/><path class="cls-86" d="M267.3,157.62l-1.25-1.9.22-.24a.48.48,0,0,0,.54-.54l.14-.12,1.07.94a1,1,0,0,0,.72,1.09.67.67,0,0,1,.06.72Z"/><path class="cls-87" d="M236.18,144.34a3,3,0,0,1,2.88-.32C238.19,145.55,237.06,144.25,236.18,144.34Z"/><path class="cls-68" d="M320.9,241.64v-5.12A3.7,3.7,0,0,1,320.9,241.64Z"/><path class="cls-88" d="M286.94,179.74c-.71,1.19-1.89.87-2.95.93C284.46,178.73,286,180.09,286.94,179.74Z"/><path class="cls-77" d="M315.83,132.7c1.34-1.37,2.68-1.23,4,0Z"/><path class="cls-89" d="M326.77,153.53a2.87,2.87,0,0,1-1.89-1.84l.22-.23a.42.42,0,0,0,.49-.49l.15-.15C326.94,151.4,326.9,152.45,326.77,153.53Z"/><path class="cls-88" d="M289,181.62c.45-.86,1.28-.92,2.1-1l1.85.09c-.43.87-1.24,1-2.06,1Z"/><path class="cls-90" d="M323.9,150.54l.93-.81a1.18,1.18,0,0,1,.91,1.09l-.15.15c-.34,0-.5.15-.49.49l-.22.23A1.27,1.27,0,0,1,323.9,150.54Z"/><path class="cls-91" d="M302,146.79l1,1.06-1,1a.49.49,0,0,0-.19-.52.66.66,0,0,0-.42-.44l-.36-.13Z"/><path class="cls-85" d="M322.84,147.73l-.77.93-1.19-.94a.4.4,0,0,0,.46-.21.46.46,0,0,0,.35-.37l.14-.37A1.18,1.18,0,0,1,322.84,147.73Z"/><path class="cls-92" d="M266.05,155.72a1.2,1.2,0,0,1-1-1l.88-.92a1.23,1.23,0,0,1,1,1l-.14.12a.49.49,0,0,0-.54.54Z"/><path class="cls-92" d="M265.94,153.77l-.88.92a1.11,1.11,0,0,1-1.06-.86l1-1.08Z"/><path class="cls-93" d="M308.24,145l-1.3-1.12a.84.84,0,0,1,.87-.14l1.08,1.05-.27.26Z"/><path class="cls-94" d="M267.3,157.62l1.5-.05c.17.62-.19.92-.69,1.13Z"/><path class="cls-68" d="M320.82,235.58a2,2,0,0,1-1-2A2,2,0,0,1,320.82,235.58Z"/><path class="cls-68" d="M307,220.58l-1.05-.87Z"/><path class="cls-68" d="M308.9,221.6l-1-.89Z"/><path class="cls-68" d="M311.87,223.6l-1-.92Z"/><path class="cls-68" d="M312.9,224.58l-1-1Z"/><path class="cls-68" d="M313.91,225.57l-1-1Z"/><path class="cls-68" d="M314.91,226.57l-1-1Z"/><path class="cls-94" d="M268.74,156.85a1,1,0,0,1-.72-1.09A.91.91,0,0,1,268.74,156.85Z"/><path class="cls-68" d="M319.87,243.59l.94-1Z"/><path class="cls-95" d="M258.07,148.82l-.1,1.11a1,1,0,0,1-.9-.29l.06-1Z"/><path class="cls-68" d="M318.85,244.56l1-1Z"/><path class="cls-68" d="M310,222.54l-1.11-.95Z"/><path class="cls-68" d="M319.72,232.59l-.87-1Z"/><path class="cls-68" d="M318.85,231.59l-.94-1.1Z"/><path class="cls-68" d="M317.77,229.59l-.91-1Z"/><path class="cls-68" d="M316.85,228.6l-1-1Z"/><path class="cls-68" d="M315.89,227.58l-1-1Z"/><path class="cls-96" d="M270,69.88c-.69-.31-1.37-.63-1.25-1.63,1.44-.38,1.78.75,2.28,1.65Z"/><path class="cls-97" d="M271,70.89a1.07,1.07,0,0,1,1,1h0a1.13,1.13,0,0,1-1-1Z"/><path class="cls-98" d="M273.1,72.84l-.88,0-.19-1h0A1.26,1.26,0,0,1,273.1,72.84Z"/><path class="cls-99" d="M270,69.88l1,0a2.54,2.54,0,0,1,0,1l0,0Z"/><path class="cls-100" d="M258.17,171.71c.13-2.57,1.45-4.36,3.93-4.85s4.29,1.18,5.66,3.07c1.23,1.7,2.38,3.5,2.21,5.77a4.57,4.57,0,0,0,0,6c0,2.6-1.24,4.43-3.72,5s-4.39-.89-5.79-2.81-2.58-3.78-2.38-6.23A4.7,4.7,0,0,0,258.17,171.71Z"/><path class="cls-101" d="M270,181.67a4.57,4.57,0,0,1,0-6A7.68,7.68,0,0,1,270,181.67Z"/><path class="cls-102" d="M258.17,171.71a4.7,4.7,0,0,1,0,6A8.33,8.33,0,0,1,258.17,171.71Z"/><path class="cls-2" d="M257.07,149.64a1,1,0,0,0,.9.29,2.68,2.68,0,0,1-.05.63,1.12,1.12,0,0,1-1.59-.63A1.88,1.88,0,0,1,257.07,149.64Z"/><path class="cls-2" d="M239.25,157.5a1,1,0,0,1-.08-.75,1,1,0,0,1,.63,0C239.91,157.2,239.65,157.4,239.25,157.5Z"/><polygon class="cls-2" points="238.68 158.59 238.66 158.17 239.04 157.98 239.06 158.41 238.68 158.59"/><path class="cls-100" d="M328.8,176.68c0,3-1.27,5.3-4.28,5.82-2.86.5-4.53-1.62-5.85-3.83a14.72,14.72,0,0,1-1.51-11.55c.54-2.12,1.71-4.06,4.22-4.41,2.24-.31,3.83,1,5,2.62,1.38,1.87,2.61,3.87,2.36,6.37A3.41,3.41,0,0,0,328.8,176.68Z"/><path class="cls-101" d="M328.8,176.68a3.41,3.41,0,0,1,0-5A7.23,7.23,0,0,1,328.8,176.68Z"/><path class="cls-54" d="M306.12,222.59c6.39,2.57,10.33,7.56,13,13.61,1.91,4.32-.06,7.55-4.71,8.26a17.05,17.05,0,0,1-8.32-.9c-12-4.3-23.62-4.74-34.49,4,.46-8.8,2.9-16.41,9.9-22a38.37,38.37,0,0,0,20.58,3.13C306.05,228.14,306.76,226.76,306.12,222.59Z"/><path class="cls-103" d="M306.12,222.59c.64,4.17-.07,5.55-4,6.09a38.37,38.37,0,0,1-20.58-3.13c2.77-4,7.11-5,11.44-6.08a51.61,51.61,0,0,1,10,1.1.63.63,0,0,0,.65.17l1.32.72Z"/><path class="cls-68" d="M304.89,221.46l-1.32-.72A1.36,1.36,0,0,1,304.89,221.46Z"/><path class="cls-2" d="M203.79,220.36c-9.92-2.6-13.16-5.9-11.81-11.71C197.9,206.78,202,210.75,203.79,220.36Z"/><path class="cls-91" d="M301.37,147.9a.66.66,0,0,1,.42.44l-.42,0Z"/><path class="cls-104" d="M321.69,147.14a.46.46,0,0,1-.35.37l0-.35Z"/><path class="cls-92" d="M266.27,155.48a.49.49,0,0,1,.54-.54A.48.48,0,0,1,266.27,155.48Z"/><path class="cls-105" d="M325.1,151.46c0-.34.15-.5.49-.49A.42.42,0,0,1,325.1,151.46Z"/></svg>