<svg id="bc8a828b-ec7c-47cf-a488-bbefb31726c1" data-name="Layer 1" xmlns="http://www.w3.org/2000/svg" viewBox="0 0 550 550"><defs><style>.b3889038-9a51-4e43-b2a1-59e374fb14d1{fill:#fcbebe;}.bd337005-e24d-485b-9317-37e30cba74d2{fill:#c3ebf1;}.f6ad8548-66ab-42ff-92bf-20149a4ac094{fill:#c5ebf0;}.ac9013e6-3ad5-4644-b7b3-602ae96a9068{fill:#d6f3fc;}.bb6271ca-1128-494f-9a29-eb7bf002471e{fill:#443950;}.a37c28a8-90c5-4718-88a4-a0c9cf085a05{fill:#eea98e;}.b1b01abb-98ba-42c6-83dc-2f52b76eda61{fill:#e26d66;}.bef5a881-f224-4b44-bc9e-25f7ae3081f5{fill:#fdfdfd;}.a4ce7120-beef-43a4-8ab9-d7f581249e5b{fill:#7c4a41;}.a8a38b45-6868-4f15-83ed-1c83e6b095e5{fill:#bdc359;}.a7f62bd2-0368-40b5-9577-88aebe6c825a{fill:#bdc459;}.a75cbff1-09fd-4e38-bd10-1e5360aa1552{fill:#618b50;}.b25f708a-6ed2-4c10-b172-d470f10f84af{fill:#ee8f79;}.a34acc2e-e41a-4023-bbf6-36cd66804afb{fill:#573d26;}.b29a871f-75b3-4129-89f3-b19dabc83fb5{fill:#c9b2a4;}.af68a4c5-beae-49ff-99f0-90c0e293dca6{fill:#7b4a41;}</style></defs><path class="b3889038-9a51-4e43-b2a1-59e374fb14d1" d="M.07,237.41Q.07,119.95,0,2.47C0,.45.47,0,2.48,0Q209.09.09,415.7.05a8.73,8.73,0,0,1-1.8,2.63c-4.19,5.08-8.83,9.76-13.33,14.56-1.88,0-3.77.07-5.63-.12-6.11-.63-12.22-1.34-18.33-2.05-7-.82-14-1.7-21-2.5-8.5-1-17-1.9-25.51-2.84-8.86-1-17.77-1.63-26.56-3-13-2-25.73,6.92-27.48,19.94-1.06,8-1.86,15.93-2.85,23.89-1.52,12.2-3.12,24.4-4.66,36.6-1.29,10.16-2.54,20.33-3.81,30.5-5.93,2.7-11.85,5.42-17.79,8.09-5.28,2.38-10.59,4.7-15.89,7,1.75-17.09-4.35-31.52-16.47-43-19.93-18.79-46.46-22.1-70.72-9.2-6.28,3.33-12.17,6.18-19.38,4.58a.83.83,0,0,0-.27,0,16,16,0,0,0-5.52-.19C99.54,86,85.4,95.19,76,111.73c-5.74,10.12-7.27,21.37-7.73,32.83-.37,9.28-1.67,18.33-7,26.34-3.7,5.57-8.66,10-13.37,14.6-11.38,11.19-17.29,24.34-14.82,40.57-1,.31-2.06.56-3.06.93C20.13,230.65,10.2,234.32.07,237.41Z"/><path class="bd337005-e24d-485b-9317-37e30cba74d2" d="M400.57,17.24c4.5-4.8,9.14-9.48,13.33-14.56A8.73,8.73,0,0,0,415.7.05q65.91,0,131.83,0c2,0,2.47.45,2.47,2.47q-.09,230.51,0,461c-1.11-.17-1.35-1-1.57-1.92-3.33-13.14-6.63-26.29-10-39.42q-5.19-20.2-10.48-40.38c-4.71-18-9.5-36.06-14.15-54.11-.82-3.16-2-6.37-1.27-9.74,1.13-5.41,1.3-10.94,2-16.41.83-6.44,1.56-12.89,2.36-19.33,1.17-9.35,2.39-18.7,3.54-28.05.81-6.53,1.52-13.07,2.33-19.6,1-8,2-16.06,3-24.08q1.28-10.06,2.53-20.11c.77-6.27,1.55-12.54,2.3-18.81.83-6.88,1.61-13.77,2.45-20.66.77-6.35,1.6-12.7,2.39-19.05q1-8.07,2-16.15c.77-6.26,1.52-12.53,2.3-18.8s1.68-12.69,2.43-19.05c.94-7.95,2.47-15.83,2.41-23.89-.1-12-10.56-22.31-22.59-22.17a50.35,50.35,0,0,0-5-1.06c-5.38-.64-10.79-1.12-16.17-1.73-10.51-1.19-21-2.48-31.53-3.65-8.83-1-17.69-1.83-26.52-2.8-10.87-1.2-21.75-2.34-32.59-3.76C407,18.34,403.62,18.76,400.57,17.24Z"/><path class="bd337005-e24d-485b-9317-37e30cba74d2" d="M550,547.8c0,1.84-.36,2.2-2.2,2.2q-147.94-.09-295.88,0a138.41,138.41,0,0,0-2.67-33.37c3.09-2.5,3.19-5.71,2.23-9.19-.26-.94-.38-1.92-.61-2.88-1.19-5.06,1.77-8.26,6.81-7.35.44.08.89.09,1.33.15,8.82,1.14,17.65,2.24,26.47,3.44,8.37,1.13,16.73,2.4,25.11,3.53,10,1.35,19.94,2.58,29.9,3.9,9,1.19,18,2.44,27,3.65,9.7,1.31,19.4,2.6,29.09,3.93,7.23,1,14.45,2,21.68,3,9.08,1.23,18.15,2.54,27.26,3.55,5.61.63,11.15,2.59,16.92,1.31,7.69,1.94,14.23-.36,19.83-5.64,5-4.72,6.88-10.86,7.6-17.53.29-2.68-.14-5.56,1.56-8,.45,0,.9,0,1.34,0q23.38,3,46.75,6c4.78.62,7.13-.55,9.36-4.93L550,493C550,511.28,549.91,529.54,550,547.8Z"/><path class="f6ad8548-66ab-42ff-92bf-20149a4ac094" d="M.07,237.41c10.13-3.09,20.06-6.76,30-10.41,1-.37,2-.62,3.06-.93,1.6,8.39,4.87,16,10.84,22.22.61.64,1,1.78,2.23,1.54v-.06c-.05.07-.14.15-.13.22a2.35,2.35,0,0,0,.14.45,18.55,18.55,0,0,0,5.44,4.24c3.54,3.23,7.92,4.72,12.39,6-.06.79-.65,1.23-1.13,1.76a96.86,96.86,0,0,0-10,13.19c-8.51,13.29-15.37,27.43-21.93,41.73s-13.15,28.76-18.88,43.51c-1,2.47-.34,3.8,1.6,5.14,1.44,1,3.16,1.66,4.22,3.17a12,12,0,0,1-.26,1.59c-3.67,12.58-6.89,25.27-9.34,38.16a208.7,208.7,0,0,0-3.76,31.27c-.36,9.63-1,19.28-.65,28.93.15,3.74.55,7.46.52,11.23a215,215,0,0,0,2.16,32.26C7.41,518.72,9,524.56,13.73,529a2.26,2.26,0,0,1,.66,2.44,19.72,19.72,0,0,0-.28,6.93c.21,2.9.33,6,3.75,7.33L17.25,550c-5.27,0-10.55,0-15.83,0C.3,550-.17,549.8.05,548.62a6.65,6.65,0,0,0,0-1.34Z"/><path class="ac9013e6-3ad5-4644-b7b3-602ae96a9068" d="M491.41,492.48c-1.7,2.42-1.27,5.3-1.56,8-.72,6.67-2.6,12.81-7.6,17.53-5.6,5.28-12.14,7.58-19.83,5.64,1-.87,2.28-1,3.43-1.41,8.84-3.43,14.57-9.48,15.92-19.1.84-6,1.45-12,2.23-18,1.19-9.18,2.47-18.34,3.65-27.51,1.15-8.92,2.2-17.84,3.33-26.76,1.19-9.44,2.46-18.87,3.64-28.31.83-6.62,1.55-13.26,2.37-19.88,1-7.86,2-15.7,3-23.56q1.44-11.52,2.84-23c.85-6.88,1.68-13.77,2.53-20.65q1.44-11.79,2.9-23.58t3-23.83q1.26-10.05,2.51-20.12c1-7.68,1.93-15.36,2.85-23.05,1-8.21,1.88-16.44,2.87-24.65,1-8,2-16.06,3-24.09.86-6.89,1.68-13.78,2.54-20.66.75-6,1.55-12,2.28-18,1-8,1.85-16.09,2.84-24.12,1.16-9.45,2.4-18.88,3.6-28.32,1-8,2-16.06,3.1-24.09,1.19-9-.13-17.17-7.4-23.62-2.36-2.09-5.28-3.3-7.52-5.49,12-.14,22.49,10.16,22.59,22.17.06,8.06-1.47,15.94-2.41,23.89-.75,6.36-1.63,12.7-2.43,19.05s-1.53,12.54-2.3,18.8q-1,8.07-2,16.15c-.79,6.35-1.62,12.7-2.39,19.05-.84,6.89-1.62,13.78-2.45,20.66-.75,6.27-1.53,12.54-2.3,18.81q-1.26,10-2.53,20.11c-1,8-2.06,16.05-3,24.08-.81,6.53-1.52,13.07-2.33,19.6-1.15,9.35-2.37,18.7-3.54,28.05-.8,6.44-1.53,12.89-2.36,19.33-.71,5.47-.88,11-2,16.41-.71,3.37.45,6.58,1.27,9.74,4.65,18,9.44,36.07,14.15,54.11q5.28,20.18,10.48,40.38c3.36,13.13,6.66,26.28,10,39.42.22.89.46,1.75,1.57,1.92V493l-1.09.53a21.94,21.94,0,0,0-.33-6.84c-5.17-19.67-10.54-39.3-15.51-59-6.2-24.67-12.76-49.24-19.18-73.86-1.17-4.45-2.39-8.88-3.58-13.33a161.45,161.45,0,0,0-2.73,16.88c-.87,7-1.93,13.93-2.53,20.93-.36,4.21-2,8.38-.69,12.69a1.15,1.15,0,0,0-1,1c-.36,2.65-.79,5.28-1.1,7.93-1.29,11.21-2.47,22.44-3.85,33.65-1.47,12-3.11,24-4.69,35.95-.18,1.36.31,1.87,1.72,2,3.35.38,6.68.92,10.06,1.23,6.63.61,13.22,1.64,19.83,2.49.53.44.3.93.14,1.45-.84,2.65-5.37,4.9-9,4.4l-21.85-3.06c-1.27-.18-2,.07-2.15,1.55-.27,2.83-.67,5.63-1.05,8.44C491.18,489.56,490.44,491,491.41,492.48Z"/><path class="bb6271ca-1128-494f-9a29-eb7bf002471e" d="M222.38,550H59.14l-1.26-6c2.24-1.41,4.06-3.1,4.12-6,0-1.14.22-2.27.34-3.41,9.5,2.18,19.07,4,28.66,5.69,18.47,3.31,37,4.87,55.77,3.25,24.9-2.16,48.94-8.33,72.69-15.77,1.1-.34,2.14-.95,3.36-.79C222.81,534.56,222.84,542.26,222.38,550Z"/><path class="a37c28a8-90c5-4718-88a4-a0c9cf085a05" d="M222.38,550c.46-7.69.43-15.39.44-23.08.94-.46,1.87-.93,2.81-1.37,2.3-1.07,4.32-2.36,4.52-5.23a21,21,0,0,0,6.07-.2,102.57,102.57,0,0,0,13-3.49A138.41,138.41,0,0,1,251.92,550H241.71c.09-.7.12-1.41.26-2.11.61-3.13,1.28-6.25,1.86-9.39.13-.66.27-1.57-.68-1.77s-1.26.47-1.4,1.24q-1.09,6-2.18,12H229.36a12.32,12.32,0,0,0-.06-1.61c-.86-5.81-2.31-11.53-2.62-17.42,0-.54-.07-1.15-.76-1.22s-.9.49-1.11,1a5.28,5.28,0,0,0,0,2.62c.56,5.58,2.59,10.95,2.45,16.63Z"/><path class="a37c28a8-90c5-4718-88a4-a0c9cf085a05" d="M57.88,543.92l1.26,6H17.25c.21-1.43.41-2.85.61-4.28,3.77-.14,7.41.94,11.16,1.07C38.77,547.07,48.44,546.68,57.88,543.92Z"/><path class="b1b01abb-98ba-42c6-83dc-2f52b76eda61" d="M227.22,550c.14-5.68-1.89-11.05-2.45-16.63a5.28,5.28,0,0,1,0-2.62c.21-.51.47-1.05,1.11-1s.74.68.76,1.22c.31,5.89,1.76,11.61,2.62,17.42a12.32,12.32,0,0,1,.06,1.61Z"/><path class="b1b01abb-98ba-42c6-83dc-2f52b76eda61" d="M239.57,550q1.08-6,2.18-12c.14-.77.52-1.43,1.4-1.24s.81,1.11.68,1.77c-.58,3.14-1.25,6.26-1.86,9.39-.14.7-.17,1.41-.26,2.11Z"/><path class="bef5a881-f224-4b44-bc9e-25f7ae3081f5" d="M249.25,516.58a102.57,102.57,0,0,1-13,3.49,21,21,0,0,1-6.07.2,60.27,60.27,0,0,0,.49-13.22c5.58-.09,10.87-1.73,16.19-3.14,1-.26,2.14-.57,1.69-1.89s-1.56-.81-2.5-.48a65.6,65.6,0,0,1-15.37,3.21c-.1-2.32-.2-4.64-.32-7-.25-5-.47-9.76-4.23-13.91-2.83-3.13-3.62-7.51-3.71-11.81-.1-5,.83-10,1.35-14.94.48-4.62,1.79-9.27,1.49-13.82-1.13-16.67-2.85-33.3-4.18-49.95-.41-5.15-1-10.31-.55-15.5l.68-.26c3.16-.68,5.78-2.58,8.72-3.76.72,3,1,6.18,2.48,9.74a86.26,86.26,0,0,0,1.54-12.76c.1-4.4,1.61-8.66,1.29-13.1.16-.21.42-.41.45-.64,1-8.05,1.88-16.1,2.83-24.14.8-6.81,1.6-13.62,2.45-20.43.94-7.5,2-15,2.91-22.51.85-6.81,1.62-13.62,2.45-20.43,1-7.86,2-15.72,2.92-23.59.83-6.81,1.61-13.62,2.45-20.42,1-7.87,2-15.73,2.92-23.59,1-8.22,2-16.45,3-24.67.78-6.45,1.63-12.9,2.4-19.35.81-6.72,1.56-13.45,2.36-20.17s1.64-13.43,2.46-20.14c1.27-10.17,2.52-20.34,3.81-30.5,1.54-12.2,3.14-24.4,4.66-36.6,1-8,1.79-15.94,2.85-23.89,1.75-13,14.5-22,27.48-19.94,8.79,1.39,17.7,2,26.56,3,8.5.94,17,1.86,25.51,2.84,7,.8,14,1.68,21,2.5,6.11.71,12.22,1.42,18.33,2.05,1.86.19,3.75.09,5.63.12,3.05,1.52,6.44,1.1,9.66,1.52,10.84,1.42,21.72,2.56,32.59,3.76,8.83,1,17.69,1.81,26.52,2.8,10.52,1.17,21,2.46,31.53,3.65,5.38.61,10.79,1.09,16.17,1.73a50.35,50.35,0,0,1,5,1.06c2.24,2.19,5.16,3.4,7.52,5.49,7.27,6.45,8.59,14.59,7.4,23.62-1.07,8-2.07,16.06-3.1,24.09-1.2,9.44-2.44,18.87-3.6,28.32-1,8-1.87,16.08-2.84,24.12-.73,6-1.53,12-2.28,18-.86,6.88-1.68,13.77-2.54,20.66-1,8-2.07,16.05-3,24.09-1,8.21-1.89,16.44-2.87,24.65-.92,7.69-1.9,15.37-2.85,23.05q-1.26,10.06-2.51,20.12-1.5,11.92-3,23.83t-2.9,23.58c-.85,6.88-1.68,13.77-2.53,20.65q-1.41,11.54-2.84,23c-1,7.86-2.05,15.7-3,23.56-.82,6.62-1.54,13.26-2.37,19.88-1.18,9.44-2.45,18.87-3.64,28.31-1.13,8.92-2.18,17.84-3.33,26.76-1.18,9.17-2.46,18.33-3.65,27.51-.78,6-1.39,12-2.23,18-1.35,9.62-7.08,15.67-15.92,19.1-1.15.45-2.45.54-3.43,1.41-5.77,1.28-11.31-.68-16.92-1.31-9.11-1-18.18-2.32-27.26-3.55-7.23-1-14.45-2-21.68-3-9.69-1.33-19.39-2.62-29.09-3.93-9-1.21-18-2.46-27-3.65-10-1.32-19.94-2.55-29.9-3.9-8.38-1.13-16.74-2.4-25.11-3.53-8.82-1.2-17.65-2.3-26.47-3.44-.44-.06-.89-.07-1.33-.15-5-.91-8,2.29-6.81,7.35.23,1,.35,1.94.61,2.88C252.44,510.87,252.34,514.08,249.25,516.58Zm195.41-16.15c4.37.93,8.72,1.48,12.87-.84.87-.49,2.1-.83,1.53-2.31a15.09,15.09,0,0,1,.23-2.94c.94-3.6.79-6.86-1.65-10-1-1.32-1.3-3.3-1.67-5a89.73,89.73,0,0,1-1.37-23.24,292.55,292.55,0,0,0-5.24-70.69c-.3-4.58-1.31-9.07-2-13.6a145.28,145.28,0,0,0,29.94-6.88,3.66,3.66,0,0,0,2.84-3.58c1.25-11.25,2.7-22.49,4-33.73,1.19-10,2.33-20,3.49-30,.53-.47.46-1.11.53-1.73.91-8,1.8-15.92,2.77-23.87,1.19-9.71,2.46-19.41,3.65-29.13,1.15-9.45,2.18-18.92,3.35-28.37,1-7.94,2.11-15.87,3.11-23.82s1.84-15.73,2.81-23.59c1-8,2.09-16.06,3.07-24.09,1.16-9.45,2.19-18.92,3.36-28.37,1-7.86,2.14-15.69,3.07-23.56,1-8.3,1.84-16.62,3.14-24.89,1.27-8.05-3.93-16.31-12.46-16.74-4.79-.25-9.55-1.08-14.32-1.66l-21.19-2.57c-6.8-.83-13.6-1.68-20.4-2.49q-12.2-1.47-24.4-2.86c-6.89-.8-13.79-1.55-20.69-2.35-8.48-1-17-2-25.44-3-6.9-.81-13.8-1.52-20.69-2.35-8-1-16.07-2-24.1-3-7.07-.87-14.17-1.49-21.19-2.6-8.82-1.39-15.75,2.83-17.16,11.21-1,6-1.54,12-2.3,18-1,8-2,16.07-3,24.1s-1.92,16.09-2.89,24.13q-1.23,10.2-2.48,20.4c-.77,6.27-1.59,12.54-2.33,18.81-1,8.22-1.88,16.45-2.87,24.66-1,8-2.08,16.06-3,24.1-1,8.31-1.8,16.63-2.81,24.94-1.34,11-2.81,22.06-4.2,33.1q-1.44,11.25-2.82,22.51-1.55,12.45-3.07,24.9-1.5,12.19-3,24.38c-.82,6.8-1.61,13.61-2.42,20.41s-1.61,13.61-2.42,20.41-1.61,13.61-2.42,20.42-1.6,13.6-2.42,20.41c-.79,6.62-1.61,13.25-2.41,19.87-.81,6.8-1.74,13.6-2.38,20.41-.61,6.56-2.07,13-1.93,19.67a11.74,11.74,0,0,0,7.26,10.39c5.33,2,11,1.76,16.54,2.64,7.47,1.18,15,2.05,22.49,3,6.53.85,13,2,19.6,2.41a3.78,3.78,0,0,0,2,.56q26.46,3.56,52.91,7.12Q404.41,494.91,444.66,500.43Zm19.81-11a1.33,1.33,0,0,0-1.45-1.19c-.75,0-1.17.39-1.09,1.13a1.41,1.41,0,0,0,1.45,1.23C464.15,490.69,464.42,490.14,464.47,489.46Z"/><path class="a4ce7120-beef-43a4-8ab9-d7f581249e5b" d="M64,260.7c-4.47-1.3-8.85-2.79-12.39-6a15.44,15.44,0,0,0-.9-5,52,52,0,0,1-.88-23.07c2.05-10.27,7.48-18.67,14.35-26.26a74.72,74.72,0,0,0,17.55-33,57.77,57.77,0,0,1,6.44-15.27,71.09,71.09,0,0,0,7.06-16.18c2.13-7.47,3.24-15.22,6-22.51,4.08-10.8,10.56-19.64,21.13-24.93a3.28,3.28,0,0,0,1.86-3.22.83.83,0,0,1,.27,0c7.21,1.6,13.1-1.25,19.38-4.58,24.26-12.9,50.79-9.59,70.72,9.2,12.12,11.43,18.22,25.86,16.47,43-1.24,4.75-2.83,9.27-7.55,11.81-.86.47-.62,1.39-.56,2.19a64.9,64.9,0,0,1-1.07,16.81c-2.15,10.83-3,21.62.79,32.29,1.36,3.79,2.74,7.56,4.12,11.34a56.9,56.9,0,0,1,3.95,18.54c.35,20.68-14.22,35.12-32,37.11-2.3-2.1-4.49-4.35-6.93-6.26a59.15,59.15,0,0,0-16.8-9.64,24.9,24.9,0,0,0-9.51-3.39l-.16-.78q.06-4.95.14-9.9c5.22.85,10.49,1.47,15.74.57,18.9-3.25,31.09-15.68,34.44-35.22a37.55,37.55,0,0,0,.1-14.56l-.24-8.56a40,40,0,0,0,.87-11.8l0-1.69a13,13,0,0,0,.06-6.84c0-1.49,0-3,0-4.47a11.48,11.48,0,0,0-.22-4.13,2.14,2.14,0,0,0-2.44-2.19c-.88,0-1.43-.68-2.12-1.06a16.81,16.81,0,0,0-12.88-1.63l-1.08-.68c.15-1.31.37-2.62.45-3.93a59.87,59.87,0,0,0-4.34-26.24c-5-12.23-12.83-21.83-25.36-26.94-1.64-.67-3.94-2.64-5,.14-1,2.59,1.87,3,3.55,3.75a39.45,39.45,0,0,1,16.89,13.64c6.73,9.47,9.84,20.14,10.09,31.7.05,2.31-.27,4.66.47,6.93a4.34,4.34,0,0,1-4.58,1.57,119,119,0,0,0-13.06-1.13c-3.54-.2-4.83-1.8-5-5.32a51.49,51.49,0,0,0-2.7-15.52c-.28-.78-.23-1.84-1.34-2.14-.9.66-.61,1.64-.67,2.48a37.59,37.59,0,0,1-2.43,10.68c-3.33,8.54-4.26,9.14-13.44,9-6.11-.13-6.09-.15-6.31-6.14-.09-2.58-.4-5.15-.62-7.72-.77.46-.91.86-1,1.28-.93,7.66-2.26,15.22-5.31,22.36s-6.48,13.77-12.16,19.08c-2.31,2.16-2.89,2.07-5-.17a19.56,19.56,0,0,0-14.59-6.85c-4.28-.08-7.43,2.2-10.71,4.37a3,3,0,0,1,.76-2.49c3.57-5.23,5.79-11.06,7.8-17,2.49-7.38,3.71-15.09,5.83-22.57,3.77-13.27,8.78-25.66,22.57-31.84a1.86,1.86,0,0,0,1.08-2,2,2,0,0,0-1.44-1.77,3.92,3.92,0,0,0-2.81.67,36.21,36.21,0,0,0-15.94,15c-4.91,8.54-7.69,17.88-9.75,27.42-2.28,10.55-5.34,20.78-10.93,30.1a71,71,0,0,0-7.62,18.25,43.42,43.42,0,0,1-4.93,11.26c-3.68,6.07-8.83,11-12.85,16.81-5.37,7.77-8.67,16.17-8.78,25.71-.1,9.39,3.19,17.66,8.2,25.38A8.89,8.89,0,0,1,64,260.7ZM215.31,132c0-1.05.06-2,0-3s-.29-2.12-.41-3.18c-2.41-21.91-14.19-36.68-34.36-45a35.31,35.31,0,0,0-6.46-1.71c-1.16-.23-2.45-.13-2.69,1.46s.62,2.13,2,2.32a3,3,0,0,1,.52.12c23.64,6.76,37.78,26.18,37.18,51.33,0,1.42-.34,2.84-.26,4.25.06,1.09.59,2.17,2,2.1a2.09,2.09,0,0,0,2-2.1A27.77,27.77,0,0,0,215.31,132Z"/><path class="f6ad8548-66ab-42ff-92bf-20149a4ac094" d="M198.82,262.86c17.74-2,32.31-16.43,32-37.11a56.9,56.9,0,0,0-3.95-18.54c-1.38-3.78-2.76-7.55-4.12-11.34-3.84-10.67-2.94-21.46-.79-32.29A64.9,64.9,0,0,0,223,146.77c-.06-.8-.3-1.72.56-2.19,4.72-2.54,6.31-7.06,7.55-11.81,5.3-2.34,10.61-4.66,15.89-7,5.94-2.67,11.86-5.39,17.79-8.09-.82,6.71-1.66,13.43-2.46,20.14S260.77,151.23,260,158c-.77,6.45-1.62,12.9-2.4,19.35-1,8.22-2,16.45-3,24.67-1,7.86-2,15.72-2.92,23.59-.84,6.8-1.62,13.61-2.45,20.42-1,7.87-2,15.73-2.92,23.59-.83,6.81-1.6,13.62-2.45,20.43-.94,7.51-2,15-2.91,22.51-.85,6.81-1.65,13.62-2.45,20.43-1,8-1.87,16.09-2.83,24.14,0,.23-.29.43-.45.64a2.94,2.94,0,0,1-.41-.67c-4.87-15.42-9.68-30.86-14.62-46.25-3.65-11.4-7.42-22.76-12.51-33.64C205.27,272,202,267.51,198.82,262.86Z"/><path class="a4ce7120-beef-43a4-8ab9-d7f581249e5b" d="M46.2,249.83c-1.25.24-1.62-.9-2.23-1.54-6-6.25-9.24-13.83-10.84-22.22C30.66,209.84,36.57,196.69,48,185.5c4.71-4.63,9.67-9,13.37-14.6,5.31-8,6.61-17.06,7-26.34.46-11.46,2-22.71,7.73-32.83C85.4,95.19,99.54,86,118.74,85c-.06,1-1,1.14-1.66,1.54a39.27,39.27,0,0,0-9.29,7.63A55.91,55.91,0,0,0,95,119.54c-2.44,10.83-4.92,21.63-10.79,31.28a55.45,55.45,0,0,0-7,16.49c-2.86,12.54-9.54,22.79-17.92,32.21-10.68,12-15.78,25.9-14.16,42.11C45.36,244.39,46.25,247.05,46.2,249.83Z"/><path class="b1b01abb-98ba-42c6-83dc-2f52b76eda61" d="M46.2,249.83c0-2.78-.84-5.44-1.11-8.2-1.62-16.21,3.48-30.11,14.16-42.11,8.38-9.42,15.06-19.67,17.92-32.21a55.45,55.45,0,0,1,7-16.49C90,141.17,92.51,130.37,95,119.54a55.91,55.91,0,0,1,12.84-25.33,39.27,39.27,0,0,1,9.29-7.63c.66-.4,1.6-.5,1.66-1.54a16,16,0,0,1,5.52.19,3.28,3.28,0,0,1-1.86,3.22c-10.57,5.29-17.05,14.13-21.13,24.93-2.76,7.29-3.87,15-6,22.51a71.09,71.09,0,0,1-7.06,16.18,57.77,57.77,0,0,0-6.44,15.27,74.72,74.72,0,0,1-17.55,33c-6.87,7.59-12.3,16-14.35,26.26a52,52,0,0,0,.88,23.07,15.44,15.44,0,0,1,.9,5,18.55,18.55,0,0,1-5.44-4.24c.2-.23.49-.46,0-.67Z"/><path class="bef5a881-f224-4b44-bc9e-25f7ae3081f5" d="M504.31,391c-1.34-4.31.33-8.48.69-12.69.6-7,1.66-14,2.53-20.93a161.45,161.45,0,0,1,2.73-16.88c1.19,4.45,2.41,8.88,3.58,13.33,6.42,24.62,13,49.19,19.18,73.86,5,19.74,10.34,39.37,15.51,59a21.94,21.94,0,0,1,.33,6.84c-2.23,4.38-4.58,5.55-9.36,4.93q-23.37-3-46.75-6c-.44-.05-.89,0-1.34,0-1-1.46-.23-2.92,0-4.4.38-2.81.78-5.61,1.05-8.44.14-1.48.88-1.73,2.15-1.55l21.85,3.06c3.58.5,8.11-1.75,9-4.4.16-.52.39-1-.14-1.45-.32-1.56-.57-3.15-1-4.7q-6-24.12-12.11-48.23Q508.24,406.68,504.31,391Z"/><path class="a8a38b45-6868-4f15-83ed-1c83e6b095e5" d="M198.82,262.86c3.14,4.65,6.45,9.17,8.85,14.3,5.09,10.88,8.86,22.24,12.51,33.64,4.94,15.39,9.75,30.83,14.62,46.25a2.94,2.94,0,0,0,.41.67c.32,4.44-1.19,8.7-1.29,13.1l-4,3c-2.94,1.18-5.56,3.08-8.71,3.75.4-13.87.11-27.7-2.35-41.4-2.61-14.54-7.93-28.19-13.85-41.63-1.4-3.19-2.82-6.38-4.29-9.54-.28-.6-.69-1.51-1.55-1.11s-.42,1.25-.21,1.91a18.74,18.74,0,0,0,.78,1.71c2.21,5,4.46,10,6.63,15,8.42,19.42,13.14,39.61,13,60.89,0,4,.32,8,.33,12.05a2.66,2.66,0,0,0,.83,2.43c-.45,5.19.14,10.35.55,15.5,1.33,16.65,3,33.28,4.18,49.95.3,4.55-1,9.2-1.49,13.82-.52,5-1.45,9.91-1.35,14.94.09,4.3.88,8.68,3.71,11.81,3.76,4.15,4,8.93,4.23,13.91.12,2.32.22,4.64.32,7a3.76,3.76,0,0,0,0,2.3,60.27,60.27,0,0,1-.49,13.22c-.2,2.87-2.22,4.16-4.52,5.23-.94.44-1.87.91-2.81,1.37-1.22-.16-2.26.45-3.36.79-23.75,7.44-47.79,13.61-72.69,15.77-18.74,1.62-37.3.06-55.77-3.25-9.59-1.71-19.16-3.51-28.66-5.69-.69-4.11-1.66-8.17,1.46-11.91,1-1.23,1.4-3.09,1.83-4.72,2.12-8,2.41-16.25,2.61-24.48.27-11.44,0-22.89.38-34.34.67-17.87,3.88-35.34,7.55-52.76a24.15,24.15,0,0,0,13.77-15.8c.31-.74.65-1.47.92-2.22a206.49,206.49,0,0,0,7.74-30.08,368.38,368.38,0,0,0,5.57-38.4c.11-1.26,1-3.51-.7-3.65-1.4-.11-1.15,2.28-1.26,3.6a372.61,372.61,0,0,1-6.88,44.7,252.59,252.59,0,0,1-7.07,26.1c-.8.77-1.81.63-2.77.63-2.21,0-4.42-.05-6.63-.08-.79-.16-1.56-.37-2.36-.49a149.56,149.56,0,0,1-39.44-11.38c-6.63-2.92-12.81-6.64-19.19-10-1.06-1.51-2.78-2.18-4.22-3.17-1.94-1.34-2.55-2.67-1.6-5.14,5.73-14.75,12.29-29.13,18.88-43.51s13.42-28.44,21.93-41.73a96.86,96.86,0,0,1,10-13.19c.48-.53,1.07-1,1.13-1.76a8.89,8.89,0,0,0,2.8-2.26,7.29,7.29,0,0,0,3.19-2.7c1.09,0,1.78-.77,2.61-1.26,11.37-6.66,23.66-10.86,36.43-13.82a5.73,5.73,0,0,0,1,3.81,65.58,65.58,0,0,0,15.71,19.21c7.4,6.35,15.45,11.58,25.54,12.68s20.87-3.51,23-16.3c.71-4.36.62-8.73.81-13.1a59.15,59.15,0,0,1,16.8,9.64C194.33,258.51,196.52,260.76,198.82,262.86Z"/><path class="bef5a881-f224-4b44-bc9e-25f7ae3081f5" d="M76.17,406.28C72.5,423.7,69.29,441.17,68.62,459c-.42,11.45-.11,22.9-.38,34.34-.2,8.23-.49,16.46-2.61,24.48-.43,1.63-.8,3.49-1.83,4.72-3.12,3.74-2.15,7.8-1.46,11.91-.12,1.14-.31,2.27-.34,3.41-.06,2.92-1.88,4.61-4.12,6-9.44,2.76-19.11,3.15-28.86,2.82-3.75-.13-7.39-1.21-11.16-1.07-3.42-1.32-3.54-4.43-3.75-7.33a19.72,19.72,0,0,1,.28-6.93,2.26,2.26,0,0,0-.66-2.44C9,524.56,7.41,518.72,6.54,512.64a215,215,0,0,1-2.16-32.26c0-3.77-.37-7.49-.52-11.23-.38-9.65.29-19.3.65-28.93A208.7,208.7,0,0,1,8.27,409c2.45-12.89,5.67-25.58,9.34-38.16a12,12,0,0,0,.26-1.59c6.38,3.37,12.56,7.09,19.19,10A149.56,149.56,0,0,0,76.5,390.59c.8.12,1.57.33,2.36.49C78.1,396.17,76.65,401.14,76.17,406.28ZM34.68,531.72a74.68,74.68,0,0,0,22.69-2.67c1.07-.28,2.37-.58,2-1.95s-1.61-.69-2.56-.42a76.69,76.69,0,0,1-20.32,2.86,108.43,108.43,0,0,1-17.08-1c-.89-.13-2.24-.51-2.51.79-.32,1.53,1.15,1.24,2,1.42C23.88,531.78,29,531.82,34.68,531.72Z"/><path class="a4ce7120-beef-43a4-8ab9-d7f581249e5b" d="M46.2,249.77c.5.21.21.44,0,.67a2.35,2.35,0,0,1-.14-.45C46.06,249.92,46.15,249.84,46.2,249.77Z"/><path class="bd337005-e24d-485b-9317-37e30cba74d2" d="M504.31,391q3.93,15.69,7.87,31.38,6,24.12,12.11,48.23c.38,1.55.63,3.14,1,4.7-6.61-.85-13.2-1.88-19.83-2.49-3.38-.31-6.71-.85-10.06-1.23-1.41-.15-1.9-.66-1.72-2,1.58-12,3.22-24,4.69-35.95,1.38-11.21,2.56-22.44,3.85-33.65.31-2.65.74-5.28,1.1-7.93A1.15,1.15,0,0,1,504.31,391Z"/><path class="a7f62bd2-0368-40b5-9577-88aebe6c825a" d="M487.67,297.54c-1.16,10-2.3,20-3.49,30-1.34,11.24-2.79,22.48-4,33.73a3.66,3.66,0,0,1-2.84,3.58,145.28,145.28,0,0,1-29.94,6.88c-1,0-1.95,0-2.92-.09-1.9-.12-3.94.41-5.53-1.17l-1.74-6.73A321.71,321.71,0,0,1,428.5,314c-.26-2.67-.41-5.34-.72-8-.08-.69,0-1.89-1.17-1.76-.92.11-.67,1.12-.68,1.8a28.72,28.72,0,0,0,.09,3.22,395.52,395.52,0,0,0,5.9,39.94c1.52,7.23,2.83,14.53,5.76,21.39,1.61,6.73,5.81,11.4,11.68,14.76a292.55,292.55,0,0,1,5.24,70.69A89.73,89.73,0,0,0,456,479.29c.37,1.74.65,3.72,1.67,5,2.44,3.15,2.59,6.41,1.65,10a15.09,15.09,0,0,0-.23,2.94c-2.36.43-4.73.77-7.06,1.32s-5.14.24-7.34,1.83q-40.26-5.49-80.51-11-26.44-3.6-52.91-7.12a3.72,3.72,0,0,1-2-.56c-.26-11,.75-22,1.79-32.92,1.14-12.18,2.33-24.37,3.5-36.55l1.77-18.13q1.88-13.62,2.7-27.35c.39-6.75,1.08-13.5.53-20.28,1.36-1.28,1-3,1.07-4.55a118.18,118.18,0,0,1,6.33-36.79c3.59-10.32,8.28-20.16,12.75-30.1.33-.74,1.33-1.77.22-2.34-1.33-.68-1.5.86-1.86,1.64-2.28,5-4.5,9.93-6.74,14.9-7.48,16.62-12.54,33.81-12.29,52.26a5.66,5.66,0,0,1-.49,2.87L316.44,342l-1.14-5.28c.16-12,.57-24-4.19-35.33,2.41-3.47,3.95-7.39,5.91-11.09,5.2-9.89,9.76-20.14,16.32-29.26,1.81-2.53,3.75-5,5.64-7.45,2.62-1.41,4.25-4,6.68-5.65,5.19-3.55,10.32-7.2,16.47-9-.05,4.65-.15,9.3,1,13.87,1.44,5.64,4.64,9.8,10.15,12,6.78,2.66,13.39,1.54,19.83-1.14,10.36-4.3,18.37-11.61,25.12-20.37a21.42,21.42,0,0,0,4.27-8,3.06,3.06,0,0,1,.8,0c11.82,3.48,23.51,7.28,33.76,14.44,1.08.65,1.73,1.87,3,2.25a4.72,4.72,0,0,0,2.33,2.27,5,5,0,0,0,.63,1.16c5.62,5.75,9.49,12.69,13.41,19.61C480.6,282.33,483.76,290.12,487.67,297.54Z"/><path class="ac9013e6-3ad5-4644-b7b3-602ae96a9068" d="M487.67,297.54c-3.91-7.42-7.07-15.21-11.21-22.52-3.92-6.92-7.79-13.86-13.41-19.61a4.85,4.85,0,0,1-.63-1.17c4-1.27,8.06-2.22,11.31-5.07a11.1,11.1,0,0,0,4.79-3.49c10.62-9.48,14.85-21.43,13-35.38-1.21-9.37-6.06-17.07-12.47-23.84a42.68,42.68,0,0,0-3.2-3.25c-10.57-9.1-14.82-20.84-14.79-34.53,0-9.55-1.35-18.92-5.54-27.65-8.06-16.77-21-26.68-39.87-28.33a13.52,13.52,0,0,0-4.83-.1c-9.71.9-19.18-.56-28.56-2.94-5.09-1.3-10.19-2.57-15.5-2.54a29.1,29.1,0,0,0-8.54.13c-15.71,2.25-29.41,8.49-39.26,21.29a31.77,31.77,0,0,0-5.79,28.18,11.63,11.63,0,0,0,5.17,7.54,2.11,2.11,0,0,1,1.21,2.32,82.63,82.63,0,0,0,1.3,19,54.14,54.14,0,0,1-3.33,30.77,96.33,96.33,0,0,0-5.65,16.18c-3.5,15.34,2,28.81,15,36.73a38.92,38.92,0,0,0,12,4.36c-1.89,2.48-3.83,4.92-5.64,7.45-6.56,9.12-11.12,19.37-16.32,29.26-2,3.7-3.5,7.62-5.91,11.09-1.52-.2-1.77-1.24-1.75-2.52,0-2.32,0-4.64,0-6.95,0-1.67-.63-2.52-2.37-2.43-.8,0-1.6,0-2.4,0a32,32,0,0,0,4.47-10.82c1.25-5.86.62-11.72,0-17.57-.15-1.32-.47-2.53.56-3.77,3.53-4.28,3.52-11.59.09-15.92-2-2.5-5.29-3.12-7.34-1.38l-1.46.29a6.57,6.57,0,0,1-.68-.82c-3.09-5-8-6.93-13.56-4.91a33.85,33.85,0,0,0-15.8,12.32,11.09,11.09,0,0,0-1.85,5c-1,6.76.46,13.32,1.53,19.9.95,5.88,2.32,11.7,3.51,17.55-.81,1.1-2.15.66-3.21,1.08-1.28.52-2.26,1.12-2.25,2.62,0,2.06-.27,4.19.2,6.15a4.37,4.37,0,0,1-1,4.16c-3.52,4.28-4.39,9.41-5.14,14.68-1,7.11-.54,14.26-.85,21.38-.54,12.38-.57,24.83,1.42,37.14,2.43,15,13.61,24.76,28.85,25.1a36.16,36.16,0,0,0,17.34-3.93c2.3-1.17,4.6-2.36,6.9-3.54L314.5,412.3c-1.17,12.18-2.36,24.37-3.5,36.55-1,10.95-2.05,21.9-1.79,32.92-6.59-.43-13.08-1.56-19.61-2.41-7.5-1-15-1.85-22.49-3-5.51-.88-11.21-.66-16.54-2.64a11.74,11.74,0,0,1-7.26-10.39c-.14-6.64,1.32-13.11,1.93-19.67.64-6.81,1.57-13.61,2.38-20.41.8-6.62,1.62-13.25,2.41-19.87q1.23-10.22,2.42-20.41t2.42-20.42q1.22-10.2,2.42-20.41c.81-6.8,1.6-13.61,2.42-20.41q1.47-12.19,3-24.38,1.51-12.45,3.07-24.9,1.39-11.25,2.82-22.51c1.39-11,2.86-22.06,4.2-33.1,1-8.31,1.82-16.63,2.81-24.94.95-8,2.05-16.06,3-24.1,1-8.21,1.89-16.44,2.87-24.66.74-6.27,1.56-12.54,2.33-18.81q1.26-10.2,2.48-20.4c1-8,1.9-16.09,2.89-24.13s2-16.06,3-24.1c.76-6,1.3-12,2.3-18,1.41-8.38,8.34-12.6,17.16-11.21,7,1.11,14.12,1.73,21.19,2.6,8,1,16.06,2.06,24.1,3,6.89.83,13.79,1.54,20.69,2.35,8.48,1,17,2,25.44,3,6.9.8,13.8,1.55,20.69,2.35q12.21,1.41,24.4,2.86c6.8.81,13.6,1.66,20.4,2.49l21.19,2.57c4.77.58,9.53,1.41,14.32,1.66,8.53.43,13.73,8.69,12.46,16.74-1.3,8.27-2.15,16.59-3.14,24.89-.93,7.87-2.1,15.7-3.07,23.56-1.17,9.45-2.2,18.92-3.36,28.37-1,8-2.07,16.05-3.07,24.09-1,7.86-1.83,15.73-2.81,23.59S499,206.5,498,214.44c-1.17,9.45-2.2,18.92-3.35,28.37-1.19,9.72-2.46,19.42-3.65,29.13-1,7.95-1.86,15.91-2.77,23.87C488.13,296.43,488.2,297.07,487.67,297.54ZM293.8,108c0,.45,0,.89,0,1.34.17,4.27,3.71,6.18,7.46,4.12a22,22,0,0,0,5.52-4.19c3.24-3.45,6.45-6.92,9.78-10.28,7.3-7.35,14.61-14.69,22.2-21.75,5.43-5,10.52-10.46,16.08-15.35,3.49-3.06,6.6-6.51,10.22-9.44a25.23,25.23,0,0,0,6.24-6.58c1.5-2.55.48-4.29-2.52-4.43a24.58,24.58,0,0,0-15,4,197.27,197.27,0,0,0-24.59,19.28C319,73.91,308.9,83.24,300.13,93.88,296.74,98,293.86,102.35,293.8,108Z"/><path class="a75cbff1-09fd-4e38-bd10-1e5360aa1552" d="M220.5,377.86a2.66,2.66,0,0,1-.83-2.43c0-4-.36-8.05-.33-12.05.15-21.28-4.57-41.47-13-60.89-2.17-5-4.42-10-6.63-15a18.74,18.74,0,0,1-.78-1.71c-.21-.66-.59-1.54.21-1.91s1.27.51,1.55,1.11c1.47,3.16,2.89,6.35,4.29,9.54,5.92,13.44,11.24,27.09,13.85,41.63,2.46,13.7,2.75,27.53,2.35,41.4Z"/><path class="bb6271ca-1128-494f-9a29-eb7bf002471e" d="M438.91,370.5c1.59,1.58,3.63,1.05,5.53,1.17,1,.06,1.95.06,2.92.09.69,4.53,1.7,9,2,13.6-5.87-3.36-10.07-8-11.68-14.76Z"/><path class="bd337005-e24d-485b-9317-37e30cba74d2" d="M230.64,507.05a3.76,3.76,0,0,1,0-2.3A65.6,65.6,0,0,0,246,501.54c.94-.33,2.06-.82,2.5.48s-.73,1.63-1.69,1.89C241.51,505.32,236.22,507,230.64,507.05Z"/><path class="bb6271ca-1128-494f-9a29-eb7bf002471e" d="M444.66,500.43c2.2-1.59,4.89-1.25,7.34-1.83s4.7-.89,7.06-1.32c.57,1.48-.66,1.82-1.53,2.31C453.38,501.91,449,501.36,444.66,500.43Z"/><path class="f6ad8548-66ab-42ff-92bf-20149a4ac094" d="M229.9,373.84l4-3a86.26,86.26,0,0,1-1.54,12.76C230.94,380,230.62,376.88,229.9,373.84Z"/><path class="bd337005-e24d-485b-9317-37e30cba74d2" d="M464.47,489.46c-.05.68-.32,1.23-1.09,1.17a1.41,1.41,0,0,1-1.45-1.23c-.08-.74.34-1.15,1.09-1.13A1.33,1.33,0,0,1,464.47,489.46Z"/><path class="a37c28a8-90c5-4718-88a4-a0c9cf085a05" d="M216.51,150.32c0,1.49,0,3,0,4.47-1.14,1.68-.19,3.64-.75,5.39-4.25-6.84-9.81-8.43-15.28-4.25a12.21,12.21,0,0,0-5,8c-.1,1.33-.11,2.68-.32,4a15.53,15.53,0,0,0,2.66,11.22c2.38,3.62,7.33,5.44,10.94,3,2.86-1.57,5.13-3.6,5.66-7h1.09l.24,8.56a11.41,11.41,0,0,0-6.91,1.67c-5,3-5.11,8.45-.37,11.34a12.08,12.08,0,0,0,7.18,1.55c-3.35,19.54-15.54,32-34.44,35.22-5.25.9-10.52.28-15.74-.57a104,104,0,0,1-15.93-4.3c3.77,6.5,8.2,12.11,15.79,14.2.05.26.1.52.16.78-.72.94-.54,2-.55,3.1,0,2.59.15,5.2-.13,7.76-.49,4.48-1.65,8.7-6.55,10.46a14.63,14.63,0,0,1-7.93.18c-7.46-1.49-13.32-5.83-18.81-10.77-5-4.51-9.51-9.43-11.84-16,1.33-8.56,2.52-17.14,4.07-25.66.54-3-.88-5.06-1.66-7.57-1.35-4.33-4.2-2.11-6.6-2.08h-.27c-13.5.73-24.23-9.08-25.18-23-.16-5.27,1.81-9.77,5-13.85l.59-.73,0,0c3.28-2.17,6.43-4.45,10.71-4.37A19.56,19.56,0,0,1,121,168c2.07,2.24,2.65,2.33,5,.17,5.68-5.31,9.16-12.05,12.16-19.08s4.38-14.7,5.31-22.36c.05-.42.19-.82,1-1.28.22,2.57.53,5.14.62,7.72.22,6,.2,6,6.31,6.14,9.18.18,10.11-.42,13.44-9a37.59,37.59,0,0,0,2.43-10.68c.06-.84-.23-1.82.67-2.48,1.11.3,1.06,1.36,1.34,2.14a51.49,51.49,0,0,1,2.7,15.52c.18,3.52,1.47,5.12,5,5.32a119,119,0,0,1,13.06,1.13,4.34,4.34,0,0,0,4.58-1.57l3.27.95,1.08.68c-.95.94-1.57,2-.93,3.35s1.71,1.47,2.93,1.43a16.58,16.58,0,0,1,10.36,3c1.36.94,2.76,1.28,4.18.09Zm-29,43.06c.09.45.23.88.76,1,2.86.48,7.9-2.9,8.95-5.76,1.16-3.15-.56-5.48-2.26-7.56a22.47,22.47,0,0,1-5.26-14.26c0-1.61-.76-2-2.17-1.84-2.4-1.45-3.62.65-4,2-1.81,6-3.48,12-2.89,18.37C181.11,191.18,183,193.25,187.46,193.38Zm-34.82-27c0,1.6,0,3.21,0,4.82a13.62,13.62,0,0,0,11.66,13.32c1,.16,2.18.69,2.75-.78,3.61-.09,5.9-2.13,7.56-5.12a19.83,19.83,0,0,0,2.2-7.92c.27-2.72-1.56-5.56.47-8.17.11-.14-.07-.51-.14-.77a12,12,0,0,0-17.88-7.05C155.15,157.28,152,162.79,152.64,166.42Zm1.05,32.32a11.3,11.3,0,0,0,4.25-.52,7,7,0,0,0,5.22-4.9c.72-2.46-.69-4.63-2.28-6.28-3.83-4-13.25-5.11-18.13-2.45-3.6,2-4.2,5.94-1.52,9C144.55,197.47,149,198.38,153.69,198.74Zm11.69-59.86A21,21,0,0,0,151,145c-.89.87-1.81,2-1,3.29s2.22,1,3.34.41A30.25,30.25,0,0,1,169,145.09a2.53,2.53,0,0,0,2.7-2.14,2.7,2.7,0,0,0-1.47-2.91A8.72,8.72,0,0,0,165.38,138.88Zm-63.17,32.49c-1,0-1.93,0-2.09,1-.19,1.25,1,1.05,1.66,1.22a16.86,16.86,0,0,1,9.89,6.34c1.19,1.57,1.38,2.19-.84,2.83-2.67.76-4.4,2.92-5.74,5.29a1.52,1.52,0,0,0,.31,2.17c1,.63,1.3-.43,1.72-1.07a20.16,20.16,0,0,1,2.07-3.1c2.53-2.68,4.93-2.2,6.18,1.15.4,1.08.56,2.26,1,3.33.31.79.17,2.32,1.65,1.87,1.07-.32.8-1.49.59-2.34-1.54-6.22-4.43-11.66-9.54-15.69A13,13,0,0,0,102.21,171.37Zm83.65,36.54a18.39,18.39,0,0,0,10.53-3.39c.64-.45,1.69-1.12.72-2.13-.75-.77-1.49-.18-2.09.4a10.09,10.09,0,0,1-4.63,2.47c-5.52,1.4-10.39,0-14.71-3.55-.71-.59-1.55-1.3-2.32-.46s.2,1.61.81,2.17A17.3,17.3,0,0,0,185.86,207.91Z"/><path class="bef5a881-f224-4b44-bc9e-25f7ae3081f5" d="M119.77,238.35c2.33,6.52,6.82,11.44,11.84,16,5.49,4.94,11.35,9.28,18.81,10.77a14.63,14.63,0,0,0,7.93-.18c4.9-1.76,6.06-6,6.55-10.46.28-2.56.09-5.17.13-7.76,0-1.06-.17-2.16.55-3.1a24.9,24.9,0,0,1,9.51,3.39c-.19,4.37-.1,8.74-.81,13.1-2.09,12.79-12.92,17.39-23,16.3s-18.14-6.33-25.54-12.68a65.58,65.58,0,0,1-15.71-19.21,5.73,5.73,0,0,1-1-3.81A43.5,43.5,0,0,1,119.77,238.35Z"/><path class="b1b01abb-98ba-42c6-83dc-2f52b76eda61" d="M95.09,166.17c-3.15,4.08-5.12,8.58-5,13.85-1.26.29-1.15,1.49-1.46,2.34a66,66,0,0,1-3.6,8.06c-3.41,6.57-8.64,11.79-13,17.66C64,218.94,60.73,230.8,64.53,244.15c1.19,4.17,3.51,7.8,5.5,11.59a7.29,7.29,0,0,1-3.19,2.7c-5-7.72-8.3-16-8.2-25.38.11-9.54,3.41-17.94,8.78-25.71,4-5.81,9.17-10.74,12.85-16.81a43.42,43.42,0,0,0,4.93-11.26A71,71,0,0,1,92.82,161c5.59-9.32,8.65-19.55,10.93-30.1,2.06-9.54,4.84-18.88,9.75-27.42a36.21,36.21,0,0,1,15.94-15,3.92,3.92,0,0,1,2.81-.67,2,2,0,0,1,1.44,1.77,1.86,1.86,0,0,1-1.08,2c-13.79,6.18-18.8,18.57-22.57,31.84-2.12,7.48-3.34,15.19-5.83,22.57-2,5.95-4.23,11.78-7.8,17a3,3,0,0,0-.76,2.49l0,0Z"/><path class="b1b01abb-98ba-42c6-83dc-2f52b76eda61" d="M215.31,132a27.77,27.77,0,0,1-.5,6.59,2.09,2.09,0,0,1-2,2.1c-1.39.07-1.92-1-2-2.1-.08-1.41.22-2.83.26-4.25.6-25.15-13.54-44.57-37.18-51.33a3,3,0,0,0-.52-.12c-1.35-.19-2.19-.87-2-2.32s1.53-1.69,2.69-1.46a35.31,35.31,0,0,1,6.46,1.71c20.17,8.3,31.95,23.07,34.36,45,.12,1.06.33,2.11.41,3.18S215.31,130.91,215.31,132Z"/><path class="b1b01abb-98ba-42c6-83dc-2f52b76eda61" d="M197.77,140.63l-3.27-.95c-.74-2.27-.42-4.62-.47-6.93-.25-11.56-3.36-22.23-10.09-31.7a39.45,39.45,0,0,0-16.89-13.64c-1.68-.72-4.56-1.16-3.55-3.75,1.08-2.78,3.38-.81,5-.14,12.53,5.11,20.4,14.71,25.36,26.94a59.87,59.87,0,0,1,4.34,26.24C198.14,138,197.92,139.32,197.77,140.63Z"/><path class="b25f708a-6ed2-4c10-b172-d470f10f84af" d="M215.74,198.24a12.08,12.08,0,0,1-7.18-1.55c-4.74-2.89-4.6-8.33.37-11.34a11.41,11.41,0,0,1,6.91-1.67A37.55,37.55,0,0,1,215.74,198.24Z"/><path class="bb6271ca-1128-494f-9a29-eb7bf002471e" d="M165.42,242.79c-7.59-2.09-12-7.7-15.79-14.2a104,104,0,0,0,15.93,4.3Q165.49,237.84,165.42,242.79Z"/><path class="a34acc2e-e41a-4023-bbf6-36cd66804afb" d="M215.39,149.21c-1.42,1.19-2.82.85-4.18-.09a16.58,16.58,0,0,0-10.36-3c-1.22,0-2.35-.17-2.93-1.43s0-2.41.93-3.35a16.81,16.81,0,0,1,12.88,1.63c.69.38,1.24,1.05,2.12,1.06C214.29,145.75,216,147.15,215.39,149.21Z"/><path class="a34acc2e-e41a-4023-bbf6-36cd66804afb" d="M195.57,163.91a12.21,12.21,0,0,1,5-8c5.47-4.18,11-2.59,15.28,4.25l.69,1.45c0,.56,0,1.12,0,1.69-2,.06-1.25-2.21-2.44-2.81-3.72-6.35-9.94-6.9-14.45-1.22a15.69,15.69,0,0,0-2.05,3.4C197.1,163.64,196.67,164.21,195.57,163.91Z"/><path class="b29a871f-75b3-4129-89f3-b19dabc83fb5" d="M214,160.51c1.19.6.48,2.87,2.44,2.81a40,40,0,0,1-.87,11.8h-1.09c1.8-4.82,1.07-9.38-1.38-13.77Z"/><path class="b1b01abb-98ba-42c6-83dc-2f52b76eda61" d="M215.39,149.21c.57-2.06-1.1-3.46-1.54-5.21a2.14,2.14,0,0,1,2.44,2.19,11.48,11.48,0,0,1,.22,4.13Z"/><path class="b1b01abb-98ba-42c6-83dc-2f52b76eda61" d="M216.49,161.63l-.69-1.45c.56-1.75-.39-3.71.75-5.39A13,13,0,0,1,216.49,161.63Z"/><path class="a4ce7120-beef-43a4-8ab9-d7f581249e5b" d="M70,255.74c-2-3.79-4.31-7.42-5.5-11.59-3.8-13.35-.54-25.21,7.54-36.07,4.36-5.87,9.59-11.09,13-17.66a66,66,0,0,0,3.6-8.06c.31-.85.2-2.05,1.46-2.34,1,13.95,11.68,23.76,25.18,23h.27c2.4,0,5.25-2.25,6.6,2.08.78,2.51,2.2,4.61,1.66,7.57-1.55,8.52-2.74,17.1-4.07,25.66a43.5,43.5,0,0,0-10.7,2.31c-12.77,3-25.06,7.16-36.43,13.82C71.81,255,71.12,255.77,70,255.74Z"/><path class="a75cbff1-09fd-4e38-bd10-1e5360aa1552" d="M88.26,390.53a252.59,252.59,0,0,0,7.07-26.1,372.61,372.61,0,0,0,6.88-44.7c.11-1.32-.14-3.71,1.26-3.6,1.67.14.81,2.39.7,3.65a368.38,368.38,0,0,1-5.57,38.4,206.49,206.49,0,0,1-7.74,30.08c-.27.75-.61,1.48-.92,2.22Z"/><path class="bb6271ca-1128-494f-9a29-eb7bf002471e" d="M88.26,390.53l1.68,0a24.15,24.15,0,0,1-13.77,15.8c.48-5.14,1.93-10.11,2.69-15.2,2.21,0,4.42.07,6.63.08C86.45,391.16,87.46,391.3,88.26,390.53Z"/><path class="bd337005-e24d-485b-9317-37e30cba74d2" d="M34.68,531.72c-5.71.1-10.8.06-15.81-1-.87-.18-2.34.11-2-1.42.27-1.3,1.62-.92,2.51-.79a108.43,108.43,0,0,0,17.08,1,76.69,76.69,0,0,0,20.32-2.86c1-.27,2.17-.81,2.56.42s-.88,1.67-2,1.95A74.68,74.68,0,0,1,34.68,531.72Z"/><path class="af68a4c5-beae-49ff-99f0-90c0e293dca6" d="M473.73,249.17c-3.25,2.85-7.35,3.8-11.31,5.07A4.6,4.6,0,0,1,460.1,252c6.77-9.55,9.82-19.94,7.11-31.63-1.75-7.59-5.66-14.08-10.5-20-5.31-6.51-10-13.31-11.79-21.68a48.58,48.58,0,0,0-5.57-14.17c-5.62-9.73-8.69-20.29-10.88-31.22-1.88-9.41-4.58-18.58-10-26.69a30.31,30.31,0,0,0-12.79-11.1c-1-.44-2-.7-2.6.38s-.11,2,.9,2.69c.3.2.63.35.94.52a28.72,28.72,0,0,1,10.2,9.3c5,7.21,7.32,15.48,9.13,23.88C426.71,143.63,429.2,155,435.6,165a3.24,3.24,0,0,1,.54,2c-6.36-6.69-16.67-5.19-22,.08-3.76,3.72-4.13,3.63-7.77-.42a20.72,20.72,0,0,1-1.5-1.89,66.42,66.42,0,0,1-11.17-27.32c-.54-3.08-.93-6.2-1.39-9.3a11.81,11.81,0,0,0-1.24,5.68c-.39,7.66-.51,7.7-8.31,7.54a8.18,8.18,0,0,1-7.88-4.94A35.33,35.33,0,0,1,371,122.34c0-.78.38-1.77-.55-2.33-.73.23-.8.79-1,1.28-2.07,4.95-2.49,10.21-3.06,15.46-.41,3.83-1.37,4.78-5.17,5.05-4,.29-8-.23-12.05.38a3.68,3.68,0,0,1-3.83-2,5.27,5.27,0,0,0,.47-2.87,51.91,51.91,0,0,1,2.26-16.66c2.56-8.81,7.06-16.37,14.45-22a44.34,44.34,0,0,1,10.57-5.73c1.2-.48,2.15-1.19,1.63-2.6s-1.81-1.15-3-.83c-.25.07-.49.21-.74.3-14.23,5.29-22.43,16-26.73,30.05-1.65,5.42-2.05,11-2.49,16.65-.13,1.77.05,3.13,1.4,4.27l-1.49,1.14c-5.19-1.27-10.06-1.09-14,3.17-2.34-1.3-2,.86-2.11,1.83-.31,4.35-.44,8.7-.63,13.06a1.63,1.63,0,0,1,0,2.13,45.28,45.28,0,0,0,1,11.43l-.47,7c-.82,4.41-1.68,8.83-.39,13.3,1.34,16.32,14.54,30.46,30.64,33a58.13,58.13,0,0,0,14.91-.06c0,2.95,0,5.89,0,8.84l-.12.72-2,.41c-.25-.18-.43-.13-.57.14-2,.64-4.11.78-5.81,2.13-6.15,1.79-11.28,5.44-16.47,9-2.43,1.67-4.06,4.24-6.68,5.65a38.92,38.92,0,0,1-12-4.36c-13-7.92-18.53-21.39-15-36.73a96.33,96.33,0,0,1,5.65-16.18,54.14,54.14,0,0,0,3.33-30.77,82.63,82.63,0,0,1-1.3-19,2.11,2.11,0,0,0-1.21-2.32,11.63,11.63,0,0,1-5.17-7.54A31.77,31.77,0,0,1,319,108.54c9.85-12.8,23.55-19,39.26-21.29-.44,1.24-1.7,1.22-2.62,1.6a45.76,45.76,0,0,0-22,18.93c-5.85,9.45-7.65,19.9-7,30.86.09,1.54.6,2.79,2.34,2.54s1.86-1.66,1.69-3.11a43.07,43.07,0,0,1,1.79-18.25c5.08-15.62,15.86-25.53,31.59-30.09,1.43-.41,2.88-.64,2.75-2.61,5.31,0,10.41,1.24,15.5,2.54,9.38,2.38,18.85,3.84,28.56,2.94A3.46,3.46,0,0,0,413,96a36.11,36.11,0,0,1,9.79,7.8c6.71,7.57,9.86,16.73,11.62,26.4a77.69,77.69,0,0,0,8.38,24.44,56.5,56.5,0,0,1,5.52,13.62c1.9,7.34,4,14.63,8.08,21.19,3.46,5.56,7.86,10.4,11.64,15.71,6.67,9.38,9.78,19.66,8.5,31.27C476.05,240.79,474.48,244.87,473.73,249.17Z"/><path class="bef5a881-f224-4b44-bc9e-25f7ae3081f5" d="M304.62,289.49c.8,0,1.6,0,2.4,0,1.74-.09,2.41.76,2.37,2.43-.06,2.31,0,4.63,0,6.95,0,1.28.23,2.32,1.75,2.52,4.76,11.37,4.35,23.37,4.19,35.33-.15.22-.4.43-.42.66-.6,6.35-.59,12.76-1.71,19.07-.11.65-.17,1.58.88,1.61s1.06-.75,1.22-1.48A67.29,67.29,0,0,0,316.44,342l2.05,2.43.54,1.41c0,.34.12.59.5.66l0,0c.55,6.78-.14,13.53-.53,20.28q-.81,13.73-2.7,27.35c-2.3,1.18-4.6,2.37-6.9,3.54A36.16,36.16,0,0,1,292,401.64c-15.24-.34-26.42-10.09-28.85-25.1-2-12.31-2-24.76-1.42-37.14.31-7.12-.16-14.27.85-21.38.75-5.27,1.62-10.4,5.14-14.68a4.37,4.37,0,0,0,1-4.16c-.47-2-.19-4.09-.2-6.15,0-1.5,1-2.1,2.25-2.62,1.06-.42,2.4,0,3.21-1.08a3.41,3.41,0,0,0,2.85,1.17c1.61.05,3.21.22,4.81.35C289.41,291.52,297,290.56,304.62,289.49ZM286,306.25c3.76-.45,7.5-.68,11.15-1.41a73,73,0,0,0,8.93-2.75c.8-.26,1.94-.65,1.42-1.82-.43-1-1.36-.45-2.11-.19-1.17.41-2.34.85-3.53,1.21a59.27,59.27,0,0,1-28,1.22c-.9-.16-2.19-.6-2.5.72-.35,1.48,1.13,1.42,2,1.53C277.58,305.32,281.82,305.77,286,306.25Z"/><path class="af68a4c5-beae-49ff-99f0-90c0e293dca6" d="M457.08,249.73c-10.25-7.16-21.94-11-33.76-14.44a3.06,3.06,0,0,0-.8,0c-2.56-1.55-5.64-1.39-8.34-2.49l-.66-.05-1-.07c-.89-5.74-1.92-11.46-2.63-17.22-.57-4.55-2.2-9.24,1.48-13.49,1.1-1.28,1.85-1.81,3.49-1.46a18.46,18.46,0,0,0,10.31-.43c9.38-3.46,14.53-10.28,15.72-20.16,1.24,1.71,1.4,3.83,2.08,5.74,2.59,7.32,7.63,13,12.25,19C466.52,219.25,467.2,235.3,457.08,249.73Z"/><path class="bef5a881-f224-4b44-bc9e-25f7ae3081f5" d="M412.56,232.68l1,.07a.41.41,0,0,0,.66.05c2.7,1.1,5.78.94,8.34,2.49a21.42,21.42,0,0,1-4.27,8c-6.75,8.76-14.76,16.07-25.12,20.37-6.44,2.68-13.05,3.8-19.83,1.14-5.51-2.16-8.71-6.32-10.15-12-1.17-4.57-1.07-9.22-1-13.87,1.7-1.35,3.85-1.49,5.81-2.13l.57-.14,2-.41c.28,3.74-.1,7.5.54,11.23.84,4.84,3.69,8.39,7.44,8.74A21.46,21.46,0,0,0,388.79,255a48.75,48.75,0,0,0,17.58-12.41C409,239.68,411.68,236.7,412.56,232.68Z"/><path class="b1b01abb-98ba-42c6-83dc-2f52b76eda61" d="M457.08,249.73c10.12-14.43,9.44-30.48-1.82-45-4.62-6-9.66-11.7-12.25-19-.68-1.91-.84-4-2.08-5.74a18.37,18.37,0,0,0-4.79-12.9,3.24,3.24,0,0,0-.54-2c-6.4-10-8.89-21.35-11.35-32.73-1.81-8.4-4.13-16.67-9.13-23.88a28.72,28.72,0,0,0-10.2-9.3c-.31-.17-.64-.32-.94-.52-1-.65-1.6-1.54-.9-2.69s1.64-.82,2.6-.38a30.31,30.31,0,0,1,12.79,11.1c5.42,8.11,8.12,17.28,10,26.69,2.19,10.93,5.26,21.49,10.88,31.22a48.58,48.58,0,0,1,5.57,14.17c1.8,8.37,6.48,15.17,11.79,21.68,4.84,5.93,8.75,12.42,10.5,20,2.71,11.69-.34,22.08-7.11,31.63C458.81,251.6,458.16,250.38,457.08,249.73Z"/><path class="a75cbff1-09fd-4e38-bd10-1e5360aa1552" d="M319,345.84l-.54-1.41a5.66,5.66,0,0,0,.49-2.87c-.25-18.45,4.81-35.64,12.29-52.26,2.24-5,4.46-9.95,6.74-14.9.36-.78.53-2.32,1.86-1.64,1.11.57.11,1.6-.22,2.34-4.47,9.94-9.16,19.78-12.75,30.1A118.18,118.18,0,0,0,320.57,342c0,1.57.29,3.27-1.07,4.55l0,0Z"/><path class="a75cbff1-09fd-4e38-bd10-1e5360aa1552" d="M438.91,370.5l-1.23.1c-2.93-6.86-4.24-14.16-5.76-21.39a395.52,395.52,0,0,1-5.9-39.94,28.72,28.72,0,0,1-.09-3.22c0-.68-.24-1.69.68-1.8,1.13-.13,1.09,1.07,1.17,1.76.31,2.65.46,5.32.72,8a321.71,321.71,0,0,0,8.67,49.77Z"/><path class="bd337005-e24d-485b-9317-37e30cba74d2" d="M316.44,342a67.29,67.29,0,0,1-1.17,14.58c-.16.73-.31,1.5-1.22,1.48s-1-1-.88-1.61c1.12-6.31,1.11-12.72,1.71-19.07,0-.23.27-.44.42-.66Z"/><path class="af68a4c5-beae-49ff-99f0-90c0e293dca6" d="M415.69,92.7c18.83,1.65,31.81,11.56,39.87,28.33,4.19,8.73,5.55,18.1,5.54,27.65,0,13.69,4.22,25.43,14.79,34.53a42.68,42.68,0,0,1,3.2,3.25c6.41,6.77,11.26,14.47,12.47,23.84,1.81,13.95-2.42,25.9-13,35.38a50.73,50.73,0,0,0,1.26-24.08c-1.8-9.57-7-17.27-13-24.62s-11.16-15.52-13.26-25.13a75.39,75.39,0,0,0-7.72-20.22,63.32,63.32,0,0,1-6.42-17c-1-4.62-2-9.25-3.22-13.83a45.72,45.72,0,0,0-16.22-24.93C418.54,94.77,416.66,94.35,415.69,92.7Z"/><path class="a37c28a8-90c5-4718-88a4-a0c9cf085a05" d="M304.62,289.49c-7.6,1.07-15.21,2-22.91,1.36-1.6-.13-3.2-.3-4.81-.35a3.41,3.41,0,0,1-2.85-1.17c-1.19-5.85-2.56-11.67-3.51-17.55-1.07-6.58-2.55-13.14-1.53-19.9a11.09,11.09,0,0,1,1.85-5,33.85,33.85,0,0,1,15.8-12.32c5.54-2,10.47-.07,13.56,4.91a6.57,6.57,0,0,0,.68.82c-.49.64.61,3-1.33,1.9-6.23-3.41-11.6-.11-17.18,1.74-.58.19-1.59.45-1.07,1.45.37.71,1.08.36,1.67.15s1.19-.4,1.78-.59c3.39-1.11,6.71-2.47,10.41-2.22,4,.28,6.67,2.79,6.84,6.69-5.31-2.12-10.54-1.1-15.75.27-.76.2-2.14.25-1.73,1.49s1.51.48,2.33.26a31.55,31.55,0,0,1,10.59-1.17c5,.34,8.23,3.52,7.64,8.39-4.91-2.89-10.13-2.18-15.35-1.4-.68.1-1.64.12-1.43,1.12.16.78,1.05.54,1.62.48a48.89,48.89,0,0,1,7.46-.53c6.51.34,9.36,3.06,8.7,8.5a8.34,8.34,0,0,1-4.34,6.42c-.86.51-1.8,1.71-2.8.76a4.07,4.07,0,0,1-.83-3.54c.14-.93,1.15-1.06,1.6-1.71s.77-1.46,0-1.47a8.53,8.53,0,0,0-3.55,1c-1,.5-.28,1.36-.08,2.1,1.24,4.58,2.33,9.18.8,13.93-.23.72-.92,1.75.07,2.1s1.4-.79,1.73-1.62c.84-2.16.51-4.42.48-6.64a2.35,2.35,0,0,1,1.66-2.63c5.76-2.32,8.13-6.7,6.83-12.71a15.46,15.46,0,0,1-.41-4.77,8.86,8.86,0,0,0-1.37-5.38A26.07,26.07,0,0,1,302.36,240c2.05-1.74,5.37-1.12,7.34,1.38,3.43,4.33,3.44,11.64-.09,15.92-1,1.24-.71,2.45-.56,3.77.66,5.85,1.29,11.71,0,17.57A32,32,0,0,1,304.62,289.49Z"/><path class="bef5a881-f224-4b44-bc9e-25f7ae3081f5" d="M293.8,108c.06-5.62,2.94-10,6.33-14.09,8.77-10.64,18.84-20,29.08-29.15A197.27,197.27,0,0,1,353.8,45.45a24.58,24.58,0,0,1,15-4c3,.14,4,1.88,2.52,4.43a25.23,25.23,0,0,1-6.24,6.58c-3.62,2.93-6.73,6.38-10.22,9.44-5.56,4.89-10.65,10.3-16.08,15.35-7.59,7.06-14.9,14.4-22.2,21.75-3.33,3.36-6.54,6.83-9.78,10.28a22,22,0,0,1-5.52,4.19c-3.75,2.06-7.29.15-7.46-4.12C293.78,108.86,293.8,108.42,293.8,108Z"/><path class="b1b01abb-98ba-42c6-83dc-2f52b76eda61" d="M415.69,92.7c1,1.65,2.85,2.07,4.24,3.17a45.72,45.72,0,0,1,16.22,24.93c1.19,4.58,2.21,9.21,3.22,13.83a63.32,63.32,0,0,0,6.42,17,75.39,75.39,0,0,1,7.72,20.22c2.1,9.61,7.18,17.63,13.26,25.13S478,212,479.78,221.6a50.73,50.73,0,0,1-1.26,24.08,11.1,11.1,0,0,1-4.79,3.49c.75-4.3,2.32-8.38,2.81-12.78,1.28-11.61-1.83-21.89-8.5-31.27-3.78-5.31-8.18-10.15-11.64-15.71-4.06-6.56-6.18-13.85-8.08-21.19a56.5,56.5,0,0,0-5.52-13.62,77.69,77.69,0,0,1-8.38-24.44c-1.76-9.67-4.91-18.83-11.62-26.4A36.11,36.11,0,0,0,413,96a3.46,3.46,0,0,1-2.15-3.36A13.52,13.52,0,0,1,415.69,92.7Z"/><path class="b1b01abb-98ba-42c6-83dc-2f52b76eda61" d="M366.8,87.12c.13,2-1.32,2.2-2.75,2.61-15.73,4.56-26.51,14.47-31.59,30.09a43.07,43.07,0,0,0-1.79,18.25c.17,1.45,0,2.87-1.69,3.11s-2.25-1-2.34-2.54c-.61-11,1.19-21.41,7-30.86a45.76,45.76,0,0,1,22-18.93c.92-.38,2.18-.36,2.62-1.6A29.1,29.1,0,0,1,366.8,87.12Z"/><path class="b1b01abb-98ba-42c6-83dc-2f52b76eda61" d="M302.36,240a26.07,26.07,0,0,0,3.51,12.67,8.86,8.86,0,0,1,1.37,5.38,15.46,15.46,0,0,0,.41,4.77c1.3,6-1.07,10.39-6.83,12.71a2.35,2.35,0,0,0-1.66,2.63c0,2.22.36,4.48-.48,6.64-.33.83-.71,2-1.73,1.62s-.3-1.38-.07-2.1c1.53-4.75.44-9.35-.8-13.93-.2-.74-1-1.6.08-2.1a8.53,8.53,0,0,1,3.55-1c.79,0,.39.95,0,1.47s-1.46.78-1.6,1.71A4.07,4.07,0,0,0,299,274c1,1,1.94-.25,2.8-.76a8.34,8.34,0,0,0,4.34-6.42c.66-5.44-2.19-8.16-8.7-8.5a48.89,48.89,0,0,0-7.46.53c-.57.06-1.46.3-1.62-.48-.21-1,.75-1,1.43-1.12,5.22-.78,10.44-1.49,15.35,1.4.59-4.87-2.61-8.05-7.64-8.39a31.55,31.55,0,0,0-10.59,1.17c-.82.22-1.95.9-2.33-.26s1-1.29,1.73-1.49c5.21-1.37,10.44-2.39,15.75-.27-.17-3.9-2.84-6.41-6.84-6.69-3.7-.25-7,1.11-10.41,2.22-.59.19-1.19.38-1.78.59s-1.3.56-1.67-.15c-.52-1,.49-1.26,1.07-1.45,5.58-1.85,10.95-5.15,17.18-1.74,1.94,1.06.84-1.26,1.33-1.9Z"/><path class="a34acc2e-e41a-4023-bbf6-36cd66804afb" d="M152.65,166.42c-.64-3.63,2.5-9.14,6.62-11.67a12,12,0,0,1,17.88,7.05c.07.26.25.63.14.77-2,2.61-.2,5.45-.47,8.17a19.83,19.83,0,0,1-2.2,7.92c-1.66,3-4,5-7.56,5.12a7.38,7.38,0,0,1-5.18-4.3c-2.42-5.36-2.48-10.77.47-15.95s7.75-5.63,12-1.62c.25.23.46.55.87.29-.39.26-.17.52,0,.77a.3.3,0,0,0,.21-.06c.13-.32.13-.6-.3-.67-2-7-9.22-9.8-15.22-5.84-2.9,1.91-4.47,4.77-5.65,7.92C153.94,165.16,154.08,166.41,152.65,166.42Z"/><path class="b25f708a-6ed2-4c10-b172-d470f10f84af" d="M153.69,198.74c-4.69-.36-9.14-1.27-12.46-5.12-2.68-3.09-2.08-7.06,1.52-9,4.88-2.66,14.3-1.51,18.13,2.45,1.59,1.65,3,3.82,2.28,6.28a7,7,0,0,1-5.22,4.9A11.3,11.3,0,0,1,153.69,198.74Z"/><path class="b25f708a-6ed2-4c10-b172-d470f10f84af" d="M187.46,193.38c-4.45-.13-6.35-2.2-6.9-8.06-.59-6.34,1.08-12.4,2.89-18.37.41-1.37,1.63-3.47,4-2,.19,6.73,1.91,12.89,6.2,18.3,2.42,3,1.59,5.78-1.81,7.68Z"/><path class="a34acc2e-e41a-4023-bbf6-36cd66804afb" d="M213.13,161.35c2.45,4.39,3.18,9,1.38,13.77-.53,3.43-2.8,5.46-5.66,7a6,6,0,0,1-6.11-3.51,16.15,16.15,0,0,1,.2-15C205.26,159.23,209.15,158.47,213.13,161.35Z"/><path class="bef5a881-f224-4b44-bc9e-25f7ae3081f5" d="M175.19,162.2c-.41.26-.62-.06-.87-.29-4.22-4-9.09-3.42-12,1.62s-2.89,10.59-.47,15.95a7.38,7.38,0,0,0,5.18,4.3c-.57,1.47-1.79.94-2.75.78a13.62,13.62,0,0,1-11.66-13.32c-.06-1.61,0-3.22,0-4.82,1.43,0,1.29-1.26,1.6-2.1,1.18-3.15,2.75-6,5.65-7.92,6-4,13.26-1.17,15.22,5.84Z"/><path class="bef5a881-f224-4b44-bc9e-25f7ae3081f5" d="M213.13,161.35c-4-2.88-7.87-2.12-10.19,2.31a16.15,16.15,0,0,0-.2,15,6,6,0,0,0,6.11,3.51c-3.61,2.41-8.56.59-10.94-3a15.53,15.53,0,0,1-2.66-11.22c.21-1.31.22-2.66.32-4,1.1.3,1.53-.27,2-1.22a15.69,15.69,0,0,1,2.05-3.4c4.51-5.68,10.73-5.13,14.45,1.22Z"/><path class="a34acc2e-e41a-4023-bbf6-36cd66804afb" d="M165.38,138.88a8.72,8.72,0,0,1,4.88,1.16,2.7,2.7,0,0,1,1.47,2.91,2.53,2.53,0,0,1-2.7,2.14,30.25,30.25,0,0,0-15.72,3.65c-1.12.6-2.49,1-3.34-.41s.1-2.42,1-3.29A21,21,0,0,1,165.38,138.88Z"/><path class="b1b01abb-98ba-42c6-83dc-2f52b76eda61" d="M102.21,171.37a13,13,0,0,1,6.84,3c5.11,4,8,9.47,9.54,15.69.21.85.48,2-.59,2.34-1.48.45-1.34-1.08-1.65-1.87-.42-1.07-.58-2.25-1-3.33-1.25-3.35-3.65-3.83-6.18-1.15a20.16,20.16,0,0,0-2.07,3.1c-.42.64-.67,1.7-1.72,1.07a1.52,1.52,0,0,1-.31-2.17c1.34-2.37,3.07-4.53,5.74-5.29,2.22-.64,2-1.26.84-2.83a16.86,16.86,0,0,0-9.89-6.34c-.69-.17-1.85,0-1.66-1.22C100.28,171.38,101.22,171.42,102.21,171.37Z"/><path class="b1b01abb-98ba-42c6-83dc-2f52b76eda61" d="M187.46,193.38l4.41-2.47c3.4-1.9,4.23-4.64,1.81-7.68-4.29-5.41-6-11.57-6.2-18.3,1.41-.19,2.14.23,2.17,1.84A22.47,22.47,0,0,0,194.91,181c1.7,2.08,3.42,4.41,2.26,7.56-1,2.86-6.09,6.24-8.95,5.76C187.69,194.26,187.55,193.83,187.46,193.38Z"/><path class="b1b01abb-98ba-42c6-83dc-2f52b76eda61" d="M185.86,207.91a17.3,17.3,0,0,1-11.69-4.49c-.61-.56-1.67-1.23-.81-2.17s1.61-.13,2.32.46c4.32,3.58,9.19,4.95,14.71,3.55a10.09,10.09,0,0,0,4.63-2.47c.6-.58,1.34-1.17,2.09-.4,1,1-.08,1.68-.72,2.13A18.39,18.39,0,0,1,185.86,207.91Z"/><path class="a4ce7120-beef-43a4-8ab9-d7f581249e5b" d="M95.09,166.17l.59-.73Z"/><path class="a37c28a8-90c5-4718-88a4-a0c9cf085a05" d="M436.14,167a18.37,18.37,0,0,1,4.79,12.9c-1.19,9.88-6.34,16.7-15.72,20.16a18.46,18.46,0,0,1-10.31.43c-1.64-.35-2.39.18-3.49,1.46-3.68,4.25-2.05,8.94-1.48,13.49.71,5.76,1.74,11.48,2.63,17.22-.88,4-3.59,7-6.19,9.86A48.75,48.75,0,0,1,388.79,255a21.46,21.46,0,0,1-10.27,1.29c-3.75-.35-6.6-3.9-7.44-8.74-.64-3.73-.26-7.49-.54-11.23l.12-.72c5.79-1.43,13.31-8.29,13.64-12.63a63.41,63.41,0,0,1-13.65,3.79,58.13,58.13,0,0,1-14.91.06c-16.1-2.53-29.3-16.67-30.64-33a9.46,9.46,0,0,0,5.28-.45c4.35-1.88,6.61-5,3.15-9.29-2-2.5-4.87-3.49-8-3.56.16-2.33.31-4.65.47-7l1,0c.67,2.17,2.34,3.58,3.89,5.08,3.08,2.42,6.41,2.39,9.42-.33,4.89-4.42,5-10.11,4-16a11,11,0,0,0-8.32-9c-3.88-.75-7.24,1-9.85,5.21A17.28,17.28,0,0,1,325,160c.19-4.36.32-8.71.63-13.06.07-1-.23-3.13,2.11-1.83-.9,1.18-2.22,2.47-1,4s2.74.31,4-.36c2.78-1.44,5.61-2.66,8.85-2.46,1.15.06,2.36.25,3.06-1s0-2.35-.91-3.29l1.49-1.14,2.15-.56a3.68,3.68,0,0,0,3.83,2c4-.61,8-.09,12.05-.38,3.8-.27,4.76-1.22,5.17-5.05.57-5.25,1-10.51,3.06-15.46.2-.49.27-1.05,1-1.28.93.56.51,1.55.55,2.33a35.33,35.33,0,0,0,3.88,14.11,8.18,8.18,0,0,0,7.88,4.94c7.8.16,7.92.12,8.31-7.54a11.81,11.81,0,0,1,1.24-5.68c.46,3.1.85,6.22,1.39,9.3a66.42,66.42,0,0,0,11.17,27.32,20.72,20.72,0,0,0,1.5,1.89c3.64,4,4,4.14,7.77.42C419.47,161.83,429.78,160.33,436.14,167Zm-74.47-4.43a6.61,6.61,0,0,0-.22,6.07c0,.37,0,.74,0,1.1-.67.75-.77,1.46.12,2.12.92,4.53,2.58,8.5,7.58,9.92.87,1.37,2.26,1.29,3.56,1.11a12.64,12.64,0,0,0,8.67-5.27c2.55-3.48,2.46-7.53,2.6-11.54.3-6.45-6-13-12.38-12.81C366.49,153.45,361.77,157.88,361.67,162.59Zm-9.38,1.3c-2.53-.37-2.58,1.56-2.54,3.08a13.86,13.86,0,0,1-3.11,8.63,45.45,45.45,0,0,1-2.93,3.82c-2,2.21-2.31,4.71-.85,7.12a11,11,0,0,0,7.91,4.94c.29.05.68-.52,1-.8,3,.63,4.66-1.13,5.46-3.52,2.27-6.83,2.62-13.72-.29-20.52A4.19,4.19,0,0,0,352.29,163.89Zm21.52,25.43a5.17,5.17,0,0,0,3.68,5.55c4.39,1.66,8.7,1,12.93-.68a9,9,0,0,0,3.85-2.8,5.15,5.15,0,0,0,.41-6.39,8.23,8.23,0,0,0-6.59-3.46,25.32,25.32,0,0,0-6.62.65C376.94,183.24,373.82,186.3,373.81,189.32ZM372.4,140.5c-.39,0-1.1.09-1.8.22-1.83.33-3.76.9-3.69,3.12.08,2.48,2.21,2.34,4,2.39a24.28,24.28,0,0,1,12.24,3.31c1,.6,2.21,1.34,3.13.15s0-2.37-.83-3.29A17.75,17.75,0,0,0,372.4,140.5Zm41.9,49.34A.89.89,0,0,0,415,191c.77.17,1-.5,1.23-1.13.37-1.19.73-2.39,1.17-3.56,1.3-3.45,3.55-3.82,6.06-1a5.53,5.53,0,0,1,1.4,2.84c.12.73.38,1.54,1.35,1.16s.74-1.12.46-1.84c-1-2.49-2.26-4.71-5-5.52-1.65-.49-1.63-1-.62-2.32a15,15,0,0,1,8-5.46c1-.28,2.7-.13,2.44-1.44s-1.94-.69-3-.6a5,5,0,0,0-1.78.57C419.84,176.19,415.77,181.83,414.3,189.84Zm-61.72,13.72a21.23,21.23,0,0,0,11.85-3.86c.78-.57,1.83-1.45,1.14-2.4-.83-1.13-1.69.07-2.39.59-4.72,3.54-12.74,5.11-18.17.89-.67-.52-1.5-1-2.09-.12s.23,1.25.83,1.69A17.23,17.23,0,0,0,352.58,203.56Z"/><path class="a34acc2e-e41a-4023-bbf6-36cd66804afb" d="M325,160a17.28,17.28,0,0,0,1.13-1.46c2.61-4.17,6-6,9.85-5.21a11,11,0,0,1,8.32,9c-.9.17-1.43,0-1.72-1.08a9,9,0,0,0-2.39-3.81c-4.38-4.54-11-3.14-12.7,2.71.52.25.84-.16,1.2-.36,4.65-2.64,8.26.21,9.53,3.76a15.88,15.88,0,0,1,0,11.26c-1.28,3.38-3.95,4.73-7.36,3.9-1.55-1.5-3.22-2.91-3.89-5.08-1.27-3-1-6.14-.89-9.27,0-.94.36-2-1.12-2.19A1.63,1.63,0,0,0,325,160Z"/><path class="b1b01abb-98ba-42c6-83dc-2f52b76eda61" d="M345.35,140.19l-2.15.56c-1.35-1.14-1.53-2.5-1.4-4.27.44-5.62.84-11.23,2.49-16.65,4.3-14.1,12.5-24.76,26.73-30,.25-.09.49-.23.74-.3,1.16-.32,2.43-.64,3,.83s-.43,2.12-1.63,2.6a44.34,44.34,0,0,0-10.57,5.73c-7.39,5.65-11.89,13.21-14.45,22a51.91,51.91,0,0,0-2.26,16.66A5.27,5.27,0,0,1,345.35,140.19Z"/><path class="b25f708a-6ed2-4c10-b172-d470f10f84af" d="M325.49,180.48c3.17.07,6.05,1.06,8,3.56,3.46,4.33,1.2,7.41-3.15,9.29a9.46,9.46,0,0,1-5.28.45C323.81,189.31,324.67,184.89,325.49,180.48Z"/><path class="bb6271ca-1128-494f-9a29-eb7bf002471e" d="M370.65,226.71a63.41,63.41,0,0,0,13.65-3.79c-.33,4.34-7.85,11.2-13.64,12.63C370.65,232.6,370.65,229.66,370.65,226.71Z"/><path class="a34acc2e-e41a-4023-bbf6-36cd66804afb" d="M341.71,141.89c.88.94,1.67,1.92.91,3.29s-1.91,1.08-3.06,1c-3.24-.2-6.07,1-8.85,2.46-1.3.67-2.76,2-4,.36s.14-2.78,1-4C331.65,140.8,336.52,140.62,341.71,141.89Z"/><path class="b29a871f-75b3-4129-89f3-b19dabc83fb5" d="M324.94,162.08c1.48.16,1.15,1.25,1.12,2.19-.1,3.13-.38,6.27.89,9.27l-1,0A45.28,45.28,0,0,1,324.94,162.08Z"/><path class="a37c28a8-90c5-4718-88a4-a0c9cf085a05" d="M368.51,236.68l-.57.14C368.08,236.55,368.26,236.5,368.51,236.68Z"/><path class="bd337005-e24d-485b-9317-37e30cba74d2" d="M286,306.25c-4.21-.48-8.45-.93-12.68-1.49-.84-.11-2.32-.05-2-1.53.31-1.32,1.6-.88,2.5-.72a59.27,59.27,0,0,0,28-1.22c1.19-.36,2.36-.8,3.53-1.21.75-.26,1.68-.8,2.11.19.52,1.17-.62,1.56-1.42,1.82a73,73,0,0,1-8.93,2.75C293.53,305.57,289.79,305.8,286,306.25Z"/><path class="a7f62bd2-0368-40b5-9577-88aebe6c825a" d="M319,345.84l.5.66C319.15,346.43,319,346.18,319,345.84Z"/><path class="a37c28a8-90c5-4718-88a4-a0c9cf085a05" d="M414.18,232.8a.41.41,0,0,1-.66-.05Z"/><path class="bef5a881-f224-4b44-bc9e-25f7ae3081f5" d="M175.12,162.24c.43.07.43.35.3.67a.3.3,0,0,1-.21.06c-.19-.25-.41-.51,0-.77Z"/><path class="a34acc2e-e41a-4023-bbf6-36cd66804afb" d="M369.14,181.8c-5-1.42-6.66-5.39-7.58-9.92a2.65,2.65,0,0,0-.12-2.12c0-.36,0-.73,0-1.1q.82-2.94,1.64-5.9l0,0a1,1,0,0,0,.58-1.06c4.25-4.29,8.74-3.58,11.38,1.93a16.08,16.08,0,0,1,.42,13.2C374.35,179.68,372.42,181.65,369.14,181.8Z"/><path class="b25f708a-6ed2-4c10-b172-d470f10f84af" d="M373.81,189.32c0-3,3.13-6.08,7.66-7.13a25.32,25.32,0,0,1,6.62-.65,8.23,8.23,0,0,1,6.59,3.46,5.15,5.15,0,0,1-.41,6.39,9,9,0,0,1-3.85,2.8c-4.23,1.7-8.54,2.34-12.93.68A5.17,5.17,0,0,1,373.81,189.32Z"/><path class="b25f708a-6ed2-4c10-b172-d470f10f84af" d="M352.29,163.89a4.19,4.19,0,0,1,4.67,2.75c2.91,6.8,2.56,13.69.29,20.52-.8,2.39-2.49,4.15-5.46,3.52-.43-1.7-2.12-1.75-3.3-2.42-4.43-2.53-5-4.83-2-8.88A28.4,28.4,0,0,0,352.29,163.89Z"/><path class="bef5a881-f224-4b44-bc9e-25f7ae3081f5" d="M369.14,181.8c3.28-.15,5.21-2.12,6.31-4.94a16.08,16.08,0,0,0-.42-13.2c-2.64-5.51-7.13-6.22-11.38-1.93a.41.41,0,0,0-.47-.07c2.66-7,9.91-9.12,15.08-4.32a13.11,13.11,0,0,1,4.08,7.32c.21,1.15.56,1.54,1.63,1.44-.14,4-.05,8.06-2.6,11.54a12.64,12.64,0,0,1-8.67,5.27C371.4,183.09,370,183.17,369.14,181.8Z"/><path class="bef5a881-f224-4b44-bc9e-25f7ae3081f5" d="M330.84,178.62c3.41.83,6.08-.52,7.36-3.9a15.88,15.88,0,0,0,0-11.26c-1.27-3.55-4.88-6.4-9.53-3.76-.36.2-.68.61-1.2.36,1.75-5.85,8.32-7.25,12.7-2.71a9,9,0,0,1,2.39,3.81c.29,1.05.82,1.25,1.72,1.08,1,5.94.88,11.63-4,16C337.25,181,333.92,181,330.84,178.62Z"/><path class="a34acc2e-e41a-4023-bbf6-36cd66804afb" d="M372.4,140.5a17.75,17.75,0,0,1,13.07,5.9c.84.92,1.8,2,.83,3.29s-2.15.45-3.13-.15a24.28,24.28,0,0,0-12.24-3.31c-1.81,0-3.94.09-4-2.39-.07-2.22,1.86-2.79,3.69-3.12C371.3,140.59,372,140.54,372.4,140.5Z"/><path class="b1b01abb-98ba-42c6-83dc-2f52b76eda61" d="M414.3,189.84c1.47-8,5.54-13.65,12.43-17.2a5,5,0,0,1,1.78-.57c1.07-.09,2.72-.83,3,.6s-1.48,1.16-2.44,1.44a15,15,0,0,0-8,5.46c-1,1.34-1,1.83.62,2.32,2.75.81,4.05,3,5,5.52.28.72.39,1.51-.46,1.84s-1.23-.43-1.35-1.16a5.53,5.53,0,0,0-1.4-2.84c-2.51-2.79-4.76-2.42-6.06,1-.44,1.17-.8,2.37-1.17,3.56-.2.63-.46,1.3-1.23,1.13A.89.89,0,0,1,414.3,189.84Z"/><path class="b1b01abb-98ba-42c6-83dc-2f52b76eda61" d="M352.29,163.89a28.4,28.4,0,0,1-5.84,15.49c-3,4.05-2.39,6.35,2,8.88,1.18.67,2.87.72,3.3,2.42-.34.28-.73.85-1,.8a11,11,0,0,1-7.91-4.94c-1.46-2.41-1.12-4.91.85-7.12a45.45,45.45,0,0,0,2.93-3.82,13.86,13.86,0,0,0,3.11-8.63C349.71,165.45,349.76,163.52,352.29,163.89Z"/><path class="a34acc2e-e41a-4023-bbf6-36cd66804afb" d="M384,166.1c-1.07.1-1.42-.29-1.63-1.44a13.11,13.11,0,0,0-4.08-7.32c-5.17-4.8-12.42-2.71-15.08,4.32-.2.36-.67.69-.11,1.13l0,0c-.39-.72-1,0-1.42-.17.1-4.71,4.82-9.14,9.92-9.3C377.93,153.1,384.27,159.65,384,166.1Z"/><path class="b1b01abb-98ba-42c6-83dc-2f52b76eda61" d="M352.58,203.56a17.23,17.23,0,0,1-8.83-3.21c-.6-.44-1.34-.95-.83-1.69s1.42-.4,2.09.12c5.43,4.22,13.45,2.65,18.17-.89.7-.52,1.56-1.72,2.39-.59.69.95-.36,1.83-1.14,2.4A21.23,21.23,0,0,1,352.58,203.56Z"/><path class="b29a871f-75b3-4129-89f3-b19dabc83fb5" d="M361.67,162.59c.46.13,1-.55,1.42.17q-.81,3-1.64,5.9A6.61,6.61,0,0,1,361.67,162.59Z"/><path class="b29a871f-75b3-4129-89f3-b19dabc83fb5" d="M361.44,169.76a2.65,2.65,0,0,1,.12,2.12C360.67,171.22,360.77,170.51,361.44,169.76Z"/><path class="b29a871f-75b3-4129-89f3-b19dabc83fb5" d="M363.07,162.79c-.56-.44-.09-.77.11-1.13a.41.41,0,0,1,.47.07A1,1,0,0,1,363.07,162.79Z"/></svg>